<svg width="317" height="50" viewBox="0 0 317 50" fill="none" xmlns="http://www.w3.org/2000/svg">
<path d="M0 0H317L293.328 25L317 50H0L21.6136 25L0 0Z" fill="url(#paint0_linear_43_12747)"/>
<path d="M58.126 31L56.128 27.4H55.858H53.23V31H50.386V18.4H55.858C57.502 18.4 58.774 18.784 59.674 19.552C60.574 20.308 61.024 21.382 61.024 22.774C61.024 23.746 60.82 24.58 60.412 25.276C60.016 25.96 59.434 26.482 58.666 26.842L61.348 31H58.126ZM53.23 25.024H55.858C56.65 25.024 57.256 24.844 57.676 24.484C58.108 24.112 58.324 23.572 58.324 22.864C58.324 22.168 58.108 21.646 57.676 21.298C57.256 20.938 56.65 20.758 55.858 20.758H53.23V25.024ZM67.5154 21.226C69.0754 21.226 70.2574 21.676 71.0614 22.576C71.8774 23.476 72.2854 24.73 72.2854 26.338C72.2854 26.626 72.2794 26.848 72.2674 27.004H65.3194C65.4754 27.616 65.7754 28.096 66.2194 28.444C66.6634 28.78 67.1974 28.948 67.8214 28.948C68.2774 28.948 68.7154 28.864 69.1354 28.696C69.5554 28.516 69.9334 28.258 70.2694 27.922L71.7274 29.398C71.2354 29.95 70.6354 30.376 69.9274 30.676C69.2314 30.964 68.4514 31.108 67.5874 31.108C66.5674 31.108 65.6734 30.904 64.9054 30.496C64.1494 30.088 63.5614 29.512 63.1414 28.768C62.7334 28.024 62.5294 27.166 62.5294 26.194C62.5294 25.21 62.7394 24.346 63.1594 23.602C63.5794 22.846 64.1674 22.264 64.9234 21.856C65.6794 21.436 66.5434 21.226 67.5154 21.226ZM69.6754 25.366C69.6514 24.73 69.4474 24.22 69.0634 23.836C68.6794 23.452 68.1694 23.26 67.5334 23.26C66.9334 23.26 66.4294 23.452 66.0214 23.836C65.6254 24.208 65.3734 24.718 65.2654 25.366H69.6754ZM80.5596 24.61C80.0076 23.926 79.2876 23.584 78.3996 23.584C77.7036 23.584 77.1336 23.824 76.6896 24.304C76.2576 24.772 76.0416 25.396 76.0416 26.176C76.0416 26.956 76.2576 27.592 76.6896 28.084C77.1216 28.564 77.6736 28.804 78.3456 28.804C79.3536 28.804 80.1036 28.426 80.5956 27.67L82.5036 28.966C82.0956 29.65 81.5196 30.178 80.7756 30.55C80.0436 30.922 79.1856 31.108 78.2016 31.108C77.2296 31.108 76.3716 30.904 75.6276 30.496C74.8836 30.088 74.3016 29.512 73.8816 28.768C73.4736 28.024 73.2696 27.166 73.2696 26.194C73.2696 25.21 73.4736 24.346 73.8816 23.602C74.3016 22.846 74.8836 22.264 75.6276 21.856C76.3836 21.436 77.2536 21.226 78.2376 21.226C79.1616 21.226 79.9836 21.406 80.7036 21.766C81.4236 22.114 81.9996 22.612 82.4316 23.26L80.5596 24.61ZM88.3154 21.226C89.3354 21.226 90.2354 21.43 91.0154 21.838C91.8074 22.246 92.4194 22.822 92.8514 23.566C93.2834 24.31 93.4994 25.174 93.4994 26.158C93.4994 27.13 93.2834 27.994 92.8514 28.75C92.4194 29.494 91.8074 30.076 91.0154 30.496C90.2354 30.904 89.3354 31.108 88.3154 31.108C87.2834 31.108 86.3714 30.904 85.5794 30.496C84.7994 30.076 84.1934 29.494 83.7614 28.75C83.3294 27.994 83.1134 27.13 83.1134 26.158C83.1134 25.174 83.3294 24.31 83.7614 23.566C84.1934 22.822 84.7994 22.246 85.5794 21.838C86.3714 21.43 87.2834 21.226 88.3154 21.226ZM88.3154 23.53C87.5954 23.53 87.0074 23.776 86.5514 24.268C86.1074 24.76 85.8854 25.402 85.8854 26.194C85.8854 26.986 86.1074 27.628 86.5514 28.12C87.0074 28.612 87.5954 28.858 88.3154 28.858C89.0234 28.858 89.5994 28.612 90.0434 28.12C90.4994 27.628 90.7274 26.986 90.7274 26.194C90.7274 25.402 90.4994 24.76 90.0434 24.268C89.5994 23.776 89.0234 23.53 88.3154 23.53ZM108.148 21.208C109.216 21.208 110.062 21.544 110.686 22.216C111.322 22.876 111.64 23.776 111.64 24.916V31H108.886V25.726C108.886 25.102 108.718 24.616 108.382 24.268C108.046 23.92 107.59 23.746 107.014 23.746C106.354 23.758 105.832 23.992 105.448 24.448C105.064 24.904 104.872 25.492 104.872 26.212V31H102.118V25.726C102.118 25.114 101.95 24.634 101.614 24.286C101.29 23.926 100.84 23.746 100.264 23.746C99.604 23.758 99.076 23.992 98.68 24.448C98.296 24.904 98.104 25.492 98.104 26.212V31H95.332V21.316H98.104V22.99C98.776 21.826 99.868 21.232 101.38 21.208C102.196 21.208 102.886 21.406 103.45 21.802C104.014 22.186 104.416 22.732 104.656 23.44C104.968 22.708 105.418 22.156 106.006 21.784C106.606 21.412 107.32 21.22 108.148 21.208ZM126.851 21.208C127.919 21.208 128.765 21.544 129.389 22.216C130.025 22.876 130.343 23.776 130.343 24.916V31H127.589V25.726C127.589 25.102 127.421 24.616 127.085 24.268C126.749 23.92 126.293 23.746 125.717 23.746C125.057 23.758 124.535 23.992 124.151 24.448C123.767 24.904 123.575 25.492 123.575 26.212V31H120.821V25.726C120.821 25.114 120.653 24.634 120.317 24.286C119.993 23.926 119.543 23.746 118.967 23.746C118.307 23.758 117.779 23.992 117.383 24.448C116.999 24.904 116.807 25.492 116.807 26.212V31H114.035V21.316H116.807V22.99C117.479 21.826 118.571 21.232 120.083 21.208C120.899 21.208 121.589 21.406 122.153 21.802C122.717 22.186 123.119 22.732 123.359 23.44C123.671 22.708 124.121 22.156 124.709 21.784C125.309 21.412 126.023 21.22 126.851 21.208ZM136.896 21.226C138.456 21.226 139.638 21.676 140.442 22.576C141.258 23.476 141.666 24.73 141.666 26.338C141.666 26.626 141.66 26.848 141.648 27.004H134.7C134.856 27.616 135.156 28.096 135.6 28.444C136.044 28.78 136.578 28.948 137.202 28.948C137.658 28.948 138.096 28.864 138.516 28.696C138.936 28.516 139.314 28.258 139.65 27.922L141.108 29.398C140.616 29.95 140.016 30.376 139.308 30.676C138.612 30.964 137.832 31.108 136.968 31.108C135.948 31.108 135.054 30.904 134.286 30.496C133.53 30.088 132.942 29.512 132.522 28.768C132.114 28.024 131.91 27.166 131.91 26.194C131.91 25.21 132.12 24.346 132.54 23.602C132.96 22.846 133.548 22.264 134.304 21.856C135.06 21.436 135.924 21.226 136.896 21.226ZM139.056 25.366C139.032 24.73 138.828 24.22 138.444 23.836C138.06 23.452 137.55 23.26 136.914 23.26C136.314 23.26 135.81 23.452 135.402 23.836C135.006 24.208 134.754 24.718 134.646 25.366H139.056ZM149.598 21.208C150.678 21.208 151.536 21.544 152.172 22.216C152.82 22.888 153.144 23.788 153.144 24.916V31H150.372V25.726C150.372 25.114 150.198 24.634 149.85 24.286C149.514 23.926 149.052 23.746 148.464 23.746C147.78 23.758 147.24 23.998 146.844 24.466C146.448 24.922 146.25 25.51 146.25 26.23V31H143.478V21.316H146.25V23.008C146.922 21.832 148.038 21.232 149.598 21.208ZM165.095 17.644V31H162.341V29.578C161.993 30.082 161.561 30.466 161.045 30.73C160.529 30.982 159.941 31.108 159.281 31.108C158.369 31.108 157.565 30.904 156.869 30.496C156.185 30.076 155.651 29.488 155.267 28.732C154.895 27.976 154.709 27.106 154.709 26.122C154.709 25.15 154.895 24.292 155.267 23.548C155.639 22.804 156.167 22.228 156.851 21.82C157.535 21.412 158.321 21.208 159.209 21.208C160.577 21.208 161.621 21.718 162.341 22.738V17.644H165.095ZM159.929 28.876C160.637 28.876 161.213 28.63 161.657 28.138C162.113 27.634 162.341 26.986 162.341 26.194C162.341 25.402 162.113 24.76 161.657 24.268C161.213 23.764 160.637 23.512 159.929 23.512C159.209 23.512 158.621 23.764 158.165 24.268C157.721 24.76 157.493 25.402 157.481 26.194C157.493 26.986 157.721 27.634 158.165 28.138C158.621 28.63 159.209 28.876 159.929 28.876ZM172.017 21.226C173.577 21.226 174.759 21.676 175.563 22.576C176.379 23.476 176.787 24.73 176.787 26.338C176.787 26.626 176.781 26.848 176.769 27.004H169.821C169.977 27.616 170.277 28.096 170.721 28.444C171.165 28.78 171.699 28.948 172.323 28.948C172.779 28.948 173.217 28.864 173.637 28.696C174.057 28.516 174.435 28.258 174.771 27.922L176.229 29.398C175.737 29.95 175.137 30.376 174.429 30.676C173.733 30.964 172.953 31.108 172.089 31.108C171.069 31.108 170.175 30.904 169.407 30.496C168.651 30.088 168.063 29.512 167.643 28.768C167.235 28.024 167.031 27.166 167.031 26.194C167.031 25.21 167.241 24.346 167.661 23.602C168.081 22.846 168.669 22.264 169.425 21.856C170.181 21.436 171.045 21.226 172.017 21.226ZM174.177 25.366C174.153 24.73 173.949 24.22 173.565 23.836C173.181 23.452 172.671 23.26 172.035 23.26C171.435 23.26 170.931 23.452 170.523 23.836C170.127 24.208 169.875 24.718 169.767 25.366H174.177ZM188.158 17.644V31H185.404V29.578C185.056 30.082 184.624 30.466 184.108 30.73C183.592 30.982 183.004 31.108 182.344 31.108C181.432 31.108 180.628 30.904 179.932 30.496C179.248 30.076 178.714 29.488 178.33 28.732C177.958 27.976 177.772 27.106 177.772 26.122C177.772 25.15 177.958 24.292 178.33 23.548C178.702 22.804 179.23 22.228 179.914 21.82C180.598 21.412 181.384 21.208 182.272 21.208C183.64 21.208 184.684 21.718 185.404 22.738V17.644H188.158ZM182.992 28.876C183.7 28.876 184.276 28.63 184.72 28.138C185.176 27.634 185.404 26.986 185.404 26.194C185.404 25.402 185.176 24.76 184.72 24.268C184.276 23.764 183.7 23.512 182.992 23.512C182.272 23.512 181.684 23.764 181.228 24.268C180.784 24.76 180.556 25.402 180.544 26.194C180.556 26.986 180.784 27.634 181.228 28.138C181.684 28.63 182.272 28.876 182.992 28.876ZM203.493 21.91C202.845 21.514 202.155 21.202 201.423 20.974C200.703 20.734 200.085 20.614 199.569 20.614C199.077 20.614 198.687 20.704 198.399 20.884C198.111 21.064 197.967 21.328 197.967 21.676C197.967 22.12 198.171 22.462 198.579 22.702C198.999 22.93 199.641 23.17 200.505 23.422C201.369 23.674 202.077 23.926 202.629 24.178C203.193 24.43 203.673 24.808 204.069 25.312C204.465 25.816 204.663 26.482 204.663 27.31C204.663 28.114 204.447 28.81 204.015 29.398C203.595 29.974 203.013 30.412 202.269 30.712C201.525 31.012 200.679 31.162 199.731 31.162C198.711 31.162 197.709 30.982 196.725 30.622C195.741 30.262 194.889 29.77 194.169 29.146L195.303 26.824C195.939 27.4 196.671 27.862 197.499 28.21C198.327 28.558 199.083 28.732 199.767 28.732C200.355 28.732 200.811 28.624 201.135 28.408C201.471 28.192 201.639 27.88 201.639 27.472C201.639 27.148 201.525 26.884 201.297 26.68C201.081 26.464 200.799 26.29 200.451 26.158C200.115 26.026 199.647 25.876 199.047 25.708C198.183 25.468 197.475 25.228 196.923 24.988C196.383 24.748 195.915 24.382 195.519 23.89C195.123 23.398 194.925 22.744 194.925 21.928C194.925 21.172 195.129 20.512 195.537 19.948C195.945 19.372 196.515 18.934 197.247 18.634C197.979 18.322 198.831 18.166 199.803 18.166C200.667 18.166 201.519 18.292 202.359 18.544C203.199 18.796 203.943 19.132 204.591 19.552L203.493 21.91ZM210.76 21.226C212.32 21.226 213.502 21.676 214.306 22.576C215.122 23.476 215.53 24.73 215.53 26.338C215.53 26.626 215.524 26.848 215.512 27.004H208.564C208.72 27.616 209.02 28.096 209.464 28.444C209.908 28.78 210.442 28.948 211.066 28.948C211.522 28.948 211.96 28.864 212.38 28.696C212.8 28.516 213.178 28.258 213.514 27.922L214.972 29.398C214.48 29.95 213.88 30.376 213.172 30.676C212.476 30.964 211.696 31.108 210.832 31.108C209.812 31.108 208.918 30.904 208.15 30.496C207.394 30.088 206.806 29.512 206.386 28.768C205.978 28.024 205.774 27.166 205.774 26.194C205.774 25.21 205.984 24.346 206.404 23.602C206.824 22.846 207.412 22.264 208.168 21.856C208.924 21.436 209.788 21.226 210.76 21.226ZM212.92 25.366C212.896 24.73 212.692 24.22 212.308 23.836C211.924 23.452 211.414 23.26 210.778 23.26C210.178 23.26 209.674 23.452 209.266 23.836C208.87 24.208 208.618 24.718 208.51 25.366H212.92ZM220.114 23.062C220.45 22.462 220.888 22.006 221.428 21.694C221.968 21.382 222.598 21.22 223.318 21.208V23.818C223.222 23.806 223.078 23.8 222.886 23.8C222.034 23.8 221.356 24.034 220.852 24.502C220.36 24.958 220.114 25.57 220.114 26.338V31H217.342V21.316H220.114V23.062ZM223.883 21.334L226.746 21.316L229.032 28.372L231.3 21.316H234.054L230.4 31H227.556L223.883 21.334ZM235.271 21.316H238.043V31H235.271V21.316ZM236.639 17.014C237.083 17.014 237.443 17.158 237.719 17.446C238.007 17.734 238.151 18.106 238.151 18.562C238.151 19.018 238.007 19.39 237.719 19.678C237.443 19.966 237.083 20.11 236.639 20.11C236.207 20.11 235.847 19.966 235.559 19.678C235.283 19.378 235.145 19.006 235.145 18.562C235.145 18.106 235.283 17.734 235.559 17.446C235.847 17.158 236.207 17.014 236.639 17.014ZM247.165 24.61C246.613 23.926 245.893 23.584 245.005 23.584C244.309 23.584 243.739 23.824 243.295 24.304C242.863 24.772 242.647 25.396 242.647 26.176C242.647 26.956 242.863 27.592 243.295 28.084C243.727 28.564 244.279 28.804 244.951 28.804C245.959 28.804 246.709 28.426 247.201 27.67L249.109 28.966C248.701 29.65 248.125 30.178 247.381 30.55C246.649 30.922 245.791 31.108 244.807 31.108C243.835 31.108 242.977 30.904 242.233 30.496C241.489 30.088 240.907 29.512 240.487 28.768C240.079 28.024 239.875 27.166 239.875 26.194C239.875 25.21 240.079 24.346 240.487 23.602C240.907 22.846 241.489 22.264 242.233 21.856C242.989 21.436 243.859 21.226 244.843 21.226C245.767 21.226 246.589 21.406 247.309 21.766C248.029 22.114 248.605 22.612 249.037 23.26L247.165 24.61ZM254.705 21.226C256.265 21.226 257.447 21.676 258.251 22.576C259.067 23.476 259.475 24.73 259.475 26.338C259.475 26.626 259.469 26.848 259.457 27.004H252.509C252.665 27.616 252.965 28.096 253.409 28.444C253.853 28.78 254.387 28.948 255.011 28.948C255.467 28.948 255.905 28.864 256.325 28.696C256.745 28.516 257.123 28.258 257.459 27.922L258.917 29.398C258.425 29.95 257.825 30.376 257.117 30.676C256.421 30.964 255.641 31.108 254.777 31.108C253.757 31.108 252.863 30.904 252.095 30.496C251.339 30.088 250.751 29.512 250.331 28.768C249.923 28.024 249.719 27.166 249.719 26.194C249.719 25.21 249.929 24.346 250.349 23.602C250.769 22.846 251.357 22.264 252.113 21.856C252.869 21.436 253.733 21.226 254.705 21.226ZM256.865 25.366C256.841 24.73 256.637 24.22 256.253 23.836C255.869 23.452 255.359 23.26 254.723 23.26C254.123 23.26 253.619 23.452 253.211 23.836C252.815 24.208 252.563 24.718 252.455 25.366H256.865ZM267.389 24.16C266.861 23.86 266.339 23.632 265.823 23.476C265.307 23.308 264.845 23.224 264.437 23.224C264.101 23.224 263.831 23.284 263.627 23.404C263.423 23.524 263.321 23.704 263.321 23.944C263.321 24.208 263.459 24.412 263.735 24.556C264.011 24.7 264.461 24.862 265.085 25.042C265.769 25.246 266.333 25.45 266.777 25.654C267.221 25.846 267.605 26.14 267.929 26.536C268.253 26.92 268.415 27.43 268.415 28.066C268.415 29.026 268.043 29.776 267.299 30.316C266.567 30.844 265.625 31.108 264.473 31.108C263.681 31.108 262.919 30.994 262.187 30.766C261.455 30.526 260.819 30.19 260.279 29.758L261.179 27.886C261.671 28.27 262.217 28.57 262.817 28.786C263.429 28.99 264.005 29.092 264.545 29.092C264.917 29.092 265.211 29.032 265.427 28.912C265.655 28.78 265.769 28.588 265.769 28.336C265.769 28.06 265.625 27.844 265.337 27.688C265.061 27.532 264.611 27.364 263.987 27.184C263.327 26.992 262.775 26.8 262.331 26.608C261.899 26.416 261.527 26.128 261.215 25.744C260.903 25.348 260.747 24.838 260.747 24.214C260.747 23.254 261.107 22.51 261.827 21.982C262.547 21.454 263.459 21.19 264.563 21.19C265.223 21.19 265.883 21.286 266.543 21.478C267.203 21.658 267.803 21.922 268.343 22.27L267.389 24.16Z" fill="#EDEDED"/>
<defs>
<linearGradient id="paint0_linear_43_12747" x1="0" y1="0" x2="15.39" y2="97.5726" gradientUnits="userSpaceOnUse">
<stop stop-color="#EC293A"/>
<stop offset="1" stop-color="#751B1E"/>
</linearGradient>
</defs>
</svg>
