<svg width="14" height="14" viewBox="0 0 14 14" fill="none" xmlns="http://www.w3.org/2000/svg">
<path d="M4.66797 13.6654C4.3013 13.6654 3.9873 13.5347 3.72597 13.2734C3.46464 13.012 3.33419 12.6983 3.33464 12.332C3.33464 11.9654 3.4653 11.6514 3.72664 11.39C3.98797 11.1287 4.30175 10.9983 4.66797 10.9987C5.03464 10.9987 5.34864 11.1294 5.60997 11.3907C5.8713 11.652 6.00175 11.9658 6.0013 12.332C6.0013 12.6987 5.87064 13.0127 5.6093 13.274C5.34797 13.5354 5.03419 13.6658 4.66797 13.6654ZM11.3346 13.6654C10.968 13.6654 10.654 13.5347 10.3926 13.2734C10.1313 13.012 10.0009 12.6983 10.0013 12.332C10.0013 11.9654 10.132 11.6514 10.3933 11.39C10.6546 11.1287 10.9684 10.9983 11.3346 10.9987C11.7013 10.9987 12.0153 11.1294 12.2766 11.3907C12.538 11.652 12.6684 11.9658 12.668 12.332C12.668 12.6987 12.5373 13.0127 12.276 13.274C12.0146 13.5354 11.7009 13.6658 11.3346 13.6654ZM4.1013 2.9987L5.7013 6.33203H10.368L12.2013 2.9987H4.1013ZM3.46797 1.66536H13.3013C13.5569 1.66536 13.7513 1.77936 13.8846 2.00736C14.018 2.23536 14.0235 2.46581 13.9013 2.6987L11.5346 6.96536C11.4124 7.18759 11.2484 7.35981 11.0426 7.48203C10.8369 7.60425 10.612 7.66536 10.368 7.66536H5.4013L4.66797 8.9987H12.668V10.332H4.66797C4.16797 10.332 3.79019 10.1125 3.53464 9.67336C3.27908 9.23425 3.26797 8.79825 3.5013 8.36537L4.4013 6.73203L2.0013 1.66536H0.667969V0.332031H2.83464L3.46797 1.66536Z" fill="#0C0C0C"/>
</svg>
