<svg width="24" height="12" viewBox="0 0 24 12" fill="none" xmlns="http://www.w3.org/2000/svg">
<path d="M15 1.96875H18C18.6566 1.96875 19.3068 2.07457 19.9134 2.28016C20.52 2.48575 21.0712 2.78709 21.5355 3.16697C21.9998 3.54685 22.3681 3.99784 22.6194 4.49418C22.8707 4.99052 23 5.5225 23 6.05973C23 6.59697 22.8707 7.12894 22.6194 7.62528C22.3681 8.12163 21.9998 8.57261 21.5355 8.95249C21.0712 9.33238 20.52 9.63372 19.9134 9.83931C19.3068 10.0449 18.6566 10.1507 18 10.1507H15M9 10.1507H6C5.34339 10.1507 4.69321 10.0449 4.08658 9.83931C3.47995 9.63372 2.92876 9.33238 2.46447 8.95249C1.52678 8.18529 1 7.14473 1 6.05973C1 4.97474 1.52678 3.93418 2.46447 3.16697C3.40215 2.39976 4.67392 1.96875 6 1.96875H9" stroke="#EDEDED" stroke-width="2" stroke-linecap="round" stroke-linejoin="round"/>
<path d="M8 6.05859H16" stroke="#EDEDED" stroke-width="2" stroke-linecap="round" stroke-linejoin="round"/>
</svg>
