<svg width="23" height="18" viewBox="0 0 23 18" fill="none" xmlns="http://www.w3.org/2000/svg">
<path d="M20.2913 3.1977C19.7805 2.7796 19.1741 2.44794 18.5066 2.22166C17.8392 1.99537 17.1238 1.87891 16.4013 1.87891C15.6788 1.87891 14.9634 1.99537 14.2959 2.22166C13.6285 2.44794 13.022 2.7796 12.5113 3.1977L11.4513 4.06498L10.3913 3.1977C9.3596 2.35357 7.96032 1.87934 6.50129 1.87934C5.04226 1.87934 3.64298 2.35357 2.61129 3.1977C1.5796 4.04182 1 5.18671 1 6.38048C1 7.57426 1.5796 8.71914 2.61129 9.56327L3.67129 10.4306L11.4513 16.7961L19.2313 10.4306L20.2913 9.56327C20.8023 9.14537 21.2076 8.64919 21.4842 8.10308C21.7608 7.55696 21.9031 6.97162 21.9031 6.38048C21.9031 5.78934 21.7608 5.204 21.4842 4.65789C21.2076 4.11177 20.8023 3.6156 20.2913 3.1977Z" stroke="#FCEE21" stroke-width="2" stroke-linecap="round" stroke-linejoin="round"/>
</svg>
