<svg width="22" height="19" viewBox="0 0 22 19" fill="none" xmlns="http://www.w3.org/2000/svg">
<path d="M15 6.78613C16.5913 6.78613 18.1174 7.30335 19.2426 8.224C20.3679 9.14465 21 10.3933 21 11.6953V17.4227H17V11.6953C17 11.2613 16.7893 10.8451 16.4142 10.5382C16.0391 10.2313 15.5304 10.0589 15 10.0589C14.4696 10.0589 13.9609 10.2313 13.5858 10.5382C13.2107 10.8451 13 11.2613 13 11.6953V17.4227H9V11.6953C9 10.3933 9.63214 9.14465 10.7574 8.224C11.8826 7.30335 13.4087 6.78613 15 6.78613Z" stroke="#EDEDED" stroke-width="2" stroke-linecap="round" stroke-linejoin="round"/>
<path d="M5 7.60547H1V17.4238H5V7.60547Z" stroke="#EDEDED" stroke-width="2" stroke-linecap="round" stroke-linejoin="round"/>
<path d="M3 5.15169C4.10457 5.15169 5 4.41905 5 3.5153C5 2.61154 4.10457 1.87891 3 1.87891C1.89543 1.87891 1 2.61154 1 3.5153C1 4.41905 1.89543 5.15169 3 5.15169Z" stroke="#EDEDED" stroke-width="2" stroke-linecap="round" stroke-linejoin="round"/>
</svg>
