<svg width="24" height="18" viewBox="0 0 24 18" fill="none" xmlns="http://www.w3.org/2000/svg">
<path d="M23 1.70354C22.0424 2.25621 20.9821 2.67892 19.86 2.95538C19.2577 2.38879 18.4573 1.9872 17.567 1.80494C16.6767 1.62267 15.7395 1.66852 14.8821 1.93628C14.0247 2.20404 13.2884 2.6808 12.773 3.30206C12.2575 3.92333 11.9877 4.65914 12 5.40997V6.22817C10.2426 6.26545 8.50127 5.94655 6.93101 5.29988C5.36074 4.6532 4.01032 3.69882 3 2.52174C3 2.52174 -1 9.88551 8 13.1583C5.94053 14.3021 3.48716 14.8756 1 14.7947C10 18.8857 21 14.7947 21 5.38542C20.9991 5.15752 20.9723 4.93018 20.92 4.70632C21.9406 3.8828 22.6608 2.84305 23 1.70354Z" stroke="#EDEDED" stroke-width="2" stroke-linecap="round" stroke-linejoin="round"/>
</svg>
