<svg width="38" height="43" viewBox="0 0 38 43" fill="none" xmlns="http://www.w3.org/2000/svg">
<path d="M17.988 5.59766H5.01968C4.03699 5.59766 3.09455 5.97957 2.39969 6.65938C1.70482 7.33919 1.31445 8.26122 1.31445 9.22262V34.5973C1.31445 35.5587 1.70482 36.4808 2.39969 37.1606C3.09455 37.8404 4.03699 38.2223 5.01968 38.2223H30.9563C31.9389 38.2223 32.8814 37.8404 33.5763 37.1606C34.2711 36.4808 34.6615 35.5587 34.6615 34.5973V21.91" stroke="#FCEE21" stroke-width="2" stroke-linecap="round" stroke-linejoin="round"/>
<path d="M23.5459 1.75391H30.9564C31.939 1.75391 32.8815 2.13582 33.5763 2.81563C34.2712 3.49544 34.6616 4.41747 34.6616 5.37887C34.6616 6.34027 34.2712 7.26229 33.5763 7.9421C32.8815 8.62191 31.939 9.00383 30.9564 9.00383H23.5459V1.75391Z" stroke="#FCEE21" stroke-width="2" stroke-linecap="round" stroke-linejoin="round"/>
<path d="M23.5459 9.00391H32.5239C33.5822 9.00391 34.5972 9.38582 35.3455 10.0656C36.0938 10.7454 36.5142 11.6675 36.5142 12.6289C36.5142 13.5903 36.0938 14.5123 35.3455 15.1921C34.5972 15.8719 33.5822 16.2538 32.5239 16.2538H23.5459V9.00391Z" stroke="#FCEE21" stroke-width="2" stroke-linecap="round" stroke-linejoin="round"/>
<rect x="6.87207" y="38.4102" width="22.2314" height="3.70523" rx="1.85261" fill="#FCEE21"/>
<rect x="7" y="26.1152" width="22.2314" height="3.70523" rx="1.85261" fill="#FCEE21"/>
<rect x="7" y="15" width="9.26307" height="3.70523" rx="1" fill="#FCEE21"/>
</svg>
