<svg width="37" height="36" viewBox="0 0 37 36" fill="none" xmlns="http://www.w3.org/2000/svg">
<path d="M1.18457 5.34388L1.18457 31.1304C1.18457 33.1649 2.87038 34.8142 4.94993 34.8142H31.3074C33.387 34.8142 35.0728 33.1649 35.0728 31.1304V5.34388C35.0728 3.30938 33.387 1.66009 31.3074 1.66009H4.94993C2.87038 1.66009 1.18457 3.30938 1.18457 5.34388Z" stroke="#EDEDED" stroke-width="2" stroke-linecap="round" stroke-linejoin="round"/>
<path d="M17.9536 5.10549C17.6552 5.23558 17.4009 5.49034 17.2848 5.76136C17.2517 5.84808 17.1633 6.29798 17.0914 6.75872C16.9919 7.41459 16.9422 7.62056 16.8537 7.71271C16.6935 7.88074 15.9141 8.19513 15.7594 8.15719C15.6875 8.1355 15.3228 7.90242 14.9414 7.62598C14.56 7.35496 14.1731 7.1002 14.0736 7.05684C13.8305 6.95385 13.3496 6.96469 13.1396 7.07852C12.8743 7.22487 11.8628 8.2927 11.7357 8.5583C11.5975 8.86184 11.5975 9.26837 11.7357 9.56649C11.791 9.69116 12.0673 10.0814 12.3382 10.4283C12.6643 10.8457 12.8411 11.1113 12.8411 11.2035C12.8411 11.4528 12.4984 12.19 12.3437 12.2659C12.2663 12.3038 11.9071 12.3743 11.5423 12.4231C10.6911 12.5423 10.3927 12.6399 10.1218 12.8784C9.7073 13.2415 9.66309 13.3933 9.66309 14.3798C9.66309 15.3609 9.71283 15.5235 10.1108 15.865C10.3816 16.1035 10.4756 16.1306 11.4207 16.2824C11.8739 16.3529 12.2939 16.4396 12.3547 16.4721C12.515 16.5588 12.8245 17.2527 12.8522 17.5996C12.8853 17.941 13.0235 18.0928 13.2943 18.0928C13.532 18.0928 13.6536 18.0115 13.7254 17.7947C13.8139 17.5345 13.7531 17.2418 13.5044 16.6727C13.0898 15.7404 12.9461 15.6482 11.6362 15.4314C10.4534 15.2417 10.4645 15.2525 10.4645 14.4069C10.4645 13.5613 10.4534 13.5668 11.6307 13.3771C12.9682 13.1602 13.1341 13.0464 13.5154 12.0978C13.7476 11.5124 13.7862 11.0788 13.6481 10.759C13.6094 10.6614 13.333 10.2657 13.0401 9.88088C12.6587 9.37136 12.5095 9.13286 12.5095 9.01903C12.5095 8.88894 12.5979 8.76969 12.9682 8.40652C13.5873 7.79944 13.5928 7.79944 14.4992 8.44989C15.3228 9.03529 15.4443 9.09492 15.881 9.09492C16.1463 9.09492 16.3231 9.05155 16.7543 8.87268C17.3235 8.64502 17.5888 8.43905 17.7657 8.11382C17.821 7.99999 17.926 7.53384 18.0089 7.02974C18.1858 5.90229 18.1636 5.92939 18.954 5.90771C19.5841 5.88603 19.8052 5.93481 19.9102 6.12995C19.9433 6.19499 20.0318 6.61778 20.1036 7.06768C20.1755 7.51757 20.2805 7.97831 20.3302 8.08672C20.4739 8.37942 20.7558 8.5854 21.3527 8.83474C21.7673 9.00819 21.9497 9.05155 22.2094 9.05698C22.6405 9.05698 22.7953 8.98651 23.6188 8.39568C24.072 8.07046 24.3594 7.90242 24.4534 7.90242C24.6358 7.90242 24.9398 8.11924 25.3543 8.54746C25.7357 8.94857 25.7357 8.99193 25.3267 9.53939C25.1774 9.74537 24.9287 10.076 24.7795 10.282C24.4202 10.759 24.3318 11.1167 24.4589 11.5449C24.6137 12.0599 24.8624 12.5694 25.0448 12.7591C25.3322 13.0572 25.592 13.1494 26.526 13.2957C27.6922 13.4746 27.6591 13.4475 27.6425 14.3419C27.6204 15.1929 27.6425 15.1712 26.6034 15.3284C26.1944 15.3934 25.7357 15.4802 25.5864 15.529C25.1885 15.6536 24.8956 15.968 24.7021 16.4667C24.6192 16.6889 24.5142 16.9708 24.4644 17.09C24.3097 17.4912 24.4258 17.9139 24.8292 18.4289C25.0835 18.7541 25.288 18.8463 25.4925 18.7324C25.8241 18.5319 25.8351 18.2609 25.5256 17.811C25.4206 17.6538 25.3322 17.4857 25.3322 17.4424C25.3322 17.399 25.4206 17.1497 25.5312 16.8895C25.6859 16.5263 25.7633 16.4071 25.8794 16.3637C25.9567 16.3366 26.3602 16.2716 26.7692 16.2228C27.6259 16.1198 27.9575 16.0005 28.2283 15.7078C28.5489 15.3555 28.6042 15.1278 28.5821 14.2064C28.5655 13.415 28.56 13.3879 28.3997 13.1277C28.1123 12.6724 27.9078 12.5748 26.9295 12.4231C26.4597 12.3526 26.001 12.2604 25.9125 12.2171C25.7799 12.1575 25.708 12.0599 25.5643 11.7184C25.4648 11.4799 25.3875 11.236 25.3875 11.1764C25.3875 11.068 25.6362 10.6939 26.1999 9.96219C26.5039 9.56649 26.6034 9.32258 26.6034 8.97567C26.6034 8.53119 26.421 8.22223 25.8186 7.64767C25.5312 7.37122 25.2106 7.11104 25.1056 7.06768C24.4976 6.82376 24.0997 6.91591 23.2927 7.50131C22.5797 8.01083 22.4029 8.11924 22.2647 8.11924C22.0491 8.11924 21.2588 7.73439 21.1925 7.59888C21.1593 7.52842 21.0819 7.13272 21.0156 6.72619C20.8719 5.85892 20.8166 5.70715 20.5347 5.39819C20.1976 5.0296 20.0152 4.9754 19.059 4.9754C18.3018 4.9754 18.2023 4.98624 17.9536 5.10549Z" fill="#EDEDED" stroke="#EDEDED" stroke-width="0.5"/>
<path d="M18.2577 9.91485C17.412 10.0558 16.5111 10.5003 15.87 11.0911C14.7922 12.0884 14.2837 13.4056 14.444 14.7987C14.6596 16.6524 16.0026 18.1485 17.8984 18.6417C18.429 18.7772 19.4847 18.8098 19.9987 18.6959C21.5352 18.3653 22.8396 17.2812 23.3923 15.8827C23.6244 15.2919 23.6907 14.8312 23.6631 14.094C23.641 13.5628 23.6078 13.3731 23.4531 12.9286C23.0275 11.6819 21.9829 10.6141 20.7393 10.1588C19.9987 9.88775 19.0315 9.79018 18.2577 9.91485ZM19.8329 10.8038C20.0484 10.8472 20.4519 10.9935 20.7338 11.1344C22.1155 11.8012 22.9391 13.2972 22.729 14.7607C22.613 15.59 22.2813 16.2567 21.6789 16.8422C21.2478 17.2704 20.7669 17.5576 20.1645 17.7528C19.7887 17.872 19.6284 17.8937 19.0591 17.8937C18.4898 17.8937 18.3295 17.872 17.9537 17.7528C16.3011 17.2162 15.2344 15.7147 15.3505 14.094C15.5107 11.9096 17.6276 10.3539 19.8329 10.8038Z" fill="#EDEDED" stroke="#EDEDED" stroke-width="0.5"/>
<path d="M28.7748 16.8745C27.9181 17.0588 27.1554 17.6496 26.6856 18.5006C26.2103 19.3679 26.0721 19.5359 25.5857 19.8503C25.1491 20.1376 23.7342 20.8585 23.6181 20.8585C23.5849 20.8585 23.4633 20.7826 23.3473 20.6959C23.2367 20.6038 23.0046 20.4845 22.8277 20.4249C22.5403 20.3273 22.369 20.3165 20.733 20.3165C18.4116 20.3165 18.1906 20.2731 17.2233 19.6335C16.6927 19.2866 16.0792 19.0481 15.4547 18.9614C14.7859 18.8638 12.1937 18.918 11.7792 19.0373C11.2928 19.1728 10.8009 19.4113 10.4361 19.6823C9.99951 20.0021 8.41325 21.4873 8.31929 21.6553C8.16454 21.9372 8.37457 22.2733 8.71724 22.2841C8.92727 22.2895 8.94385 22.2787 10.3256 21.0049C11.525 19.8991 11.735 19.8287 13.8905 19.8287C15.72 19.8287 15.9908 19.8937 16.6927 20.4899C16.8364 20.6146 17.157 20.8043 17.4002 20.9182C18.1298 21.2542 18.4503 21.2922 20.4787 21.2922C21.5676 21.2922 22.3469 21.3138 22.474 21.3518C22.7725 21.4331 23.0986 21.7692 23.1483 22.0402C23.2257 22.5118 22.9051 22.9996 22.4187 23.1297C22.2806 23.1676 21.1586 23.1893 19.2186 23.1893H16.2285L16.1013 23.3248C15.9355 23.4983 15.93 23.753 16.0958 23.9102L16.2174 24.0295L19.1578 24.0457C20.8822 24.0512 22.2419 24.0403 22.4464 24.0078C23.0875 23.9102 23.5905 23.5579 23.8668 23.0213C24.016 22.7394 24.11 22.2407 24.0768 21.9155L24.0547 21.6987L24.8727 21.3084C25.7515 20.8911 26.2987 20.5713 26.5972 20.2948C26.8072 20.0997 27.2107 19.5305 27.5202 18.9885C27.7799 18.5278 28.0176 18.2622 28.3603 18.0508C28.9019 17.7093 29.5707 17.628 30.2063 17.8231C30.5932 17.9423 30.7148 18.0345 30.8088 18.3055C30.864 18.4627 30.853 18.5169 30.6927 18.815C29.9686 20.1647 28.5371 22.0944 27.2162 23.5037C26.1274 24.6691 24.414 26.0947 23.6955 26.4416C23.0322 26.7614 22.9659 26.7668 18.7819 26.7668C14.8909 26.7668 14.3714 26.7885 14.1171 26.9728C13.7026 27.2709 14.0121 27.9647 14.4598 27.7533C14.5261 27.7208 14.6312 27.6774 14.692 27.6557C14.7527 27.6286 16.654 27.5961 18.9201 27.5799L23.0378 27.5528L23.4246 27.4227C23.9995 27.233 24.3587 27.0378 24.9446 26.6042C27.1886 24.9293 29.1949 22.734 30.8143 20.181C31.7041 18.7825 31.7815 18.5549 31.6102 17.964C31.3449 17.0805 30.0847 16.5981 28.7748 16.8745Z" fill="#EDEDED" stroke="#EDEDED" stroke-width="0.5"/>
<path d="M6.09764 22.3157C5.73838 22.4295 5.50072 22.6192 4.50586 23.5841C3.60495 24.4622 3.44467 24.6465 3.44467 24.782C3.44467 24.9663 3.2457 24.7657 7.75022 29.1183C10.5911 31.8665 10.8232 32.0779 11.0001 32.0779C11.1659 32.0779 11.2875 31.9803 12.1829 31.1347C13.2551 30.1211 13.3878 29.9693 13.526 29.5682C13.6365 29.2484 13.6365 28.9774 13.5315 28.6305C13.4541 28.3812 13.3049 28.2185 11.6136 26.5707C7.96025 23.0312 7.45176 22.5488 7.2141 22.4241C6.95433 22.294 6.34636 22.2344 6.09764 22.3157ZM6.79405 23.2046C6.86037 23.2426 8.20896 24.511 9.78969 26.0287C12.8185 28.9232 12.8074 28.9124 12.708 29.2701C12.6914 29.3406 12.3045 29.7579 11.8457 30.2078L11.0167 31.0155L10.1766 30.2024C9.71231 29.7579 8.25871 28.354 6.9488 27.0857L4.56113 24.7766L5.3736 23.9852C5.81576 23.557 6.21924 23.1884 6.26345 23.1721C6.41268 23.1179 6.67245 23.1342 6.79405 23.2046Z" fill="#EDEDED" stroke="#EDEDED" stroke-width="0.5"/>
</svg>
