<svg width="37" height="36" viewBox="0 0 37 36" fill="none" xmlns="http://www.w3.org/2000/svg">
<g clip-path="url(#clip0_847_4011)">
<path d="M23.8027 20.9041C23.8027 20.474 23.4201 20.125 22.9487 20.125C22.4773 20.125 22.0947 20.474 22.0947 20.9041C22.0947 21.0895 22.0947 26.5617 22.0947 26.7471C22.0947 27.1772 22.4773 27.5262 22.9487 27.5262C23.4201 27.5262 23.8027 27.1772 23.8027 26.7471C23.8027 26.5617 23.8027 21.0895 23.8027 20.9041Z" stroke="#EDEDED" stroke-miterlimit="10"/>
<path d="M18.6154 30.372C18.9646 30.372 19.248 29.9894 19.248 29.518C19.248 29.0466 18.9646 28.6641 18.6154 28.6641C18.4648 28.6641 17.1845 28.6641 17.0339 28.6641C16.6848 28.6641 16.4014 29.0466 16.4014 29.518C16.4014 29.9894 16.6848 30.372 17.0339 30.372C17.1845 30.372 18.4648 30.372 18.6154 30.372Z" stroke="#EDEDED" stroke-miterlimit="10"/>
<path d="M12.1201 21.0567C12.1201 18.0633 14.5467 15.6367 17.5401 15.6367C20.5335 15.6367 22.96 18.0633 22.96 21.0567" stroke="#EDEDED" stroke-miterlimit="10"/>
<path d="M23.8027 21.2617C24.7462 21.2617 25.5107 22.4084 25.5107 23.8237C25.5107 25.2382 24.7462 26.3856 23.8027 26.3856" stroke="#EDEDED" stroke-miterlimit="10"/>
<path d="M11.2773 20.9041C11.2773 20.474 11.6599 20.125 12.1313 20.125C12.6027 20.125 12.9853 20.474 12.9853 20.9041C12.9853 21.0895 12.9853 26.5617 12.9853 26.7471C12.9853 27.1772 12.6027 27.5262 12.1313 27.5262C11.6599 27.5262 11.2773 27.1772 11.2773 26.7471C11.2773 26.5617 11.2773 21.0895 11.2773 20.9041Z" stroke="#EDEDED" stroke-miterlimit="10"/>
<path d="M11.2773 20.6914C10.3342 20.6914 9.56934 21.9655 9.56934 23.538C9.56934 25.1097 10.3342 26.3846 11.2773 26.3846" stroke="#EDEDED" stroke-miterlimit="10"/>
<path d="M22.9596 26.7969C22.9596 28.391 22.0032 29.3474 20.4091 29.3474H19.1338" stroke="#EDEDED" stroke-miterlimit="10"/>
</g>
<path d="M29 29V22.6667C29 19.3073 28.3942 16.0854 27.3159 13.71C26.2375 11.3345 24.775 10 23.25 10H17.5H11.75C10.225 10 8.76247 11.3345 7.68414 13.71C6.6058 16.0854 6 19.3073 6 22.6667V29" stroke="#EDEDED" stroke-width="2" stroke-linecap="round" stroke-linejoin="round"/>
<path d="M1.18457 4.84608L1.18457 30.6326C1.18457 32.6671 2.87038 34.3164 4.94993 34.3164H31.3074C33.387 34.3164 35.0728 32.6671 35.0728 30.6326V4.84608C35.0728 2.81157 33.387 1.16228 31.3074 1.16228H4.94993C2.87038 1.16228 1.18457 2.81157 1.18457 4.84608Z" stroke="#EDEDED" stroke-width="2" stroke-linecap="round" stroke-linejoin="round"/>
<defs>
<clipPath id="clip0_847_4011">
<rect width="17.0797" height="15.941" fill="white" transform="translate(9 15)"/>
</clipPath>
</defs>
</svg>
