<svg width="32" height="32" viewBox="0 0 32 32" fill="none" xmlns="http://www.w3.org/2000/svg">
<g clip-path="url(#clip0_844_86735)">
<path d="M8.7624 0.5125L8.78115 1.03125L9.38115 1.06875C11.4249 1.20625 13.4437 2.24375 14.8124 3.875C15.1187 4.2375 15.6874 5.06875 15.6874 5.15625C15.6874 5.175 15.2937 5.1875 14.8124 5.1875H13.9374V5.6875V6.1875H15.4999H17.0624V4.65625V3.125H16.5312H15.9999V3.3875L15.9937 3.65625L15.7374 3.34375C14.2812 1.58125 12.1499 0.3875 9.9374 0.09375C9.5749 0.0437498 9.1624 0 9.0124 0H8.74365L8.7624 0.5125Z" fill="#EDEDED"/>
<path d="M3.12495 1.03125V1.5625H3.3937L3.6562 1.56875L3.4062 1.76875C1.4562 3.325 0.212451 5.68125 0.0249512 8.18125L-0.0187988 8.75H0.524951H1.06245V8.35625C1.06245 7.5125 1.4062 6.1875 1.84995 5.29375C2.3437 4.31875 3.03745 3.43125 3.81245 2.78125C4.2937 2.3875 5.0437 1.875 5.14995 1.875C5.1687 1.875 5.18745 2.26875 5.18745 2.75V3.625H5.68745H6.18745V2.0625V0.5H4.6562H3.12495V1.03125Z" fill="#EDEDED"/>
<path d="M8.2499 4.3875V5.15L7.9624 4.75625C7.78115 4.51875 7.6374 4.38125 7.5874 4.4C7.5374 4.41875 7.34365 4.55 7.15615 4.69375C6.93115 4.8625 6.83115 4.975 6.8624 5.025C6.89365 5.0625 7.21865 5.49375 7.5874 5.9875L8.25615 6.875L8.2374 7.34375L8.21865 7.8125L7.45615 7.3375L6.6874 6.8625V6.275V5.6875H6.1874H5.6874V5.9375C5.6874 6.075 5.66865 6.1875 5.64365 6.1875C5.6124 6.1875 5.44365 6.0875 5.25615 5.96875C5.06865 5.85 4.9124 5.75625 4.90615 5.76875C4.8999 5.775 4.78115 5.96875 4.6374 6.20625L4.36865 6.625L4.68115 6.825C5.0249 7.03125 5.0374 7.09375 4.7499 7.15625C4.6499 7.18125 4.5499 7.21875 4.53115 7.24375C4.51865 7.275 4.5749 7.50625 4.6624 7.76875L4.81865 8.2375L5.45615 8.025C5.7999 7.90625 6.1249 7.8125 6.1749 7.8125C6.26865 7.8125 7.6624 8.6625 7.71865 8.75C7.75615 8.80625 6.2874 9.75 6.1624 9.75C6.1249 9.75 5.7999 9.65 5.44365 9.53125C4.99365 9.38125 4.7999 9.3375 4.78115 9.39375C4.6624 9.70625 4.4999 10.2188 4.4999 10.2562C4.4999 10.2875 4.6124 10.3438 4.7499 10.3812C4.8874 10.425 4.9999 10.475 4.9999 10.5C4.9999 10.5187 4.89365 10.6 4.76865 10.675C4.6374 10.75 4.49365 10.8312 4.4499 10.8625C4.3874 10.9062 4.4249 11.0125 4.63115 11.3312C4.76865 11.5625 4.9124 11.75 4.94365 11.75C4.9749 11.75 5.1499 11.65 5.34365 11.5312L5.6874 11.3062V11.5938V11.875H6.1874H6.68115L6.6999 11.2687L6.71865 10.6688L7.4374 10.2125C7.83115 9.9625 8.1749 9.75625 8.20615 9.75625C8.23115 9.75 8.2499 9.95625 8.2499 10.2062V10.6688L7.53115 11.625C7.1374 12.15 6.8124 12.5875 6.8124 12.5938C6.8124 12.6125 7.6124 13.1875 7.6374 13.1875C7.65615 13.1875 7.7874 13.0188 7.94365 12.8062L8.21865 12.425L8.2374 13.1812L8.25615 13.9375H8.78115H9.3124V13.175V12.4125L9.5999 12.8C9.75615 13.0125 9.8999 13.1875 9.9124 13.1875C9.93115 13.1875 10.1187 13.05 10.3374 12.8875L10.7374 12.5875L10.0249 11.6375L9.3124 10.6875V10.2125C9.3124 9.95625 9.3374 9.75 9.3624 9.7625C9.39365 9.76875 9.73115 9.975 10.1124 10.2188L10.8124 10.6562V11.2625V11.875H11.3437H11.8749V11.5938V11.3125L12.2187 11.5312C12.4062 11.65 12.5812 11.75 12.6062 11.75C12.6624 11.75 13.1249 11.0312 13.1249 10.9437C13.1249 10.9125 12.9999 10.8062 12.8437 10.7062C12.6874 10.6125 12.5624 10.5125 12.5624 10.4937C12.5624 10.475 12.6749 10.425 12.8187 10.3812C12.9687 10.3375 13.0624 10.275 13.0437 10.2313C13.0312 10.1875 12.9562 9.96875 12.8812 9.7375L12.7437 9.325L12.1124 9.5375C11.7624 9.65625 11.4374 9.75 11.3937 9.75C11.3374 9.75 9.9249 8.9125 9.76865 8.78125C9.75615 8.775 10.1124 8.54375 10.5499 8.26875L11.3499 7.775L12.0499 8.00625L12.7437 8.2375L12.8812 7.825C12.9562 7.59375 13.0312 7.375 13.0437 7.33125C13.0624 7.2875 12.9687 7.225 12.8187 7.18125C12.6749 7.1375 12.5624 7.08125 12.5624 7.05625C12.5624 7.025 12.6874 6.93125 12.8437 6.8375C12.9999 6.75 13.1249 6.64375 13.1249 6.60625C13.1249 6.5625 13.0124 6.35625 12.8749 6.14375L12.6249 5.75L12.2812 5.96875C12.0937 6.0875 11.9249 6.1875 11.9062 6.1875C11.8874 6.1875 11.8749 6.075 11.8749 5.9375V5.6875H11.3437H10.8124V6.29375L10.8062 6.90625L10.0749 7.35625L9.34365 7.80625L9.3249 7.33125L9.30615 6.8625L10.0249 5.90625L10.7374 4.95625L10.3312 4.65L9.91865 4.35L9.7874 4.50625C9.7124 4.59375 9.58115 4.7625 9.4874 4.88125L9.31865 5.09375L9.3124 4.35625V3.625H8.78115H8.2499V4.3875Z" fill="#EDEDED"/>
<path d="M16.5374 8.825C16.5187 8.86875 16.4937 9.1375 16.4749 9.425C16.3437 11.1812 15.5749 12.8875 14.3187 14.2062C13.8374 14.7188 13.0437 15.35 12.6124 15.5688L12.3749 15.6875V14.8125V13.9375H11.8749H11.3749V15.5V17.0625H12.9062H14.4374V16.5312V16H14.1499H13.8687L14.3874 15.5688C14.6749 15.3312 15.0437 14.975 15.2062 14.7812L15.5124 14.4312L19.3624 14.45L23.2187 14.4688L23.6874 14.6938C24.4499 15.0562 24.5812 15.2312 25.5437 17.15C26.0062 18.0813 26.4999 18.9812 26.6374 19.1562C27.1999 19.8625 28.1374 20.5125 29.1812 20.925C29.4749 21.0375 29.7874 21.1687 29.8687 21.2063C30.1249 21.3313 30.5562 21.8187 30.7374 22.1812L30.9062 22.5312L30.9249 25.1C30.9437 27.4 30.9312 27.6813 30.8437 27.775C30.7562 27.8625 30.5624 27.875 29.5374 27.875H28.3312L28.2624 27.525C28.1499 26.9688 27.7812 26.3375 27.2874 25.8438C26.5562 25.125 25.7624 24.7937 24.7499 24.8C23.7624 24.8 22.9749 25.1312 22.2437 25.8688C21.7374 26.375 21.4187 26.925 21.2874 27.5312L21.2187 27.8438H15.9999H10.7812L10.7124 27.5312C10.5812 26.925 10.2624 26.375 9.75616 25.8688C9.02491 25.1312 8.23741 24.8 7.24991 24.8C6.23741 24.7937 5.44366 25.125 4.71241 25.8438C4.21866 26.3375 3.84991 26.9688 3.73741 27.525L3.66866 27.875H2.78741C1.99366 27.875 1.87491 27.8625 1.62491 27.7312C1.46866 27.6562 1.28116 27.4938 1.19991 27.375L1.05616 27.1625L1.07491 24.8438C1.09366 22.5687 1.09366 22.525 1.23741 22.2625C1.31866 22.1125 1.48116 21.8812 1.59991 21.75C1.99366 21.3125 2.28741 21.2188 4.25616 20.8812C6.33116 20.5312 6.51866 20.4625 7.17491 19.85C7.54991 19.4937 9.74991 16.6687 9.74991 16.5437C9.74991 16.5188 9.37491 16.5 8.92491 16.5C7.53741 16.5 6.44366 16.25 5.26241 15.675C4.24366 15.1812 3.14991 14.2625 2.47491 13.3438C2.13741 12.8875 1.87491 12.4812 1.87491 12.4125C1.87491 12.3937 2.26866 12.375 2.74991 12.375H3.62491V11.875V11.375H2.06241H0.499912V12.9062V14.4375H1.02491H1.55616L1.57491 14.175L1.59366 13.9125L2.01241 14.4187C2.44991 14.9438 3.19366 15.6125 3.84366 16.0437C4.79991 16.6812 6.25616 17.2625 7.28116 17.4062C7.45616 17.4312 7.63116 17.475 7.67491 17.4937C7.73116 17.525 7.60616 17.7312 7.26241 18.1937C6.68741 18.95 6.23116 19.3875 5.85616 19.525C5.71241 19.5813 4.83741 19.75 3.90616 19.9062C2.34366 20.1625 2.18116 20.2063 1.71241 20.4312C0.874912 20.8438 0.356162 21.5 0.118662 22.425C-8.79406e-05 22.8938 -0.00633794 23.0813 0.0124121 25.1375C0.0311621 27.2438 0.0374121 27.3562 0.168662 27.6375C0.349912 28.0312 0.768662 28.475 1.15616 28.675C1.44991 28.8312 1.53116 28.8438 2.55616 28.875L3.64366 28.9062L3.74991 29.2875C3.89991 29.85 4.14366 30.3062 4.50616 30.725C5.04366 31.3375 5.56241 31.6562 6.39991 31.8813C6.81241 31.9937 7.13741 32 11.9499 32H17.0687L17.0499 31.4812L17.0312 30.9688L13.4249 30.9375L9.82491 30.9062L10.0874 30.5562C10.3562 30.2 10.6312 29.6187 10.7499 29.1375L10.8187 28.875H15.9999H21.1812L21.2499 29.1375C21.3687 29.6187 21.6437 30.2 21.9124 30.5562L22.1749 30.9062L21.1687 30.9375L20.1562 30.9688L20.1374 31.4812L20.1187 32H26.0624H31.9999V31.4688V30.9375H29.6874C28.4187 30.9375 27.3749 30.9187 27.3749 30.9C27.3749 30.8813 27.4749 30.75 27.5937 30.6062C27.8687 30.2875 28.1124 29.7938 28.2499 29.2875L28.3562 28.9062L29.7249 28.875C31.2499 28.8375 31.3312 28.8187 31.6749 28.4C31.7812 28.275 31.8937 28.05 31.9312 27.9C31.9749 27.7312 31.9999 26.7562 31.9999 25.2312C31.9999 23.0437 31.9874 22.7875 31.8749 22.35C31.6124 21.3125 30.8312 20.4 29.9687 20.125C29.5312 19.9875 28.7187 19.5875 28.3312 19.325C27.6124 18.8375 27.3874 18.5188 26.4249 16.6062C25.6249 15.0187 25.5062 14.8188 25.1624 14.475C24.9374 14.25 24.5999 13.9937 24.3374 13.8625C23.5437 13.4438 23.4937 13.4375 19.6687 13.4375C17.7812 13.4375 16.2499 13.4187 16.2624 13.3875C17.1249 11.6875 17.4624 10.5875 17.5124 9.3125L17.5312 8.78125L17.0437 8.7625C16.6937 8.75 16.5562 8.76875 16.5374 8.825ZM7.76241 25.8812C9.73116 26.2937 10.4624 28.7687 9.03741 30.1938C8.57491 30.6562 8.04991 30.8937 7.39991 30.925C6.54366 30.9688 5.90616 30.7188 5.34991 30.125C4.53741 29.2562 4.43116 27.9688 5.09366 26.9688C5.68741 26.0812 6.70616 25.6625 7.76241 25.8812ZM25.7062 26C27.3749 26.625 27.8812 28.8125 26.6499 30.125C26.0937 30.7188 25.4562 30.9688 24.5999 30.925C23.9499 30.8937 23.4249 30.6562 22.9624 30.1938C21.5624 28.7875 22.2249 26.3875 24.1562 25.8937C24.5749 25.7875 25.2624 25.8312 25.7062 26Z" fill="#EDEDED"/>
<path d="M6.95619 26.8813C6.61869 26.9438 6.37494 27.0751 6.13119 27.3188C5.84369 27.6063 5.73119 27.8563 5.70619 28.3126C5.68119 28.6688 5.69994 28.7626 5.85619 29.0626C6.37494 30.0751 7.66244 30.2251 8.39994 29.3626C9.31244 28.3001 8.33744 26.6126 6.95619 26.8813ZM7.56869 28.0563C7.77494 28.2626 7.78744 28.3688 7.65619 28.6188C7.55619 28.8126 7.44994 28.8751 7.21244 28.8751C6.97494 28.8751 6.83119 28.7751 6.75619 28.5626C6.68119 28.3313 6.74994 28.1126 6.94994 27.9751C7.16244 27.8251 7.36244 27.8563 7.56869 28.0563Z" fill="#EDEDED"/>
<path d="M24.4188 26.9063C23.3125 27.1938 22.8688 28.5126 23.6 29.3626C24.3375 30.2251 25.625 30.0751 26.1438 29.0626C26.3 28.7626 26.3188 28.6688 26.2938 28.3126C26.2625 27.8501 26.1563 27.6063 25.8625 27.3063C25.4813 26.9313 24.925 26.7751 24.4188 26.9063ZM25.05 27.9751C25.25 28.1126 25.3188 28.3313 25.2438 28.5626C25.1688 28.7751 25.025 28.8751 24.7813 28.8751C24.5438 28.8751 24.4063 28.7813 24.3125 28.5626C24.125 28.1063 24.6438 27.6876 25.05 27.9751Z" fill="#EDEDED"/>
<path d="M14.4625 18.125C13.3875 18.3375 12.5688 19.2313 12.4125 20.3563L12.375 20.625H12.9062H13.4375V20.45C13.4438 20.0313 13.8687 19.4563 14.3438 19.2438C14.575 19.1375 14.8438 19.125 18.3125 19.125H22.0312L22.3438 19.275C22.875 19.525 23.1562 19.9563 23.225 20.625C23.3125 21.4875 22.9938 22.1938 22.3813 22.5125L22.05 22.6875H19.4188H16.7812L17.3313 22.1375C17.6312 21.8375 17.875 21.5625 17.875 21.525C17.875 21.4938 17.7188 21.3125 17.5312 21.125L17.1875 20.7813L15.9688 22L14.75 23.2188L15.9688 24.4375L17.1875 25.6562L17.5438 25.2938L17.9062 24.9375L17.3125 24.3438L16.7188 23.75H19.2562C20.7 23.75 21.9375 23.725 22.125 23.6875C23.1562 23.4938 23.9625 22.7 24.1875 21.6813C24.2375 21.4625 24.2563 21.0688 24.2375 20.675C24.2125 20.1063 24.1813 19.9625 24.0125 19.6063C23.65 18.825 22.9563 18.2813 22.1313 18.125C21.7312 18.05 14.8438 18.05 14.4625 18.125Z" fill="#EDEDED"/>
<path d="M0.54375 30.975C0.51875 31 0.5 31.2437 0.5 31.5125V32H1.03125H1.56875L1.55 31.4875L1.53125 30.9688L1.0625 30.95C0.8 30.9438 0.56875 30.95 0.54375 30.975Z" fill="#EDEDED"/>
<path d="M2.60625 30.975C2.58125 31 2.5625 31.2437 2.5625 31.5125V32H3.09375H3.63125L3.6125 31.4875L3.59375 30.9688L3.125 30.95C2.8625 30.9438 2.63125 30.95 2.60625 30.975Z" fill="#EDEDED"/>
<path d="M18.0625 31.4688V32H18.5937H19.1312L19.1125 31.4813L19.0937 30.9688L18.5812 30.95L18.0625 30.9313V31.4688Z" fill="#EDEDED"/>
</g>
<defs>
<clipPath id="clip0_844_86735">
<rect width="32" height="32" fill="white"/>
</clipPath>
</defs>
</svg>
