<svg width="32" height="32" viewBox="0 0 32 32" fill="none" xmlns="http://www.w3.org/2000/svg">
<g clip-path="url(#clip0_844_86694)">
<path opacity="0.963" fill-rule="evenodd" clip-rule="evenodd" d="M31.9688 5.34351C31.9688 6.6352 31.9688 7.92682 31.9688 9.21851C31.8768 9.32063 31.7726 9.41438 31.6562 9.49976C31.1567 9.53101 30.6567 9.54138 30.1562 9.53101C30.1562 14.7602 30.1562 19.9893 30.1562 25.2185C30.6359 25.2081 31.1151 25.2185 31.5938 25.2498C31.7514 25.3348 31.8764 25.4493 31.9688 25.5935C31.9688 26.8643 31.9688 28.1352 31.9688 29.406C31.8707 29.5765 31.7249 29.6911 31.5312 29.7498C21.1562 29.7914 10.7812 29.7914 0.40625 29.7498C0.212654 29.6911 0.0668212 29.5765 -0.03125 29.406C-0.03125 28.1352 -0.03125 26.8643 -0.03125 25.5935C0.061087 25.4493 0.186087 25.3348 0.34375 25.2498C0.822462 25.2185 1.30163 25.2081 1.78125 25.2185C1.78125 19.9893 1.78125 14.7602 1.78125 9.53101C1.28082 9.54138 0.780819 9.53101 0.28125 9.49976C0.164896 9.41438 0.0607295 9.32063 -0.03125 9.21851C-0.03125 7.92682 -0.03125 6.6352 -0.03125 5.34351C0.0653763 5.17476 0.211209 5.06018 0.40625 4.99976C1.42687 4.96851 2.44771 4.9581 3.46875 4.96851C3.45834 4.21822 3.46876 3.46822 3.5 2.71851C3.5379 2.52802 3.63165 2.37177 3.78125 2.24976C4.93202 2.1776 6.08827 2.14635 7.25 2.15601C8.36456 2.16643 9.47919 2.17684 10.5938 2.18726C10.8125 2.23934 10.9479 2.37476 11 2.59351C11.0312 3.3849 11.0417 4.17656 11.0312 4.96851C11.8024 4.9581 12.5732 4.96851 13.3438 4.99976C13.7533 5.17038 13.8888 5.47246 13.75 5.90601C13.6771 6.06226 13.5625 6.17684 13.4062 6.24976C9.34381 6.28101 5.28131 6.29145 1.21875 6.28101C1.21875 6.9477 1.21875 7.61432 1.21875 8.28101C11.0521 8.28101 20.8854 8.28101 30.7188 8.28101C30.7188 7.61432 30.7188 6.9477 30.7188 6.28101C26.6562 6.29145 22.5937 6.28101 18.5312 6.24976C18.1807 6.04495 18.0661 5.74286 18.1875 5.34351C18.2657 5.16346 18.4011 5.04888 18.5938 4.99976C19.3643 4.96851 20.1351 4.9581 20.9062 4.96851C20.8958 4.17656 20.9062 3.3849 20.9375 2.59351C20.9896 2.37476 21.125 2.23934 21.3438 2.18726C22.4583 2.17684 23.5729 2.16643 24.6875 2.15601C25.8493 2.14635 27.0055 2.1776 28.1562 2.24976C28.3059 2.37177 28.3996 2.52802 28.4375 2.71851C28.4688 3.46822 28.4792 4.21822 28.4688 4.96851C29.4898 4.9581 30.5106 4.96851 31.5312 4.99976C31.7263 5.06018 31.8721 5.17476 31.9688 5.34351ZM4.78125 3.46851C6.42706 3.46851 8.07294 3.46851 9.71875 3.46851C9.71875 3.96851 9.71875 4.46851 9.71875 4.96851C8.07294 4.96851 6.42706 4.96851 4.78125 4.96851C4.78125 4.46851 4.78125 3.96851 4.78125 3.46851ZM22.2188 3.46851C23.8646 3.46851 25.5104 3.46851 27.1562 3.46851C27.1562 3.96851 27.1562 4.46851 27.1562 4.96851C25.5104 4.96851 23.8646 4.96851 22.2188 4.96851C22.2188 4.46851 22.2188 3.96851 22.2188 3.46851ZM3.09375 9.53101C11.6771 9.53101 20.2604 9.53101 28.8438 9.53101C28.8438 14.7602 28.8438 19.9893 28.8438 25.2185C20.2604 25.2185 11.6771 25.2185 3.09375 25.2185C3.09375 19.9893 3.09375 14.7602 3.09375 9.53101ZM15.7812 13.9685C15.8332 14.8119 15.8644 15.6661 15.875 16.531C15.9241 16.7237 16.0387 16.8591 16.2188 16.9373C16.928 16.9478 17.6363 16.979 18.3438 17.031C17.6166 18.2891 16.8771 19.5391 16.125 20.781C16.1042 19.9477 16.0833 19.1143 16.0625 18.281C16.0069 18.0553 15.8716 17.899 15.6562 17.8123C14.9688 17.7914 14.2812 17.7706 13.5938 17.7498C14.3481 16.5013 15.0772 15.2408 15.7812 13.9685ZM1.21875 26.531C11.0521 26.531 20.8854 26.531 30.7188 26.531C30.7188 27.1768 30.7188 27.8227 30.7188 28.4685C20.8854 28.4685 11.0521 28.4685 1.21875 28.4685C1.21875 27.8227 1.21875 27.1768 1.21875 26.531Z" fill="#EDEDED"/>
<path opacity="0.886" fill-rule="evenodd" clip-rule="evenodd" d="M15.8437 4.96875C16.4968 5.00398 16.7364 5.33731 16.5625 5.96875C16.3476 6.25506 16.0663 6.34881 15.7187 6.25C15.3681 6.04519 15.2536 5.74311 15.375 5.34375C15.4816 5.1506 15.6379 5.0256 15.8437 4.96875Z" fill="#EDEDED"/>
<path opacity="0.949" fill-rule="evenodd" clip-rule="evenodd" d="M16.4063 10.7814C16.7482 10.7599 16.9879 10.9057 17.1251 11.2189C17.1563 12.6979 17.1667 14.1771 17.1563 15.6564C18.0558 15.6295 18.9517 15.6607 19.8438 15.7501C20.1301 15.965 20.2239 16.2462 20.1251 16.5939C18.7658 18.9583 17.3908 21.3124 16.0001 23.6564C15.701 23.9961 15.3572 24.0482 14.9688 23.8126C14.9088 23.7239 14.8567 23.6302 14.8126 23.5314C14.7813 22.0524 14.7709 20.5732 14.7813 19.0939C13.9477 19.1043 13.1144 19.0939 12.2813 19.0626C11.8306 18.9221 11.6744 18.62 11.8126 18.1564C13.2033 15.8124 14.5783 13.4583 15.9376 11.0939C16.0732 10.9487 16.2294 10.8445 16.4063 10.7814ZM15.7813 13.9689C15.0773 15.2412 14.3481 16.5016 13.5938 17.7501C14.2813 17.7709 14.9688 17.7918 15.6563 17.8126C15.8716 17.8994 16.007 18.0556 16.0626 18.2814C16.0834 19.1147 16.1042 19.9481 16.1251 20.7814C16.8771 19.5395 17.6167 18.2895 18.3438 17.0314C17.6364 16.9794 16.9281 16.9481 16.2188 16.9376C16.0387 16.8594 15.9242 16.7241 15.8751 16.5314C15.8645 15.6664 15.8332 14.8122 15.7813 13.9689Z" fill="#EDEDED"/>
<path opacity="0.94" fill-rule="evenodd" clip-rule="evenodd" d="M24.4062 15.4689C24.8403 15.3611 25.1423 15.5069 25.3125 15.9064C25.3436 16.1765 25.3541 16.4473 25.3437 16.7189C25.7146 16.6808 26.0687 16.7328 26.4062 16.8752C26.585 17.1053 26.637 17.3657 26.5625 17.6564C26.5134 17.7681 26.4405 17.8618 26.3437 17.9377C26.0182 18.025 25.6849 18.0563 25.3437 18.0314C25.3541 18.3031 25.3436 18.5739 25.3125 18.8439C24.9966 19.4238 24.6007 19.4863 24.125 19.0314C24.0376 18.7059 24.0064 18.3726 24.0312 18.0314C23.7388 18.0418 23.4471 18.0314 23.1562 18.0002C22.6328 17.6544 22.5912 17.2586 23.0312 16.8127C23.3585 16.729 23.6918 16.6978 24.0312 16.7189C24.0208 16.4265 24.0313 16.1349 24.0625 15.8439C24.1475 15.6863 24.262 15.5613 24.4062 15.4689Z" fill="#EDEDED"/>
<path opacity="0.933" fill-rule="evenodd" clip-rule="evenodd" d="M5.78115 16.7188C6.76053 16.7083 7.73972 16.7188 8.71865 16.75C9.16972 16.9358 9.30509 17.2587 9.1249 17.7188C9.02847 17.8361 8.9139 17.9299 8.78115 18C7.76034 18.0417 6.73947 18.0417 5.71865 18C5.44978 17.8791 5.32478 17.6708 5.34365 17.375C5.33065 17.0452 5.47648 16.8264 5.78115 16.7188Z" fill="#EDEDED"/>
</g>
<defs>
<clipPath id="clip0_844_86694">
<rect width="32" height="32" fill="white"/>
</clipPath>
</defs>
</svg>
