<svg width="32" height="32" viewBox="0 0 32 32" fill="none" xmlns="http://www.w3.org/2000/svg">
<g clip-path="url(#clip0_844_86823)">
<path opacity="0.938" fill-rule="evenodd" clip-rule="evenodd" d="M31.9688 13.8438C31.9688 14.1563 31.9688 14.4688 31.9688 14.7813C31.7566 15.2748 31.4024 15.6394 30.9062 15.875C30.3058 15.9516 29.7016 15.9933 29.0938 16C29.375 16.2813 29.6562 16.5625 29.9375 16.8438C30.1127 17.0902 30.2377 17.3611 30.3125 17.6563C30.3229 19.6983 30.3542 21.7399 30.4062 23.7813C30.8421 24.1087 31.0088 24.5462 30.9062 25.0938C31.0066 25.7579 30.7566 26.2266 30.1562 26.5C29.8027 26.5312 29.4485 26.5416 29.0938 26.5313C29.1041 27.0733 29.0938 27.615 29.0625 28.1563C28.9406 28.8199 28.5551 29.247 27.9062 29.4375C26.3646 29.4792 24.8229 29.4792 23.2812 29.4375C22.6341 29.2486 22.2487 28.8216 22.125 28.1563C22.0938 27.615 22.0834 27.0733 22.0938 26.5313C17.9896 26.5313 13.8854 26.5313 9.78125 26.5313C9.79163 27.0733 9.78125 27.615 9.75 28.1563C9.62806 28.8199 9.24263 29.247 8.59375 29.4375C7.05206 29.4792 5.51042 29.4792 3.96875 29.4375C3.31988 29.247 2.93447 28.8199 2.8125 28.1563C2.78126 27.615 2.77085 27.0733 2.78125 26.5313C2.42648 26.5416 2.07231 26.5312 1.71875 26.5C1.11939 26.2289 0.869388 25.7601 0.96875 25.0938C0.858863 24.4948 1.05677 24.0364 1.5625 23.7188C1.58333 21.6979 1.60417 19.6771 1.625 17.6563C1.69973 17.3611 1.82473 17.0902 2 16.8438C2.28125 16.5625 2.5625 16.2813 2.84375 16C2.23588 15.9933 1.63171 15.9516 1.03125 15.875C0.535082 15.6394 0.180915 15.2748 -0.03125 14.7813C-0.03125 14.4688 -0.03125 14.1563 -0.03125 13.8438C0.20697 13.1579 0.686137 12.7516 1.40625 12.625C2.19792 12.5833 2.98958 12.5833 3.78125 12.625C4.29139 12.7186 4.65597 12.9998 4.875 13.4688C5.65102 12.1874 6.44269 10.9166 7.25 9.65625C7.82312 8.97981 8.54187 8.53188 9.40625 8.3125C12.8834 8.22031 16.3626 8.18906 19.8438 8.21875C19.8541 7.92631 19.8437 7.63469 19.8125 7.34375C18.6799 7.63156 17.8466 7.25656 17.3125 6.21875C16.9517 4.78361 17.4829 3.87736 18.9062 3.5C19.2859 3.44727 19.6504 3.49935 20 3.65625C20.4196 3.0501 20.9926 2.66468 21.7188 2.5C22.8646 2.45833 24.0104 2.45833 25.1562 2.5C26.4272 2.86503 27.1147 3.70878 27.2188 5.03125C27.1695 5.46744 27.0861 5.89452 26.9688 6.3125C27.0949 6.34063 27.2095 6.39269 27.3125 6.46875C28.1066 5.58453 28.9191 5.5637 29.75 6.40625C30.2783 7.52994 29.9554 8.29038 28.7812 8.6875C28.5467 8.69319 28.3175 8.70363 28.0938 8.71875C27.894 9.13725 27.5815 9.43931 27.1562 9.625C27.3326 10.6271 27.0409 11.4708 26.2812 12.1563C26.5417 12.5938 26.8021 13.0313 27.0625 13.4688C27.2816 12.9998 27.6461 12.7186 28.1562 12.625C29.055 12.5681 29.9509 12.5889 30.8438 12.6875C31.4011 12.901 31.7761 13.2864 31.9688 13.8438ZM22.2812 3.40625C23.2004 3.38295 24.1171 3.4142 25.0312 3.5C25.7573 3.76799 26.1532 4.28883 26.2188 5.0625C26.1309 5.44525 26.0579 5.83067 26 6.21875C24.7882 6.85413 24.4757 7.79163 25.0625 9.03125C25.3726 9.38375 25.7476 9.63375 26.1875 9.78125C26.2706 10.7923 25.8227 11.4278 24.8438 11.6875C23.8854 11.7292 22.9271 11.7292 21.9688 11.6875C21.1535 11.4661 20.716 10.9349 20.6562 10.0938C20.6626 9.81438 20.7146 9.5435 20.8125 9.28125C20.8542 8.13544 20.8542 6.98956 20.8125 5.84375C20.4447 4.49388 20.9343 3.68138 22.2812 3.40625ZM18.9688 4.46875C19.1879 4.45667 19.3962 4.49833 19.5938 4.59375C19.6241 5.10325 19.7074 5.60325 19.8438 6.09375C19.6427 6.40781 19.3511 6.52244 18.9688 6.4375C18.2482 6.17338 18.0294 5.6838 18.3125 4.96875C18.4909 4.73683 18.7097 4.57016 18.9688 4.46875ZM28.4688 6.78125C28.8968 6.84238 29.0531 7.07156 28.9375 7.46875C28.5623 7.81938 28.2811 7.74644 28.0938 7.25C28.1639 7.045 28.2889 6.88875 28.4688 6.78125ZM26.2188 7.28125C27.1003 7.256 27.3815 7.65181 27.0625 8.46875C26.5739 8.8505 26.1572 8.788 25.8125 8.28125C25.6914 7.83681 25.8268 7.5035 26.2188 7.28125ZM9.84375 9.21875C13.1565 9.19794 16.469 9.21875 19.7812 9.28125C19.6834 9.54294 19.6418 9.81375 19.6562 10.0938C17.7186 10.0833 15.7811 10.0938 13.8438 10.125C13.4124 10.4638 13.4333 10.7763 13.9062 11.0625C15.8857 11.0729 17.8649 11.1042 19.8438 11.1563C20.2578 12.0396 20.9453 12.5499 21.9062 12.6875C22.3438 12.7083 22.7812 12.7292 23.2188 12.75C23.7188 13.5417 24.2188 14.3333 24.7188 15.125C18.8854 15.1667 13.0521 15.1667 7.21875 15.125C7.961 13.9845 8.67975 12.8283 9.375 11.6563C9.56169 11.407 9.80125 11.2299 10.0938 11.125C10.8021 11.1042 11.5104 11.0833 12.2188 11.0625C12.514 10.9103 12.6077 10.6707 12.5 10.3438C12.4479 10.25 12.375 10.1771 12.2812 10.125C11.5104 10.0833 10.7396 10.0833 9.96875 10.125C9.57362 10.208 9.21944 10.3747 8.90625 10.625C7.909 12.0811 6.96106 13.5707 6.0625 15.0938C5.72399 15.1649 5.38024 15.1754 5.03125 15.125C6.03384 13.5052 7.04425 11.8906 8.0625 10.2813C8.55019 9.74088 9.14394 9.38669 9.84375 9.21875ZM25.2812 12.5938C25.8561 13.4098 26.3978 14.2536 26.9062 15.125C26.5729 15.1667 26.2396 15.1667 25.9062 15.125C25.4062 14.3333 24.9062 13.5417 24.4062 12.75C24.7132 12.7361 25.0049 12.6841 25.2812 12.5938ZM14.6562 12.7188C15.1456 12.6559 15.3435 12.8643 15.25 13.3438C14.9559 13.6853 14.6851 13.6644 14.4375 13.2813C14.3777 13.0399 14.4506 12.8524 14.6562 12.7188ZM1.46875 13.5938C2.19821 13.5833 2.92738 13.5938 3.65625 13.625C3.76787 13.6741 3.86162 13.7469 3.9375 13.8438C4.03968 14.0395 4.15426 14.227 4.28125 14.4063C4.17708 14.5729 4.07292 14.7396 3.96875 14.9063C3.1362 14.9791 2.30286 14.9896 1.46875 14.9375C0.978938 14.7385 0.843525 14.3948 1.0625 13.9063C1.18532 13.7781 1.32074 13.6739 1.46875 13.5938ZM28.2812 13.5938C29.0107 13.5833 29.7399 13.5938 30.4688 13.625C30.8974 13.7843 31.0536 14.0864 30.9375 14.5313C30.8383 14.7348 30.6821 14.8702 30.4688 14.9375C29.6346 14.9896 28.8013 14.9791 27.9688 14.9063C27.8646 14.7396 27.7604 14.5729 27.6562 14.4063C27.8212 14.0949 28.0295 13.824 28.2812 13.5938ZM4.28125 16.1563C12.0729 16.1458 19.8646 16.1563 27.6562 16.1875C27.7654 16.2169 27.8696 16.2586 27.9688 16.3125C28.3542 16.6979 28.7396 17.0833 29.125 17.4688C29.2149 17.5797 29.2774 17.7047 29.3125 17.8438C29.3438 19.7603 29.3542 21.677 29.3438 23.5938C28.3644 23.5833 27.3852 23.5938 26.4062 23.625C25.9078 23.8482 25.8453 24.1607 26.2188 24.5625C27.4271 24.5833 28.6354 24.6042 29.8438 24.625C29.9043 24.9211 29.9252 25.2231 29.9062 25.5313C22.4688 25.5208 15.0312 25.5313 7.59375 25.5625C7.09531 25.7857 7.03281 26.0982 7.40625 26.5C7.86413 26.5313 8.32244 26.5416 8.78125 26.5313C8.79163 27.0317 8.78125 27.5317 8.75 28.0313C8.64194 28.2991 8.44406 28.4553 8.15625 28.5C6.90625 28.5417 5.65625 28.5417 4.40625 28.5C4.09764 28.483 3.89972 28.3268 3.8125 28.0313C3.78127 27.5317 3.77085 27.0317 3.78125 26.5313C4.48989 26.5417 5.19823 26.5313 5.90625 26.5C6.08538 26.4129 6.16871 26.2671 6.15625 26.0625C6.16202 25.8866 6.09952 25.7408 5.96875 25.625C4.63958 25.5334 3.30625 25.5021 1.96875 25.5313C1.94984 25.2231 1.97067 24.9211 2.03125 24.625C9.59375 24.6042 17.1562 24.5833 24.7188 24.5625C24.9508 24.4054 25.0236 24.1867 24.9375 23.9063C24.8791 23.7436 24.7645 23.6499 24.5938 23.625C23.7453 23.614 22.9016 23.5828 22.0625 23.5313C21.6122 21.972 21.1122 20.4304 20.5625 18.9063C20.207 18.3848 19.7174 18.0619 19.0938 17.9375C17.0104 17.8958 14.9271 17.8958 12.8438 17.9375C12.0674 18.1118 11.5153 18.5597 11.1875 19.2813C10.739 20.7101 10.2911 22.1371 9.84375 23.5625C7.42719 23.5938 5.01051 23.6042 2.59375 23.5938C2.58334 21.677 2.59375 19.7603 2.625 17.8438C2.6875 17.7188 2.75 17.5938 2.8125 17.4688C3.25986 16.9685 3.74945 16.531 4.28125 16.1563ZM4.78125 18.3438C5.89129 18.3142 6.99544 18.3454 8.09375 18.4375C8.19056 18.5134 8.26344 18.6071 8.3125 18.7188C8.37125 19.2669 8.35044 19.8085 8.25 20.3438C8.19356 20.4188 8.12069 20.4709 8.03125 20.5C6.87975 20.5608 5.73392 20.54 4.59375 20.4375C4.51866 20.3811 4.46658 20.3082 4.4375 20.2188C4.39583 19.7188 4.39583 19.2188 4.4375 18.7188C4.52248 18.5611 4.63706 18.4361 4.78125 18.3438ZM23.9688 18.3438C25.0788 18.3142 26.1829 18.3454 27.2812 18.4375C27.3781 18.5134 27.4509 18.6071 27.5 18.7188C27.5588 19.2669 27.5379 19.8085 27.4375 20.3438C27.3811 20.4188 27.3082 20.4709 27.2188 20.5C26.0672 20.5608 24.9214 20.54 23.7812 20.4375C23.7062 20.3811 23.6541 20.3082 23.625 20.2188C23.5833 19.7188 23.5833 19.2188 23.625 18.7188C23.71 18.5611 23.8246 18.4361 23.9688 18.3438ZM13.0312 18.9063C14.9897 18.8958 16.948 18.9063 18.9062 18.9375C19.4335 19.0584 19.7668 19.3814 19.9062 19.9063C17.2812 19.9896 14.6562 19.9896 12.0312 19.9063C12.0974 19.6698 12.2119 19.4614 12.375 19.2813C12.5844 19.1299 12.8032 19.0049 13.0312 18.9063ZM11.7188 20.9688C14.5524 20.9479 17.3857 20.9688 20.2188 21.0313C20.3406 21.3131 20.4239 21.6048 20.4688 21.9063C17.4688 21.9063 14.4688 21.9063 11.4688 21.9063C11.5265 21.5871 11.6099 21.2746 11.7188 20.9688ZM11.0938 22.9063C14.3438 22.9063 17.5938 22.9063 20.8438 22.9063C20.8807 23.1213 20.9432 23.3296 21.0312 23.5313C17.6562 23.6146 14.2812 23.6146 10.9062 23.5313C10.9943 23.3296 11.0568 23.1213 11.0938 22.9063ZM23.0938 26.5313C24.7604 26.5313 26.4271 26.5313 28.0938 26.5313C28.1041 27.0317 28.0938 27.5317 28.0625 28.0313C27.9753 28.3268 27.7774 28.483 27.4688 28.5C26.2188 28.5417 24.9688 28.5417 23.7188 28.5C23.4309 28.4553 23.2331 28.2991 23.125 28.0313C23.0938 27.5317 23.0834 27.0317 23.0938 26.5313Z" fill="#EDEDED"/>
</g>
<defs>
<clipPath id="clip0_844_86823">
<rect width="32" height="32" fill="white"/>
</clipPath>
</defs>
</svg>
