<svg width="32" height="32" viewBox="0 0 32 32" fill="none" xmlns="http://www.w3.org/2000/svg">
<path d="M22.1313 3.85C21.6938 3.96875 21.2813 4.19375 20.8876 4.5375C20.6126 4.775 20.5376 4.8125 20.2813 4.8125C20.1251 4.8125 19.9126 4.85625 19.8188 4.9C19.5563 5.0375 19.2751 5.39375 19.2251 5.64375L19.1813 5.86875L17.3251 5.8875L15.4688 5.90625L15.1188 6.06875C14.6688 6.28125 14.2813 6.66875 14.0813 7.09375L13.9313 7.43125L9.98135 7.45L6.03135 7.46875L5.64385 7.65C5.24385 7.83125 4.78135 8.25625 4.60635 8.6C4.55635 8.7 4.25635 9.5625 3.94385 10.5125C3.6251 11.4688 3.3501 12.25 3.3376 12.25C3.31885 12.25 3.2001 12.1687 3.0751 12.0688C2.7501 11.8188 2.5001 11.75 1.8876 11.75C1.16885 11.75 0.912595 11.8375 0.518845 12.2188C0.262595 12.4688 0.175095 12.6062 0.0938452 12.9C-0.0936548 13.55 0.137595 14.2188 0.693845 14.6187C0.831345 14.725 1.03135 14.825 1.1376 14.8438L1.33135 14.8875L1.0251 15.075C0.618845 15.325 0.331345 15.6 0.168845 15.9062C0.0313452 16.1562 0.0313452 16.175 0.0313452 20.0312C0.0313452 23.8937 0.0313452 23.9062 0.168845 24.1625C0.318845 24.4375 0.725095 24.8375 0.925095 24.9C1.0376 24.9375 1.0501 25.0062 1.0751 25.7687C1.1001 26.7188 1.18135 26.95 1.6376 27.3375C2.0751 27.7125 2.36885 27.7625 3.89385 27.7375C5.3626 27.7125 5.49385 27.6812 5.9376 27.2375C6.29385 26.8813 6.3751 26.625 6.3751 25.7938V25.0625H10.1188H13.8626L13.8876 25.8937C13.9063 26.6938 13.9126 26.7312 14.1188 27.1125C14.3563 27.55 14.6751 27.8562 15.1188 28.075L15.4063 28.2188H22.9376H30.4688L30.8626 28.0062C31.3001 27.7687 31.6126 27.4312 31.8251 26.9625L31.9688 26.6562V17.0625V7.46875L31.8063 7.125C31.6001 6.6875 31.1876 6.275 30.7501 6.06875C30.4063 5.90625 30.4001 5.90625 28.5501 5.8875L26.6876 5.86875L26.6251 5.625C26.4938 5.13125 26.0751 4.8125 25.5563 4.8125C25.3438 4.8125 25.2501 4.76875 24.9876 4.5375C24.1876 3.8375 23.1251 3.58125 22.1313 3.85ZM23.5688 4.8875C23.8876 4.99375 24.2876 5.2875 24.4313 5.51875C24.6001 5.7875 24.7938 5.875 25.2501 5.875H25.6251V6.40625V6.9375H22.9376H20.2501V6.40625V5.875H20.6251C21.0751 5.875 21.2751 5.7875 21.4376 5.525C21.5938 5.28125 21.9251 5.01875 22.2376 4.90625C22.5251 4.8 23.2813 4.7875 23.5688 4.8875ZM19.2438 7.1875C19.3376 7.5 19.5938 7.80625 19.8563 7.9125C20.0188 7.98125 20.6501 8 22.9438 8C25.4688 8 25.8501 7.9875 26.0376 7.9C26.3188 7.76875 26.5438 7.49375 26.6251 7.1875L26.6938 6.9375H28.3751C29.4063 6.9375 30.1251 6.9625 30.2313 7.00625C30.4688 7.09375 30.7501 7.3625 30.8501 7.60625C30.9251 7.775 30.9376 9.34375 30.9376 17.075V26.3375L30.8063 26.6062C30.7188 26.7875 30.5876 26.9312 30.4126 27.0312L30.1438 27.1875H22.9313H15.7188L15.4688 27.0437C15.3063 26.9562 15.1688 26.8125 15.0813 26.625L14.9376 26.35V17.0562V7.76875L15.0813 7.5C15.1813 7.3125 15.3126 7.18125 15.5001 7.08125C15.7626 6.94375 15.8188 6.9375 17.4688 6.9375H19.1688L19.2438 7.1875ZM13.8751 11.2188V13.875H8.9001C4.94385 13.875 3.93135 13.8562 3.9501 13.7937C3.96885 13.7562 4.3251 12.6812 4.7501 11.4187C5.1751 10.15 5.5751 9.04375 5.64385 8.95625C5.7126 8.86875 5.85635 8.74375 5.9626 8.68125C6.14385 8.56875 6.34385 8.5625 10.0188 8.5625H13.8751V11.2188ZM2.4751 12.9563C2.61885 13.0813 2.6501 13.1687 2.6751 13.4875L2.7001 13.875H2.0626C1.44385 13.875 1.4251 13.8687 1.24385 13.6937C1.0501 13.5 1.01885 13.325 1.1376 13.1062C1.2626 12.8687 1.3876 12.8187 1.85635 12.8125C2.2376 12.8125 2.33135 12.8313 2.4751 12.9563ZM13.8626 15.7312L13.8438 16.5312L10.8751 16.5625L7.90635 16.5938L7.59385 16.7562C6.96885 17.0938 6.5501 17.6562 6.4376 18.325C6.34385 18.9062 6.5376 19.3812 6.95635 19.6125C7.1376 19.7063 7.46885 19.7188 10.5188 19.7375L13.8751 19.7562V20.5312V21.3125H10.9063C7.7751 21.3125 7.64385 21.325 7.5376 21.5938C7.45635 21.8063 7.5001 22.0875 7.6376 22.2312L7.76885 22.375H10.8251H13.8751V23.1875V24H7.6501H1.4251L1.24385 23.8187L1.0626 23.6375V20.0375V16.4437L1.20635 16.2875C1.28135 16.2 1.79385 15.8625 2.34385 15.5312L3.34385 14.9375H8.6126H13.8813L13.8626 15.7312ZM13.8751 18.1562V18.6875H10.6876H7.5001V18.5062C7.5001 18.2812 7.7251 17.95 7.99385 17.7688L8.20635 17.625H11.0376H13.8751V18.1562ZM5.3126 25.7062C5.3126 26.3188 5.30635 26.3625 5.1501 26.5063C4.99385 26.6562 4.98135 26.6562 3.7126 26.6562C2.1126 26.6562 2.16885 26.6875 2.1376 25.7188L2.1126 25.0625H3.7126H5.3126V25.7062Z" fill="#EDEDED"/>
<path d="M20.4938 9.70601C20.4375 9.74976 19.9875 10.3873 19.4938 11.1373L18.5875 12.4873L18.2063 12.1185C17.8875 11.8123 17.7875 11.7498 17.6063 11.7498C17.4375 11.7498 17.35 11.7935 17.225 11.9435C16.9438 12.2748 16.9938 12.381 17.7313 13.1373C18.1 13.5123 18.4688 13.831 18.55 13.856C18.8813 13.9373 19.0063 13.7998 20.1813 12.0435C21.4125 10.1935 21.4625 10.081 21.1563 9.78101C20.9875 9.61226 20.6625 9.57476 20.4938 9.70601Z" fill="#EDEDED"/>
<path d="M22.5814 10.825C22.4001 11.025 22.3689 11.1562 22.4501 11.375C22.5751 11.7437 22.6189 11.75 25.3689 11.75H27.8626L28.0564 11.5875C28.3064 11.3812 28.3251 11.0687 28.0939 10.8438L27.9439 10.6875H25.3251H22.7064L22.5814 10.825Z" fill="#EDEDED"/>
<path d="M22.6375 12.9125C22.5563 12.9688 22.4688 13.0813 22.4313 13.1625C22.35 13.3812 22.5063 13.7313 22.7188 13.8125C22.8125 13.85 23.5938 13.875 24.5375 13.875H26.2L26.3813 13.6937C26.6125 13.4562 26.625 13.1812 26.4063 12.9688L26.2563 12.8125H24.5188C23.025 12.8125 22.7563 12.825 22.6375 12.9125Z" fill="#EDEDED"/>
<path d="M20.525 15.025C20.4563 15.075 20 15.7188 19.5063 16.4625L18.6063 17.8125L18.25 17.475C18.05 17.2875 17.8125 17.1125 17.7125 17.0875C17.3688 17 17 17.3688 17.0875 17.725C17.1188 17.8375 17.3688 18.1438 17.775 18.5438C18.325 19.0875 18.45 19.1875 18.6188 19.1875C18.7313 19.1875 18.8688 19.1625 18.9313 19.1313C18.9875 19.1 19.55 18.3 20.175 17.3625C21.4125 15.5 21.4625 15.3938 21.1563 15.0938C20.9875 14.9188 20.7188 14.8875 20.525 15.025Z" fill="#EDEDED"/>
<path d="M22.5876 16.15C22.3438 16.3562 22.3438 16.7062 22.5876 16.9125L22.7563 17.0625H25.3501H27.9438L28.0938 16.9062C28.2001 16.8063 28.2501 16.6875 28.2501 16.5312C28.2501 16.375 28.2001 16.2562 28.0938 16.1562L27.9438 16H25.3501H22.7563L22.5876 16.15Z" fill="#EDEDED"/>
<path d="M22.7001 18.1875C22.5063 18.2688 22.3563 18.6312 22.4313 18.8375C22.5626 19.175 22.6313 19.1875 24.5188 19.1875H26.2563L26.4063 19.0312C26.6251 18.8187 26.6126 18.5437 26.3813 18.3062L26.2001 18.125L24.5188 18.1313C23.6001 18.1313 22.7813 18.1562 22.7001 18.1875Z" fill="#EDEDED"/>
<path d="M20.5814 20.3123C20.5002 20.3436 20.0752 20.9186 19.5564 21.6998C19.0689 22.4311 18.6502 23.0561 18.6189 23.0936C18.5814 23.1248 18.4252 23.0123 18.2002 22.7936C17.8377 22.4373 17.6439 22.3623 17.3439 22.4748C17.1877 22.5373 17.0502 22.8623 17.0939 23.0561C17.1377 23.2686 18.3627 24.4936 18.5377 24.5061C18.7502 24.5186 18.9064 24.4873 18.9939 24.4186C19.0439 24.3748 19.5877 23.5873 20.2002 22.6686C21.0752 21.3561 21.3127 20.9498 21.3127 20.7936C21.3064 20.5686 21.2252 20.4311 21.0189 20.3248C20.8627 20.2373 20.7689 20.2373 20.5814 20.3123Z" fill="#EDEDED"/>
<path d="M22.6814 21.4063C22.5002 21.5063 22.3564 21.8188 22.4189 21.9875C22.4377 22.0438 22.5127 22.1563 22.5814 22.2313L22.7064 22.375H25.3252H27.9439L28.0939 22.2188C28.3064 22.0125 28.3064 21.7 28.0877 21.4938L27.9252 21.3438L25.3877 21.3313C23.2627 21.3188 22.8189 21.3313 22.6814 21.4063Z" fill="#EDEDED"/>
<path d="M22.7625 23.5062C22.4687 23.5937 22.3375 23.9062 22.4625 24.2125C22.6 24.5437 22.8062 24.575 24.6687 24.55L26.2625 24.5312L26.4125 24.3562C26.6062 24.1312 26.6062 23.8687 26.4125 23.6437L26.2625 23.4687L24.6125 23.4562C23.675 23.45 22.8812 23.4687 22.7625 23.5062Z" fill="#EDEDED"/>
<path d="M3.3125 16.0561C2.88125 16.1873 2.5 16.5123 2.275 16.9373C2.175 17.1248 2.15625 17.2998 2.15625 18.1248C2.15625 19.0748 2.15625 19.0998 2.3375 19.4248C2.64375 19.9686 3.1125 20.2436 3.75 20.2436C4.36875 20.2498 4.89375 19.9123 5.1625 19.3436C5.3 19.0623 5.3125 18.9498 5.3125 18.1186C5.3125 17.2686 5.3 17.1936 5.15 16.8873C5.0625 16.7061 4.8875 16.4811 4.7625 16.3748C4.375 16.0561 3.7625 15.9186 3.3125 16.0561ZM3.99375 17.1561C4.09375 17.2061 4.1875 17.2936 4.2125 17.3436C4.23125 17.3998 4.25 17.7686 4.25 18.1623C4.25 18.8436 4.24375 18.8873 4.09375 19.0311C3.86875 19.2623 3.55625 19.2436 3.35 18.9936C3.19375 18.8123 3.1875 18.7623 3.1875 18.1123C3.1875 17.4373 3.1875 17.4248 3.36875 17.2436C3.575 17.0436 3.73125 17.0186 3.99375 17.1561Z" fill="#EDEDED"/>
<path d="M3.06259 21.3562C2.70009 21.4875 2.58134 21.9062 2.81884 22.2125C2.94384 22.375 2.95634 22.375 3.72509 22.375C4.41259 22.375 4.51259 22.3625 4.62509 22.25C4.88759 21.9875 4.82509 21.5562 4.50009 21.3938C4.34384 21.3125 3.25634 21.2875 3.06259 21.3562Z" fill="#EDEDED"/>
</svg>
