<svg width="34" height="32" viewBox="0 0 34 32" fill="none" xmlns="http://www.w3.org/2000/svg">
<path d="M12.8884 29.6066C13.4351 29.6066 13.8783 28.9199 13.8783 28.0728C13.8783 27.2258 13.4351 26.5391 12.8884 26.5391C12.3416 26.5391 11.8984 27.2258 11.8984 28.0728C11.8984 28.9199 12.3416 29.6066 12.8884 29.6066Z" stroke="#1A1C22" stroke-width="3" stroke-linecap="round" stroke-linejoin="round"/>
<path d="M27.736 29.6066C28.2827 29.6066 28.7259 28.9199 28.7259 28.0728C28.7259 27.2258 28.2827 26.5391 27.736 26.5391C27.1893 26.5391 26.7461 27.2258 26.7461 28.0728C26.7461 28.9199 27.1893 29.6066 27.736 29.6066Z" stroke="#1A1C22" stroke-width="3" stroke-linecap="round" stroke-linejoin="round"/>
<path d="M2 2H7.39956L11.0173 20.2548C11.1407 20.8825 11.4788 21.4463 11.9724 21.8476C12.4659 22.2488 13.0835 22.462 13.717 22.4497H26.838C27.4715 22.462 28.0891 22.2488 28.5826 21.8476C29.0762 21.4463 29.4143 20.8825 29.5378 20.2548L31.6976 8.81658H8.74945" stroke="#1A1C22" stroke-width="3" stroke-linecap="round" stroke-linejoin="round"/>
</svg>
