<svg width="32" height="32" viewBox="0 0 32 32" fill="none" xmlns="http://www.w3.org/2000/svg">
<g clip-path="url(#clip0_844_86747)">
<path d="M13.9375 1.54354V3.10604L13.3437 3.14979C7.58121 3.55604 2.47496 7.59354 0.693713 13.1498C0.443713 13.9373 0.287463 14.5935 0.143713 15.4998C-0.00628687 16.4935 -0.00628687 18.6185 0.149963 19.6248C0.793713 23.7873 3.08746 27.3623 6.60621 29.6685C8.25621 30.756 10.3187 31.531 12.375 31.8498C13.3812 32.006 15.5062 32.006 16.5 31.856C19.7812 31.3435 22.5687 29.9123 24.8125 27.5873C27.1812 25.131 28.6187 21.9498 28.85 18.656L28.8937 18.0623H30.4562H32.0187L31.9812 16.9873C31.8125 12.4498 30.025 8.33729 26.8437 5.15604C23.6625 1.97479 19.55 0.187292 15.0187 0.0185413L13.9375 -0.0189571V1.54354ZM16.4187 1.15604C18.4062 1.39979 20.1562 1.93729 21.9625 2.85604C25.4812 4.64979 28.3312 7.78104 29.8125 11.4998C30.4375 13.0623 30.9375 15.3873 30.9375 16.6998V17.0623H27.6H24.2562L24.2187 16.6998C23.975 14.331 23 12.2623 21.3687 10.631C19.7312 8.99354 17.7687 8.06854 15.3 7.77479L15 7.74354V4.39979V1.06229H15.3312C15.5125 1.06229 16 1.10604 16.4187 1.15604ZM13.9375 5.26229V6.40604L13.4187 6.58729C12.4437 6.92479 10.575 7.88729 10.1125 8.29354C10.0125 8.38104 10.0312 8.41854 10.325 8.78104L10.6375 9.17479L11.15 8.84354C11.7375 8.46229 12.6062 8.01854 13.3625 7.71229C13.65 7.59354 13.9 7.49979 13.9125 7.49979C13.925 7.49979 13.9375 7.78104 13.9375 8.11854V8.73729L14.6437 8.77479C16.1 8.86229 17.1312 9.11854 18.2812 9.68104C20.05 10.5435 21.4562 11.9498 22.3125 13.7123C22.8812 14.8685 23.1375 15.8998 23.225 17.356L23.2625 18.0623H24.0312C24.7125 18.0623 24.8062 18.0748 24.8375 18.1685C24.9562 18.5498 25.1312 19.581 25.1875 20.2498C25.225 20.681 25.275 21.181 25.2875 21.3623L25.3187 21.6873H25.825H26.3312L26.2937 20.8873C26.2437 19.981 26.075 18.831 25.8937 18.1685C25.8687 18.0685 25.9437 18.0623 26.875 18.0623H27.8812L27.85 18.3248C27.8312 18.4748 27.8 18.7873 27.7812 19.031C27.6562 20.4685 27.0312 22.4623 26.275 23.8623C24.1687 27.7373 20.4437 30.2873 16.0437 30.8748C15.4125 30.956 13.5562 30.956 12.875 30.8748C10.5562 30.5873 8.33746 29.6998 6.49996 28.331C3.49996 26.0873 1.58121 22.806 1.12496 19.1248C1.04371 18.4435 1.04371 16.5873 1.12496 15.956C1.71246 11.556 4.26246 7.83104 8.13746 5.72479C9.79996 4.82479 11.6687 4.29979 13.8312 4.13104C13.9312 4.12479 13.9375 4.21854 13.9375 5.26229Z" fill="#EDEDED"/>
<path d="M16 2.59336V3.13086L16.5188 3.11211L17.0312 3.09336L17.05 2.57461L17.0688 2.06211H16.5312H16V2.59336Z" fill="#EDEDED"/>
<path d="M18.0248 4.07467C17.9686 4.32467 17.9186 4.54342 17.9248 4.56217C17.9248 4.57467 18.2311 4.69342 18.6061 4.81217C19.4498 5.09967 20.0686 5.36217 20.7498 5.73092C23.7186 7.32467 26.0561 10.0997 27.1248 13.2809C27.4061 14.1309 27.3623 14.0997 28.0248 13.8872L28.3623 13.7809L28.2186 13.3122C26.8936 8.91217 23.3873 5.31842 18.9811 3.84967C18.6123 3.72467 18.2748 3.62467 18.2248 3.62467C18.1686 3.62467 18.0998 3.78717 18.0248 4.07467Z" fill="#EDEDED"/>
<path d="M26.3562 14.975C26.3313 15 26.3125 15.2437 26.3125 15.5125V16H26.8438H27.3813L27.3625 15.4812L27.3438 14.9688L26.875 14.95C26.6125 14.9438 26.3813 14.95 26.3562 14.975Z" fill="#EDEDED"/>
<path d="M28.4187 14.975C28.3938 15 28.375 15.2437 28.375 15.5125V16H28.9062H29.4438L29.425 15.4812L29.4062 14.9688L28.9375 14.95C28.675 14.9438 28.4438 14.95 28.4187 14.975Z" fill="#EDEDED"/>
<path d="M7.54997 7.89365C7.39372 8.10615 7.24997 8.3124 7.23122 8.3499C7.20622 8.39365 7.35622 8.5374 7.60622 8.70615L8.01872 8.99365L8.31872 8.59365C8.48747 8.3749 8.62497 8.16865 8.62497 8.14365C8.61872 8.0999 8.09372 7.6624 7.90622 7.5499C7.86247 7.5249 7.72497 7.6499 7.54997 7.89365Z" fill="#EDEDED"/>
<path d="M13.4375 9.34969C12.1938 9.57469 11.6438 9.74343 10.8438 10.1372C8.20627 11.4497 6.53752 13.8684 6.24377 16.8122C5.98752 19.3934 7.05002 22.0372 9.03752 23.7622C11.3375 25.7497 14.425 26.3184 17.325 25.2809C19.9125 24.3497 21.9438 21.9809 22.5438 19.1872C22.7 18.4434 22.7 16.6872 22.5438 15.9372C22.1938 14.2872 21.4375 12.8872 20.275 11.7247C19.1313 10.5809 17.7438 9.82469 16.125 9.46844C15.675 9.36843 13.8 9.28719 13.4375 9.34969ZM15.8688 10.4747C17.325 10.7747 18.4563 11.3872 19.5375 12.4622C20.3938 13.3184 20.9125 14.1372 21.2688 15.1872C21.6313 16.2622 21.75 17.3934 21.6 18.4684C21.1063 22.0997 18.0938 24.7497 14.4625 24.7497C13.0125 24.7497 11.6625 24.3497 10.4375 23.5559C9.91252 23.2122 8.78752 22.0872 8.44377 21.5622C7.23127 19.6872 6.92502 17.4372 7.59377 15.3122C8.28752 13.1247 10.0688 11.3747 12.3125 10.6559C13.3938 10.3122 14.75 10.2434 15.8688 10.4747Z" fill="#EDEDED"/>
<path d="M13.7626 11.5374C12.8376 11.9936 12.6376 13.2561 13.3688 13.9874C13.6563 14.2749 13.9001 14.3811 14.3251 14.4186C14.9501 14.4811 15.5376 14.1561 15.8313 13.5999C16.0188 13.2436 16.0188 12.5686 15.8313 12.2186C15.4313 11.4624 14.5188 11.1624 13.7626 11.5374ZM14.6813 12.4686C14.8751 12.5686 14.9376 12.6749 14.9376 12.9124C14.9376 13.1499 14.8376 13.2936 14.6251 13.3686C14.1626 13.5249 13.7626 13.0311 14.0376 12.6374C14.1251 12.5061 14.3188 12.3874 14.4563 12.3811C14.4813 12.3749 14.5876 12.4186 14.6813 12.4686Z" fill="#EDEDED"/>
<path d="M13.6812 15.0935C13.2374 15.256 12.9374 15.4435 12.6374 15.7435C11.1687 17.2123 11.9874 19.7185 14.0499 20.0748C15.1687 20.2623 16.2812 19.6748 16.7749 18.631C17.1062 17.9248 17.0749 16.981 16.7062 16.3185C16.3749 15.7373 15.8124 15.2748 15.2124 15.0935C14.8374 14.981 13.9874 14.981 13.6812 15.0935ZM14.9687 16.106C15.5562 16.306 15.9999 16.9435 15.9999 17.5873C15.9999 18.106 15.5499 18.756 15.0499 18.9685C14.1937 19.3248 13.1187 18.7748 12.9624 17.906C12.8249 17.106 13.1312 16.4873 13.8437 16.1498C14.2124 15.9748 14.5499 15.9623 14.9687 16.106Z" fill="#EDEDED"/>
<path d="M9.2687 16.1C8.94995 16.2188 8.5687 16.575 8.4062 16.9063C8.23745 17.2563 8.2437 17.8875 8.4187 18.2188C8.71245 18.775 9.2062 19.075 9.82495 19.0688C10.6812 19.0688 11.3312 18.4125 11.3312 17.5625C11.3312 16.9625 10.9812 16.4063 10.4437 16.15C10.1437 16 9.5937 15.9813 9.2687 16.1ZM10.1812 17.225C10.3624 17.4563 10.3499 17.7188 10.1499 17.9063C9.67495 18.3438 9.0062 17.675 9.44995 17.2063C9.6437 17 10.0124 17.0063 10.1812 17.225Z" fill="#EDEDED"/>
<path d="M18.6874 16.0562C17.9436 16.2999 17.5124 16.9374 17.5811 17.6749C17.6186 18.0999 17.7249 18.3437 18.0124 18.6312C18.7436 19.3624 20.0061 19.1624 20.4624 18.2374C20.8374 17.4874 20.5374 16.5624 19.7874 16.1749C19.5186 16.0374 18.9374 15.9749 18.6874 16.0562ZM19.3436 17.0999C19.4936 17.1624 19.6311 17.4749 19.5874 17.6562C19.5374 17.8499 19.2811 18.0624 19.0999 18.0624C18.9186 18.0624 18.6936 17.8937 18.6249 17.7124C18.5561 17.5374 18.6436 17.2562 18.7936 17.1374C18.9061 17.0562 19.1749 17.0374 19.3436 17.0999Z" fill="#EDEDED"/>
<path d="M14.0498 20.7124C13.5811 20.8374 13.1686 21.2124 12.9998 21.6624C12.8998 21.9249 12.9123 22.5124 13.0311 22.7874C13.2686 23.3561 13.8123 23.7124 14.4373 23.7124C15.8186 23.7186 16.4998 22.1124 15.5436 21.1249C15.1686 20.7374 14.5623 20.5686 14.0498 20.7124ZM14.7748 21.8186C15.1248 22.0936 14.9061 22.6874 14.4561 22.6874C13.9998 22.6874 13.7811 22.1874 14.0936 21.8499C14.2811 21.6499 14.5436 21.6374 14.7748 21.8186Z" fill="#EDEDED"/>
<path d="M6.3125 9.84347C6.175 10.0997 6.0625 10.331 6.0625 10.3622C6.0625 10.4185 6.925 10.8497 6.95625 10.806C7.00625 10.7497 7.4375 9.94347 7.4375 9.91847C7.4375 9.89972 7.24375 9.77472 7 9.63722L6.56875 9.38722L6.3125 9.84347Z" fill="#EDEDED"/>
<path d="M5.37507 11.9809C5.26882 12.2746 5.19382 12.5246 5.20007 12.5309C5.21257 12.5434 5.42507 12.6121 5.68132 12.6871C6.05632 12.7996 6.15007 12.8059 6.19382 12.7371C6.31257 12.5559 6.51257 11.8621 6.46257 11.8184C6.43132 11.7871 6.21882 11.6934 5.98757 11.6059L5.56882 11.4496L5.37507 11.9809Z" fill="#EDEDED"/>
<path d="M2.59365 13.9812C2.73115 16.025 3.0249 17.4313 3.6249 18.9437C3.9624 19.7812 4.5624 20.9562 4.9499 21.5437L5.2624 22L5.4249 21.8813C5.51865 21.8125 5.6999 21.6687 5.83115 21.55L6.0624 21.3438L5.78115 20.9125C5.1249 19.9062 4.4249 18.3062 4.09365 17.0437C3.86865 16.1937 3.69365 15.1 3.6499 14.2188L3.60615 13.4375H3.08115H2.55615L2.59365 13.9812Z" fill="#EDEDED"/>
<path d="M22.5376 22.7938C22.4501 23.0563 22.3813 23.275 22.3938 23.2813C22.4501 23.325 23.3251 23.6313 23.3376 23.6188C23.4063 23.5188 23.6938 22.6125 23.6626 22.5813C23.6063 22.525 22.9313 22.3125 22.8001 22.3125C22.7313 22.3125 22.6501 22.45 22.5376 22.7938Z" fill="#EDEDED"/>
<path d="M4.725 23.731C4.56875 23.931 4.4375 24.1123 4.4375 24.1373C4.4375 24.1873 5.3125 24.8373 5.3375 24.806C5.4 24.7248 5.875 23.9998 5.875 23.981C5.875 23.956 5.0875 23.3748 5.04375 23.3748C5.025 23.3748 4.88125 23.5373 4.725 23.731Z" fill="#EDEDED"/>
<path d="M21.7188 24.6875C21.6 24.925 21.5 25.1438 21.5 25.175C21.5 25.225 22.25 25.6875 22.3313 25.6875C22.3562 25.6875 22.4875 25.4625 22.625 25.1875L22.8813 24.6812L22.6438 24.5812C22.5125 24.5312 22.3 24.4312 22.175 24.3687L21.9375 24.25L21.7188 24.6875Z" fill="#EDEDED"/>
<path d="M6.56234 24.9563C6.44359 25.1687 6.33734 25.375 6.32484 25.4062C6.31234 25.4562 7.17484 25.9375 7.28109 25.9375C7.29984 25.9375 7.40609 25.7437 7.53109 25.5062C7.69359 25.175 7.72484 25.0625 7.66859 25.0125C7.59984 24.9563 6.83734 24.5625 6.79984 24.5625C6.78734 24.5625 6.68109 24.7375 6.56234 24.9563Z" fill="#EDEDED"/>
<path d="M8.53756 25.9498C8.45006 26.1936 8.39381 26.4186 8.41881 26.4436C8.45006 26.4623 8.68756 26.5561 8.95006 26.6436L9.43131 26.7998L9.53131 26.4811C9.58756 26.2998 9.65631 26.0811 9.68756 25.9873C9.73756 25.8248 9.73131 25.8186 9.26256 25.6623C8.99381 25.5748 8.76256 25.4998 8.74381 25.4998C8.72506 25.4998 8.63131 25.6998 8.53756 25.9498Z" fill="#EDEDED"/>
<path d="M17.75 26.2562C15.9375 27.4437 13.45 28.2312 11.1125 28.3562L10.3125 28.3937V28.9187V29.4375L10.925 29.4062C13.6562 29.2375 15.8562 28.5937 18.025 27.3125C18.3187 27.1375 18.6375 26.9312 18.725 26.85L18.9 26.7062L18.6 26.3375C18.4312 26.1375 18.2812 25.9625 18.2562 25.9562C18.2375 25.95 18.0062 26.0875 17.75 26.2562Z" fill="#EDEDED"/>
<path d="M20.5688 26.5188C20.4188 26.7313 20.3063 26.9313 20.3188 26.9688C20.3438 27.05 20.9751 27.5625 21.0438 27.5625C21.1063 27.5563 21.6876 26.775 21.6876 26.6938C21.6876 26.6438 20.9376 26.1188 20.8688 26.125C20.8563 26.1313 20.7188 26.3063 20.5688 26.5188Z" fill="#EDEDED"/>
</g>
<defs>
<clipPath id="clip0_844_86747">
<rect width="32" height="32" fill="white"/>
</clipPath>
</defs>
</svg>
