<svg width="32" height="32" viewBox="0 0 32 32" fill="none" xmlns="http://www.w3.org/2000/svg">
<g clip-path="url(#clip0_844_86808)">
<path opacity="0.936" fill-rule="evenodd" clip-rule="evenodd" d="M15.7188 -0.03125C15.8855 -0.03125 16.0521 -0.03125 16.2188 -0.03125C18.7476 1.09735 21.2892 2.21193 23.8438 3.3125C24.0571 3.40341 24.255 3.51799 24.4376 3.65625C24.5411 6.75525 24.5619 9.85938 24.5001 12.9688C24.3201 14.5684 23.6222 15.8914 22.4063 16.9375C20.448 18.3542 18.4896 19.7708 16.5313 21.1875C16.1563 21.3958 15.7813 21.3958 15.4063 21.1875C13.448 19.7708 11.4896 18.3542 9.5313 16.9375C8.31543 15.8914 7.61755 14.5684 7.43755 12.9688C7.37568 9.85938 7.39649 6.75525 7.50005 3.65625C7.64074 3.53892 7.79699 3.44517 7.9688 3.375C10.5651 2.2536 13.1484 1.11818 15.7188 -0.03125ZM15.8438 1.15625C15.9955 1.15769 16.1413 1.18894 16.2813 1.25C18.6329 2.28732 20.9871 3.31857 23.3438 4.34375C23.4167 7.17688 23.4271 10.0102 23.3751 12.8438C23.2203 14.143 22.6474 15.2159 21.6563 16.0625C19.7605 17.4271 17.8646 18.7917 15.9688 20.1562C14.073 18.7917 12.1771 17.4271 10.2813 16.0625C9.29024 15.2159 8.7173 14.143 8.56255 12.8438C8.5313 10.0105 8.52087 7.17719 8.5313 4.34375C10.9884 3.31675 13.4259 2.25425 15.8438 1.15625ZM15.8438 3.46875C17.6692 4.17814 19.4713 4.94898 21.2501 5.78125C21.2917 8.07294 21.2917 10.3646 21.2501 12.6562C21.1641 13.3804 20.8412 13.9741 20.2813 14.4375C18.8351 15.4566 17.3976 16.4879 15.9688 17.5312C14.54 16.4879 13.1025 15.4566 11.6563 14.4375C11.0964 13.9741 10.7735 13.3804 10.6876 12.6562C10.6459 10.3646 10.6459 8.07294 10.6876 5.78125C12.4147 5.0164 14.1334 4.24557 15.8438 3.46875Z" fill="#EDEDED"/>
<path opacity="0.937" fill-rule="evenodd" clip-rule="evenodd" d="M15.7187 2.28116C15.8867 2.2709 16.0533 2.28132 16.2187 2.31241C18.177 3.16658 20.1354 4.02074 22.0937 4.87491C22.2111 4.97134 22.3048 5.08592 22.375 5.21866C22.4167 7.76035 22.4167 10.302 22.375 12.8437C22.2455 13.8423 21.7976 14.6653 21.0312 15.3124C19.5312 16.3957 18.0312 17.4791 16.5312 18.5624C16.1562 18.8541 15.7812 18.8541 15.4062 18.5624C13.9062 17.4791 12.4062 16.3957 10.9062 15.3124C10.1398 14.6653 9.69197 13.8423 9.56247 12.8437C9.50072 10.2551 9.52153 7.67172 9.62497 5.09366C9.81753 4.91909 10.0363 4.78368 10.2812 4.68741C12.113 3.9142 13.9255 3.11212 15.7187 2.28116ZM15.8437 3.46866C14.1333 4.24548 12.4146 5.01631 10.6875 5.78116C10.6458 8.07285 10.6458 10.3645 10.6875 12.6562C10.7734 13.3803 11.0963 13.974 11.6562 14.4374C13.1024 15.4565 14.5399 16.4878 15.9687 17.5312C17.3975 16.4878 18.835 15.4565 20.2812 14.4374C20.8411 13.974 21.164 13.3803 21.25 12.6562C21.2917 10.3645 21.2917 8.07285 21.25 5.78116C19.4712 4.94889 17.6691 4.17805 15.8437 3.46866Z" fill="#EDEDED"/>
<path opacity="0.92" fill-rule="evenodd" clip-rule="evenodd" d="M18.9686 6.34382C19.5722 6.2912 19.8118 6.56201 19.6874 7.15632C18.2419 9.37039 16.7731 11.5683 15.2811 13.7501C15.0311 13.8751 14.7811 13.8751 14.5311 13.7501C13.7916 13.1771 13.052 12.6043 12.3124 12.0313C12.0996 11.369 12.3391 11.0878 13.0311 11.1876C13.5985 11.6223 14.1714 12.0493 14.7499 12.4688C16.0571 10.5421 17.3487 8.60457 18.6249 6.65632C18.733 6.53745 18.8476 6.43326 18.9686 6.34382Z" fill="#1E2020"/>
<path opacity="0.939" fill-rule="evenodd" clip-rule="evenodd" d="M13.6562 31.9686C11.4479 31.9686 9.23956 31.9686 7.03125 31.9686C6.71644 31.8096 6.49769 31.5596 6.375 31.2186C6.33331 29.5936 6.33331 27.9686 6.375 26.3436C6.41494 26.1803 6.48787 26.0344 6.59375 25.9061C5.30117 24.6031 4.01992 23.2906 2.75 21.9686C2.46824 21.5302 2.21824 21.0719 2 20.5936C1.31542 19.0898 0.638344 17.5898 -0.03125 16.0936C-0.03125 15.8019 -0.03125 15.5102 -0.03125 15.2186C0.559987 13.9694 1.47666 13.6465 2.71875 14.2498C2.89825 14.4084 3.0545 14.5854 3.1875 14.7811C3.58807 15.7278 4.00473 16.6653 4.4375 17.5936C5.41515 17.0685 6.36306 17.1206 7.28125 17.7498C8.42881 18.7618 9.72044 19.5535 11.1562 20.1248C12.3054 20.9739 13.0034 22.1094 13.25 23.5311C13.3298 24.1952 13.361 24.8619 13.3438 25.5311C13.8905 25.5885 14.2343 25.8802 14.375 26.4061C14.4167 27.9894 14.4167 29.5727 14.375 31.1561C14.2739 31.5587 14.0344 31.8295 13.6562 31.9686ZM1.53125 15.0311C1.80518 15.0216 2.02393 15.1257 2.1875 15.3436C2.61634 16.3176 3.03301 17.2968 3.4375 18.2811C3.68208 18.7915 3.97375 19.2706 4.3125 19.7186C5.32292 20.729 6.33331 21.7394 7.34375 22.7498C7.97919 22.8644 8.23956 22.604 8.125 21.9686C7.1685 20.9495 6.18932 19.9495 5.1875 18.9686C5.12675 18.8557 5.05383 18.7516 4.96875 18.6561C5.38714 18.3123 5.84548 18.2602 6.34375 18.4998C6.95094 19.0029 7.57594 19.4821 8.21875 19.9373C9.09569 20.3966 9.97069 20.8549 10.8438 21.3123C11.6385 22.0904 12.0864 23.0383 12.1875 24.1561C12.2188 24.6139 12.2291 25.0722 12.2188 25.5311C10.7603 25.5415 9.30194 25.5311 7.84375 25.4998C6.35044 24.0482 4.90253 22.5587 3.5 21.0311C2.70833 19.3227 1.91667 17.6144 1.125 15.9061C1.01064 15.4893 1.14606 15.1976 1.53125 15.0311ZM7.46875 26.6561C9.40625 26.6561 11.3438 26.6561 13.2812 26.6561C13.2812 28.0519 13.2812 29.4477 13.2812 30.8436C11.3438 30.8436 9.40625 30.8436 7.46875 30.8436C7.46875 29.4477 7.46875 28.0519 7.46875 26.6561Z" fill="#EDEDED"/>
<path opacity="0.939" fill-rule="evenodd" clip-rule="evenodd" d="M31.9688 15.1562C31.9688 15.4687 31.9688 15.7812 31.9688 16.0937C31.3079 17.543 30.6516 19.0014 30 20.4687C29.761 20.9886 29.4901 21.4886 29.1875 21.9687C27.9176 23.2907 26.6363 24.6032 25.3438 25.9062C25.4496 26.0345 25.5226 26.1804 25.5625 26.3437C25.6042 27.9687 25.6042 29.5937 25.5625 31.2187C25.4415 31.5582 25.2228 31.8082 24.9063 31.9687C22.698 31.9687 20.4896 31.9687 18.2813 31.9687C17.9031 31.8296 17.6636 31.5588 17.5625 31.1562C17.5208 29.5729 17.5208 27.9895 17.5625 26.4062C17.7075 25.8754 18.0513 25.5838 18.5938 25.5312C18.3896 23.5495 18.973 21.8516 20.3438 20.4374C20.4896 20.3332 20.6355 20.2291 20.7813 20.1249C22.2489 19.5481 23.5614 18.7356 24.7188 17.6874C25.6282 17.11 26.5553 17.0787 27.5 17.5937C27.9328 16.6654 28.3495 15.7279 28.75 14.7812C29.4542 13.8475 30.3188 13.6704 31.3438 14.2499C31.6186 14.5129 31.827 14.815 31.9688 15.1562ZM30.1563 15.0312C30.7191 15.063 30.9379 15.3547 30.8125 15.9062C30.1875 17.2812 29.5625 18.6562 28.9375 20.0312C28.7141 20.5407 28.4433 21.0199 28.125 21.4687C26.7813 22.8124 25.4375 24.1562 24.0938 25.4999C22.6356 25.5312 21.1773 25.5416 19.7188 25.5312C19.5613 24.0975 19.905 22.8058 20.75 21.6562C20.9293 21.4559 21.1272 21.2789 21.3438 21.1249C22.9247 20.4995 24.3414 19.6245 25.5938 18.4999C26.091 18.263 26.5494 18.3152 26.9688 18.6562C26.8837 18.7517 26.8108 18.8559 26.75 18.9687C25.7482 19.9496 24.769 20.9496 23.8125 21.9687C23.7329 22.6393 24.0141 22.8789 24.6563 22.6874C25.731 21.6335 26.7831 20.5607 27.8125 19.4687C28.0575 19.083 28.2866 18.6872 28.5 18.2812C28.9045 17.2969 29.3211 16.3177 29.75 15.3437C29.8628 15.1983 29.9983 15.0942 30.1563 15.0312ZM18.6563 26.6562C20.5938 26.6562 22.5313 26.6562 24.4688 26.6562C24.4688 28.052 24.4688 29.4479 24.4688 30.8437C22.5313 30.8437 20.5938 30.8437 18.6563 30.8437C18.6563 29.4479 18.6563 28.052 18.6563 26.6562Z" fill="#EDEDED"/>
<path opacity="0.897" fill-rule="evenodd" clip-rule="evenodd" d="M10.9061 28.2187C11.2609 28.2083 11.6151 28.2188 11.9686 28.25C12.2794 28.4704 12.3523 28.7517 12.1874 29.0937C12.105 29.2179 11.9904 29.2908 11.8436 29.3125C11.5048 29.3649 11.1715 29.3441 10.8436 29.25C10.4976 28.8857 10.5185 28.5419 10.9061 28.2187Z" fill="#EDEDED"/>
<path opacity="0.896" fill-rule="evenodd" clip-rule="evenodd" d="M19.9686 28.2187C20.3234 28.2083 20.6776 28.2188 21.0311 28.25C21.3419 28.4704 21.4148 28.7517 21.2499 29.0937C21.1675 29.2179 21.0529 29.2908 20.9061 29.3125C20.5673 29.3649 20.234 29.3441 19.9061 29.25C19.5601 28.8857 19.581 28.5419 19.9686 28.2187Z" fill="#EDEDED"/>
</g>
<defs>
<clipPath id="clip0_844_86808">
<rect width="32" height="32" fill="white"/>
</clipPath>
</defs>
</svg>
