<svg width="32" height="32" viewBox="0 0 32 32" fill="none" xmlns="http://www.w3.org/2000/svg">
<path opacity="0.939" fill-rule="evenodd" clip-rule="evenodd" d="M25.3438 1.03133C26.5543 1.0235 27.2938 1.60683 27.5625 2.78133C27.5954 4.2488 26.8766 5.05088 25.4063 5.18758C25.3172 5.29471 25.338 5.37805 25.4688 5.43758C25.9991 5.60046 26.5199 5.78796 27.0313 6.00008C27.1664 6.10292 27.2497 6.23833 27.2813 6.40633C26.8019 7.91726 26.2915 9.41726 25.75 10.9063C25.5677 11.0246 25.3698 11.0559 25.1563 11.0001C24.6561 10.8473 24.1665 10.6702 23.6875 10.4688C23.576 10.6883 23.4823 10.9175 23.4063 11.1563C23.9889 11.2023 24.5723 11.2128 25.1563 11.1876C25.4756 11.398 25.5485 11.6792 25.375 12.0313C25.272 12.1074 25.1574 12.1595 25.0313 12.1876C24.3438 12.2251 23.6563 12.2563 22.9688 12.2813C22.9192 12.5551 22.8567 12.826 22.7813 13.0938C23.3857 13.0653 23.9899 13.0549 24.5938 13.0626C24.7083 13.0938 24.7813 13.1668 24.8125 13.2813C24.8542 13.448 24.8542 13.6146 24.8125 13.7813C24.7813 13.8959 24.7083 13.9688 24.5938 14.0001C23.8639 14.0586 23.1348 14.1211 22.4063 14.1876C22.2916 14.4378 22.2083 14.6982 22.1563 14.9688C22.7806 14.9168 23.4056 14.9063 24.0313 14.9376C24.3793 15.2745 24.3585 15.587 23.9688 15.8751C23.2388 15.9168 22.5096 15.9689 21.7813 16.0313C21.6835 16.3558 21.5793 16.6788 21.4688 17.0001C21.6445 17.1758 21.8216 17.3529 22 17.5313C22.1236 17.7681 22.2382 18.0076 22.3438 18.2501C24.1146 18.2709 25.8854 18.2918 27.6563 18.3126C27.9709 18.5009 28.0439 18.7613 27.875 19.0938C27.8186 19.1689 27.7457 19.221 27.6563 19.2501C25.8851 19.2605 24.1142 19.2918 22.3438 19.3438C21.8334 20.546 20.9376 20.994 19.6563 20.6876C19.0052 20.4222 18.5885 19.9535 18.4063 19.2813C17.5729 19.2813 16.7396 19.2813 15.9063 19.2813C15.9167 21.094 15.9063 22.9065 15.875 24.7188C15.7991 24.8156 15.7054 24.8885 15.5938 24.9376C14.9066 24.9688 14.2191 24.9793 13.5313 24.9688C13.5417 25.9066 13.5313 26.8441 13.5 27.7813C13.3681 29.4548 12.4826 30.4652 10.8438 30.8126C9.46875 30.8543 8.09375 30.8543 6.71875 30.8126C5.32476 30.5435 4.46018 29.7206 4.125 28.3438C4.08333 21.9688 4.08333 15.5938 4.125 9.21883C4.46754 7.81383 5.35295 6.99095 6.78125 6.75008C8.11456 6.70839 9.44794 6.70839 10.7813 6.75008C12.4563 7.07102 13.3626 8.08139 13.5 9.78133C13.5313 10.7186 13.5417 11.6561 13.5313 12.5938C14.1983 12.5834 14.8649 12.5938 15.5313 12.6251C15.678 12.6467 15.7926 12.7196 15.875 12.8438C15.9063 14.6562 15.9167 16.4687 15.9063 18.2813C16.7396 18.2813 17.5729 18.2813 18.4063 18.2813C18.5669 17.5476 19.0044 17.058 19.7188 16.8126C19.989 16.7582 20.2599 16.7061 20.5313 16.6563C20.6193 16.4546 20.6818 16.2463 20.7188 16.0313C20.1954 16.0584 19.6746 16.1001 19.1563 16.1563C18.6837 16.0779 18.5274 15.8071 18.6875 15.3438C18.7396 15.2918 18.7917 15.2396 18.8438 15.1876C19.5891 15.0989 20.3391 15.026 21.0938 14.9688C21.2254 14.7024 21.2879 14.4316 21.2813 14.1563C20.7214 14.2278 20.1589 14.2591 19.5938 14.2501C19.1559 13.9972 19.1143 13.6847 19.4688 13.3126C20.2153 13.2259 20.9653 13.1738 21.7188 13.1563C21.7708 12.8857 21.8541 12.6253 21.9688 12.3751C21.3647 12.3778 20.7605 12.3778 20.1563 12.3751C19.7658 12.093 19.745 11.7805 20.0938 11.4376C20.8435 11.3746 21.5935 11.3225 22.3438 11.2813C22.4286 10.9331 22.5327 10.5893 22.6563 10.2501C22.6309 10.191 22.5893 10.1493 22.5313 10.1251C22.0037 9.95502 21.4829 9.76752 20.9688 9.56258C20.7059 9.34245 20.6538 9.08202 20.8125 8.78133C21.2585 7.42252 21.7168 6.06835 22.1875 4.71883C22.3076 4.57092 22.4638 4.48758 22.6563 4.46883C23.2069 4.63155 23.7486 4.81905 24.2813 5.03133C24.4107 4.95094 24.4315 4.84677 24.3438 4.71883C23.4983 3.9976 23.3003 3.1226 23.75 2.09383C24.1384 1.51005 24.6697 1.15589 25.3438 1.03133ZM25.2813 2.09383C25.956 2.02973 26.3831 2.3214 26.5625 2.96883C26.5458 3.7562 26.1396 4.14162 25.3438 4.12508C24.5718 3.80638 24.3739 3.27513 24.75 2.53133C24.9026 2.34673 25.0797 2.2009 25.2813 2.09383ZM22.9688 5.71883C24.0274 6.0231 25.0691 6.37726 26.0938 6.78133C25.7578 7.79983 25.4036 8.81026 25.0313 9.81258C23.9805 9.51445 22.9388 9.1707 21.9063 8.78133C22.2486 7.75401 22.6028 6.7332 22.9688 5.71883ZM6.78125 7.78133C8.15956 7.75283 9.53456 7.78408 10.9063 7.87508C11.5773 8.07739 12.0356 8.50451 12.2813 9.15633C11.7964 9.89564 11.2651 10.604 10.6875 11.2813C10.3523 11.7546 10.4564 12.088 11 12.2813C11.0938 12.2501 11.1875 12.2188 11.2813 12.1876C11.6905 11.716 12.0759 11.2264 12.4375 10.7188C12.4792 11.198 12.4792 11.6771 12.4375 12.1563C11.875 12.8855 11.3125 13.6146 10.75 14.3438C10.4793 14.642 10.4689 14.944 10.7188 15.2501C10.8979 15.3411 11.0854 15.362 11.2813 15.3126C11.6741 14.8496 12.0596 14.3808 12.4375 13.9063C12.4792 14.3855 12.4792 14.8646 12.4375 15.3438C11.875 16.073 11.3125 16.8021 10.75 17.5313C10.3768 18.2022 10.5748 18.5043 11.3438 18.4376C11.753 17.966 12.1384 17.4764 12.5 16.9688C12.5417 17.448 12.5417 17.9271 12.5 18.4063C11.9375 19.1355 11.375 19.8646 10.8125 20.5938C10.5418 20.892 10.5314 21.194 10.7813 21.5001C11.1216 21.6637 11.4029 21.5908 11.625 21.2813C11.9167 20.9063 12.2083 20.5313 12.5 20.1563C12.5417 20.6146 12.5417 21.073 12.5 21.5313C11.9198 22.3408 11.3156 23.1325 10.6875 23.9063C10.5224 24.3576 10.6787 24.6284 11.1563 24.7188C11.2461 24.7051 11.3294 24.6739 11.4063 24.6251C11.7991 24.1621 12.1846 23.6933 12.5625 23.2188C12.5501 23.7165 12.5293 24.2165 12.5 24.7188C11.9167 25.4688 11.3333 26.2188 10.75 26.9688C10.5883 27.2759 10.6404 27.5363 10.9063 27.7501C11.1228 27.8011 11.3311 27.7803 11.5313 27.6876C11.8674 27.234 12.2112 26.7861 12.5625 26.3438C12.8413 27.5748 12.5183 28.6061 11.5938 29.4376C11.3241 29.6109 11.0324 29.7359 10.7188 29.8126C9.29894 29.8725 7.88225 29.8516 6.46875 29.7501C5.45148 29.3305 4.98273 28.5701 5.0625 27.4688C5.54738 26.8117 6.04738 26.1659 6.5625 25.5313C6.99081 24.8578 6.81375 24.5348 6.03125 24.5626C5.66268 24.9313 5.33977 25.3376 5.0625 25.7813C5.02083 25.3021 5.02083 24.823 5.0625 24.3438C5.58333 23.6771 6.10417 23.0105 6.625 22.3438C6.93269 21.7393 6.75563 21.4373 6.09375 21.4376C5.69934 21.7982 5.35559 22.2045 5.0625 22.6563C5.02083 22.198 5.02083 21.7396 5.0625 21.2813C5.60417 20.573 6.14583 19.8646 6.6875 19.1563C6.90169 18.4748 6.66213 18.2143 5.96875 18.3751C5.66667 18.7605 5.36458 19.1459 5.0625 19.5313C5.02083 19.073 5.02083 18.6146 5.0625 18.1563C5.54738 17.4992 6.04738 16.8534 6.5625 16.2188C6.99081 15.5453 6.81375 15.2223 6.03125 15.2501C5.66268 15.6188 5.33977 16.0251 5.0625 16.4688C5.02083 15.9688 5.02083 15.4688 5.0625 14.9688C5.58333 14.3021 6.10417 13.6355 6.625 12.9688C6.93269 12.3643 6.75563 12.0623 6.09375 12.0626C5.69934 12.4232 5.35559 12.8295 5.0625 13.2813C5.02083 12.823 5.02083 12.3646 5.0625 11.9063C5.60417 11.198 6.14583 10.4896 6.6875 9.78133C6.90094 9.09901 6.66138 8.83858 5.96875 9.00008C5.66667 9.38552 5.36458 9.77089 5.0625 10.1563C5.02446 8.91426 5.59738 8.12258 6.78125 7.78133ZM13.4688 13.6563C13.9479 13.6563 14.4271 13.6563 14.9063 13.6563C14.9063 17.0938 14.9063 20.5313 14.9063 23.9688C14.4271 23.9688 13.9479 23.9688 13.4688 23.9688C13.4688 20.5313 13.4688 17.0938 13.4688 13.6563ZM20.0938 17.7188C21.1191 17.7943 21.4836 18.3151 21.1875 19.2813C20.67 19.8966 20.1075 19.9383 19.5 19.4063C19.1083 18.6336 19.3062 18.0711 20.0938 17.7188Z" fill="#EDEDED"/>
</svg>
