<svg width="32" height="32" viewBox="0 0 32 32" fill="none" xmlns="http://www.w3.org/2000/svg">
<path opacity="0.944" fill-rule="evenodd" clip-rule="evenodd" d="M15.0313 3.03116C19.0252 2.93619 22.8377 3.71744 26.4688 5.37491C26.7037 5.60887 26.7767 5.89012 26.6875 6.21866C26.5047 6.50209 26.2443 6.61666 25.9063 6.56241C19.0048 3.51396 12.1507 3.61813 5.34378 6.87491C4.24975 7.36947 3.20808 7.94241 2.21878 8.59366C4.17185 11.8124 6.1406 15.0208 8.12503 18.2187C10.7781 16.7422 13.6218 16.0859 16.6563 16.2499C17.0244 16.4862 17.1182 16.8091 16.9375 17.2187C16.8411 17.336 16.7265 17.4298 16.5938 17.4999C13.5673 17.4596 10.7548 18.2096 8.15628 19.7499C8.0489 19.7715 7.94471 19.8028 7.84378 19.8437C7.47853 19.7392 7.21815 19.51 7.06253 19.1562C4.9167 15.6353 2.77086 12.1145 0.625027 8.59366C0.539966 8.17009 0.696214 7.86803 1.09378 7.68741C4.7026 5.40786 8.61928 3.9287 12.8438 3.24991C13.5817 3.16778 14.3108 3.09487 15.0313 3.03116Z" fill="#EDEDED"/>
<path opacity="0.941" fill-rule="evenodd" clip-rule="evenodd" d="M15.7812 5.46875C17.5111 5.48186 19.2194 5.67977 20.9062 6.0625C21.3276 6.18595 21.5047 6.46719 21.4375 6.90625C21.3375 7.2065 21.1291 7.37312 20.8125 7.40625C18.7254 6.90594 16.6108 6.72881 14.4688 6.875C13.8664 6.96337 13.2623 7.00506 12.6562 7C12.1562 6.60419 12.1562 6.20833 12.6562 5.8125C13.699 5.62413 14.7406 5.50954 15.7812 5.46875Z" fill="#EDEDED"/>
<path opacity="0.949" fill-rule="evenodd" clip-rule="evenodd" d="M28.0939 6.28115C28.2618 6.2709 28.4285 6.28134 28.5939 6.3124C29.4169 6.81772 30.2502 7.30734 31.0939 7.78115C31.3297 8.05022 31.4026 8.36272 31.3126 8.71865C28.6719 13.0207 26.0469 17.3332 23.4376 21.6562C23.2183 21.9898 22.9162 22.1044 22.5314 21.9999C21.6147 21.4791 20.698 20.9582 19.7814 20.4374C19.5718 20.1004 19.5822 19.7567 19.8126 19.4062C21.0027 17.4738 22.2006 15.5467 23.4064 13.6249C23.0837 13.3906 22.7504 13.1718 22.4064 12.9687C20.4245 16.1927 18.4661 19.4322 16.5314 22.6874C16.8126 22.8853 17.0522 23.1249 17.2501 23.4062C17.4784 23.8004 17.6555 24.2171 17.7814 24.6562C18.6231 24.9457 19.1127 25.529 19.2501 26.4062C19.2918 27.0937 19.2918 27.7812 19.2501 28.4687C19.2186 28.6887 19.104 28.8449 18.9064 28.9374C16.0886 28.9992 13.2761 28.9784 10.4689 28.8749C10.3553 28.7624 10.2824 28.627 10.2501 28.4687C10.1955 27.6743 10.2164 26.8827 10.3126 26.0937C10.5474 25.3485 11.0369 24.8693 11.7814 24.6562C12.1123 23.096 13.0707 22.2418 14.6564 22.0937C14.8265 22.0968 14.9932 22.1177 15.1564 22.1562C17.3724 18.678 19.5287 15.1572 21.6251 11.5937C21.8745 11.3575 22.1557 11.3054 22.4689 11.4374C23.026 11.7525 23.5782 12.0753 24.1251 12.4062C25.3517 10.4218 26.5704 8.43222 27.7814 6.4374C27.8948 6.39009 27.9989 6.33803 28.0939 6.28115ZM28.4689 7.84365C28.905 8.06172 29.3217 8.31172 29.7189 8.59365C27.3334 12.4895 24.948 16.3853 22.5626 20.2812C22.497 20.3447 22.4241 20.3552 22.3439 20.3124C21.9897 20.0937 21.6355 19.8749 21.2814 19.6562C23.7054 15.733 26.1012 11.7955 28.4689 7.84365ZM14.5939 23.3437C15.3914 23.3709 15.9539 23.7459 16.2814 24.4687C15.2605 24.552 14.2397 24.552 13.2189 24.4687C13.5112 23.8841 13.9695 23.5091 14.5939 23.3437ZM12.1564 25.8437C13.8857 25.8332 15.6148 25.8437 17.3439 25.8749C17.5798 25.965 17.7569 26.1213 17.8751 26.3437C17.9064 26.7598 17.9167 27.1765 17.9064 27.5937C15.8022 27.5937 13.698 27.5937 11.5939 27.5937C11.5694 27.1298 11.6007 26.6715 11.6876 26.2187C11.8197 26.0548 11.976 25.9298 12.1564 25.8437Z" fill="#EDEDED"/>
<path opacity="0.925" fill-rule="evenodd" clip-rule="evenodd" d="M9.71875 6.34396C10.4265 6.27059 10.7494 6.58309 10.6875 7.28146C10.6384 7.39309 10.5656 7.48684 10.4688 7.56271C9.87313 7.71265 9.28981 7.90015 8.71875 8.12521C8.1855 8.23665 7.873 8.02834 7.78125 7.50021C7.7965 7.28227 7.87981 7.09477 8.03125 6.93771C8.58875 6.70684 9.15125 6.5089 9.71875 6.34396Z" fill="#EDEDED"/>
<path opacity="0.942" fill-rule="evenodd" clip-rule="evenodd" d="M14.9062 11.8437C15.3442 11.8334 15.7817 11.8437 16.2187 11.875C16.668 12.1412 16.7618 12.5058 16.4999 12.9687C16.4435 13.0438 16.3706 13.0959 16.2812 13.125C13.9876 13.1687 11.748 13.5333 9.56244 14.2187C8.94544 14.143 8.73707 13.8097 8.93744 13.2187C9.12525 12.9945 9.36482 12.8591 9.65619 12.8125C11.3814 12.3064 13.1314 11.9834 14.9062 11.8437Z" fill="#EDEDED"/>
</svg>
