<svg width="42" height="43" viewBox="0 0 42 43" fill="none" xmlns="http://www.w3.org/2000/svg">
<path d="M1 5.6324L1 36.72C1 39.1728 2.98985 41.1611 5.44444 41.1611H36.5556C39.0102 41.1611 41 39.1728 41 36.72V5.6324C41 3.17965 39.0102 1.19131 36.5556 1.19131H5.44444C2.98985 1.19131 1 3.17965 1 5.6324Z" stroke="#EDEDED" stroke-width="2" stroke-linecap="round" stroke-linejoin="round"/>
<path d="M23.1044 13.1832C24.3202 13.4205 25.4375 14.0155 26.3134 14.8919C27.1893 15.7684 27.7839 16.8864 28.0211 18.1029M23.1044 8.20117C25.6303 8.48195 27.9857 9.61379 29.7839 11.4108C31.5821 13.2079 32.7162 15.5634 33 18.0905M31.7553 28.0296V31.7661C31.7567 32.113 31.6857 32.4563 31.5468 32.7742C31.4079 33.092 31.2042 33.3773 30.9488 33.6118C30.6933 33.8463 30.3918 34.0248 30.0634 34.136C29.735 34.2471 29.387 34.2884 29.0418 34.2571C25.2115 33.8407 21.5323 32.531 18.2998 30.4334C15.2923 28.5212 12.7425 25.9698 10.8314 22.9604C8.7278 19.7111 7.41868 16.0117 7.0101 12.1619C6.979 11.8175 7.01991 11.4703 7.13022 11.1426C7.24053 10.8148 7.41784 10.5137 7.65085 10.2583C7.88385 10.0029 8.16746 9.79879 8.4836 9.65906C8.79974 9.51933 9.1415 9.447 9.48711 9.44668H13.2213C13.8254 9.44073 14.411 9.65477 14.869 10.0489C15.327 10.4431 15.6262 10.9904 15.7107 11.5889C15.8684 12.7847 16.1607 13.9588 16.5821 15.0888C16.7495 15.5346 16.7858 16.0191 16.6865 16.4849C16.5872 16.9507 16.3566 17.3782 16.0219 17.7168L14.4411 19.2986C16.2131 22.4168 18.7933 24.9986 21.9095 26.7717L23.4903 25.1899C23.8287 24.855 24.256 24.6242 24.7215 24.5249C25.187 24.4255 25.6711 24.4618 26.1167 24.6294C27.246 25.051 28.4193 25.3435 29.6143 25.5012C30.219 25.5866 30.7712 25.8913 31.1659 26.3575C31.5607 26.8237 31.7704 27.4188 31.7553 28.0296Z" stroke="#EDEDED" stroke-width="2" stroke-linecap="round" stroke-linejoin="round"/>
</svg>
