<svg width="43" height="43" viewBox="0 0 43 43" fill="none" xmlns="http://www.w3.org/2000/svg">
<path d="M1 6.18307L1 37.4597C1 39.9273 2.99536 41.9277 5.45676 41.9277H36.654C39.1154 41.9277 41.1108 39.9273 41.1108 37.4597V6.18307C41.1108 3.71542 39.1154 1.71499 36.654 1.71499H5.45676C2.99536 1.71499 1 3.71542 1 6.18307Z" stroke="#EDEDED" stroke-width="2" stroke-linecap="round" stroke-linejoin="round"/>
<path d="M20.5483 36.1256C28.0545 36.1256 34.1395 29.7503 34.1395 21.886C34.1395 14.0217 28.0545 7.64648 20.5483 7.64648C13.042 7.64648 6.95703 14.0217 6.95703 21.886C6.95703 29.7503 13.042 36.1256 20.5483 36.1256Z" stroke="#EDEDED" stroke-width="2" stroke-linecap="round" stroke-linejoin="round"/>
<path d="M6.95703 21.8848H34.1395" stroke="#EDEDED" stroke-width="2" stroke-linecap="round" stroke-linejoin="round"/>
<path d="M20.5498 7.64648C23.7369 11.5458 25.5481 16.6061 25.6465 21.886C25.5481 27.166 23.7369 32.2263 20.5498 36.1256C17.3628 32.2263 15.5516 27.166 15.4531 21.886C15.5516 16.6061 17.3628 11.5458 20.5498 7.64648Z" stroke="#EDEDED" stroke-width="2" stroke-linecap="round" stroke-linejoin="round"/>
</svg>
