<svg width="43" height="43" viewBox="0 0 43 43" fill="none" xmlns="http://www.w3.org/2000/svg">
<path d="M18.7549 34.5635H32.9883" stroke="#EDEDED" stroke-width="2" stroke-linecap="round" stroke-linejoin="round"/>
<path d="M27.0178 11.6483C27.5403 11.1244 28.2491 10.8301 28.9881 10.8301C29.354 10.8301 29.7163 10.9023 30.0544 11.0427C30.3925 11.1831 30.6996 11.3889 30.9584 11.6483C31.2171 11.9077 31.4224 12.2156 31.5624 12.5545C31.7024 12.8935 31.7745 13.2567 31.7745 13.6236C31.7745 13.9904 31.7024 14.3537 31.5624 14.6926C31.4224 15.0315 31.2171 15.3395 30.9584 15.5989L14.5393 32.0597L9.28516 33.3766L10.5987 28.1091L27.0178 11.6483Z" stroke="#EDEDED" stroke-width="2" stroke-linecap="round" stroke-linejoin="round"/>
<path d="M1 5.80526L1 37.0826C1 39.5503 2.99541 41.5508 5.45686 41.5508H36.6549C39.1164 41.5508 41.1118 39.5503 41.1118 37.0826V5.80526C41.1118 3.33755 39.1164 1.33707 36.6549 1.33707H5.45686C2.99541 1.33707 1 3.33755 1 5.80526Z" stroke="#EDEDED" stroke-width="2" stroke-linecap="round" stroke-linejoin="round"/>
</svg>
