<svg width="33" height="33" viewBox="0 0 33 33" fill="none" xmlns="http://www.w3.org/2000/svg">
<g clip-path="url(#clip0_513_1578)">
<path d="M29.0727 0.788574H4.2442C2.28528 0.788574 0.697266 2.37659 0.697266 4.33551V29.1641C0.697266 31.123 2.28528 32.711 4.2442 32.711H29.0727C31.0317 32.711 32.6197 31.123 32.6197 29.1641V4.33551C32.6197 2.37659 31.0317 0.788574 29.0727 0.788574Z" fill="#4C4C4C"/>
<path fill-rule="evenodd" clip-rule="evenodd" d="M27.5058 6.73678V10.8647L25.0558 10.8711C23.1354 10.8711 22.7654 11.7835 22.7654 13.1169V16.071H27.3399L26.7466 20.6902H22.7654V32.7104H17.9936V20.6902H13.999V16.071H17.9936V12.6639C17.9936 8.70825 20.4047 6.55176 23.9393 6.55176C25.6243 6.55176 27.0783 6.67936 27.5058 6.73678Z" fill="white"/>
</g>
<defs>
<clipPath id="clip0_513_1578">
<rect width="31.9224" height="31.9224" fill="white" transform="translate(0.698242 0.786621)"/>
</clipPath>
</defs>
</svg>
