<svg width="23" height="23" viewBox="0 0 23 23" fill="none" xmlns="http://www.w3.org/2000/svg">
<rect x="-5.03418" y="-5.21338" width="33.3103" height="33.3103" rx="6.93965" fill="#EDEDED"/>
<path d="M10.6253 0.382956C8.48269 0.591146 6.50489 1.38053 4.76998 2.71642C3.92421 3.36701 2.82687 4.59012 2.19363 5.5877C1.92038 6.01709 1.38689 7.11008 1.19605 7.63056C0.983526 8.21175 0.75365 9.10524 0.640881 9.79486C0.506425 10.6406 0.506425 12.2454 0.640881 13.0912C0.836059 14.2883 1.14401 15.2512 1.66882 16.3225C2.24134 17.4892 2.83555 18.3176 3.78975 19.2762C4.74829 20.2304 5.57671 20.8246 6.74344 21.3971C7.81475 21.9219 8.77763 22.2299 9.97472 22.425C10.8205 22.5595 12.4253 22.5595 13.2711 22.425C14.4681 22.2299 15.431 21.9219 16.5023 21.3971C17.6691 20.8246 18.4975 20.2304 19.456 19.2762C20.4102 18.3176 21.0044 17.4892 21.577 16.3225C21.9586 15.5461 22.1495 15.0386 22.3577 14.2579C22.6439 13.1606 22.6916 12.7355 22.7133 10.9312L22.735 9.31776H17.1789H11.6229V11.443V13.5683H14.8932H18.1635L18.0377 13.9023C17.7601 14.6223 17.283 15.403 16.7756 15.9755C16.1423 16.6868 15.4701 17.1986 14.6373 17.602C13.631 18.0921 12.9761 18.2482 11.8397 18.2829C11.1501 18.3046 10.9636 18.2916 10.4995 18.2135C7.60656 17.7191 5.35117 15.4724 4.85672 12.5968C4.73961 11.9028 4.73961 10.9833 4.85672 10.2893C5.35117 7.41369 7.60656 5.16698 10.4995 4.67253C11.1978 4.55542 12.3646 4.57277 13.0108 4.71157C13.8739 4.89807 14.7414 5.26674 15.4354 5.73083C15.6349 5.86962 15.804 5.97805 15.8127 5.97805C15.817 5.97805 16.3072 5.34915 16.897 4.57711C17.4912 3.80941 18.0681 3.05906 18.1809 2.91159L18.389 2.64702L18.0334 2.38678C16.6238 1.37186 14.9192 0.699577 13.1192 0.443678C12.5858 0.369944 11.1241 0.330908 10.6253 0.382956Z" fill="#4C4C4C"/>
</svg>
