<svg width="32" height="32" viewBox="0 0 32 32" fill="none" xmlns="http://www.w3.org/2000/svg">
<g clip-path="url(#clip0_102_10518)">
<path d="M8.76289 0.5125L8.78164 1.03125L9.38164 1.06875C11.4254 1.20625 13.4441 2.24375 14.8129 3.875C15.1191 4.2375 15.6879 5.06875 15.6879 5.15625C15.6879 5.175 15.2941 5.1875 14.8129 5.1875H13.9379V5.6875V6.1875H15.5004H17.0629V4.65625V3.125H16.5316H16.0004V3.3875L15.9941 3.65625L15.7379 3.34375C14.2816 1.58125 12.1504 0.3875 9.93789 0.0937499C9.57539 0.0437499 9.16289 -9.22009e-08 9.01289 -9.22009e-08H8.74414L8.76289 0.5125Z" fill="#EDEDED"/>
<path d="M3.1252 1.03125V1.5625H3.39395L3.65645 1.56875L3.40645 1.76875C1.45645 3.325 0.212695 5.68125 0.0251953 8.18125L-0.0185547 8.75H0.525195H1.0627V8.35625C1.0627 7.5125 1.40645 6.1875 1.8502 5.29375C2.34395 4.31875 3.0377 3.43125 3.8127 2.78125C4.29395 2.3875 5.04395 1.875 5.1502 1.875C5.16895 1.875 5.1877 2.26875 5.1877 2.75V3.625H5.6877H6.1877V2.0625V0.5H4.65645H3.1252V1.03125Z" fill="#EDEDED"/>
<path d="M8.25039 4.3875V5.15L7.96289 4.75625C7.78164 4.51875 7.63789 4.38125 7.58789 4.4C7.53789 4.41875 7.34414 4.55 7.15664 4.69375C6.93164 4.8625 6.83164 4.975 6.86289 5.025C6.89414 5.0625 7.21914 5.49375 7.58789 5.9875L8.25664 6.875L8.23789 7.34375L8.21914 7.8125L7.45664 7.3375L6.68789 6.8625V6.275V5.6875H6.18789H5.68789V5.9375C5.68789 6.075 5.66914 6.1875 5.64414 6.1875C5.61289 6.1875 5.44414 6.0875 5.25664 5.96875C5.06914 5.85 4.91289 5.75625 4.90664 5.76875C4.90039 5.775 4.78164 5.96875 4.63789 6.20625L4.36914 6.625L4.68164 6.825C5.02539 7.03125 5.03789 7.09375 4.75039 7.15625C4.65039 7.18125 4.55039 7.21875 4.53164 7.24375C4.51914 7.275 4.57539 7.50625 4.66289 7.76875L4.81914 8.2375L5.45664 8.025C5.80039 7.90625 6.12539 7.8125 6.17539 7.8125C6.26914 7.8125 7.66289 8.6625 7.71914 8.75C7.75664 8.80625 6.28789 9.75 6.16289 9.75C6.12539 9.75 5.80039 9.65 5.44414 9.53125C4.99414 9.38125 4.80039 9.3375 4.78164 9.39375C4.66289 9.70625 4.50039 10.2187 4.50039 10.2562C4.50039 10.2875 4.61289 10.3437 4.75039 10.3812C4.88789 10.425 5.00039 10.475 5.00039 10.5C5.00039 10.5187 4.89414 10.6 4.76914 10.675C4.63789 10.75 4.49414 10.8312 4.45039 10.8625C4.38789 10.9062 4.42539 11.0125 4.63164 11.3312C4.76914 11.5625 4.91289 11.75 4.94414 11.75C4.97539 11.75 5.15039 11.65 5.34414 11.5312L5.68789 11.3062V11.5937V11.875H6.18789H6.68164L6.70039 11.2687L6.71914 10.6687L7.43789 10.2125C7.83164 9.9625 8.17539 9.75625 8.20664 9.75625C8.23164 9.75 8.25039 9.95625 8.25039 10.2062V10.6687L7.53164 11.625C7.13789 12.15 6.81289 12.5875 6.81289 12.5937C6.81289 12.6125 7.61289 13.1875 7.63789 13.1875C7.65664 13.1875 7.78789 13.0187 7.94414 12.8062L8.21914 12.425L8.23789 13.1812L8.25664 13.9375H8.78164H9.31289V13.175V12.4125L9.60039 12.8C9.75664 13.0125 9.90039 13.1875 9.91289 13.1875C9.93164 13.1875 10.1191 13.05 10.3379 12.8875L10.7379 12.5875L10.0254 11.6375L9.31289 10.6875V10.2125C9.31289 9.95625 9.33789 9.75 9.36289 9.7625C9.39414 9.76875 9.73164 9.975 10.1129 10.2187L10.8129 10.6562V11.2625V11.875H11.3441H11.8754V11.5937V11.3125L12.2191 11.5312C12.4066 11.65 12.5816 11.75 12.6066 11.75C12.6629 11.75 13.1254 11.0312 13.1254 10.9437C13.1254 10.9125 13.0004 10.8062 12.8441 10.7062C12.6879 10.6125 12.5629 10.5125 12.5629 10.4937C12.5629 10.475 12.6754 10.425 12.8191 10.3812C12.9691 10.3375 13.0629 10.275 13.0441 10.2312C13.0316 10.1875 12.9566 9.96875 12.8816 9.7375L12.7441 9.325L12.1129 9.5375C11.7629 9.65625 11.4379 9.75 11.3941 9.75C11.3379 9.75 9.92539 8.9125 9.76914 8.78125C9.75664 8.775 10.1129 8.54375 10.5504 8.26875L11.3504 7.775L12.0504 8.00625L12.7441 8.2375L12.8816 7.825C12.9566 7.59375 13.0316 7.375 13.0441 7.33125C13.0629 7.2875 12.9691 7.225 12.8191 7.18125C12.6754 7.1375 12.5629 7.08125 12.5629 7.05625C12.5629 7.025 12.6879 6.93125 12.8441 6.8375C13.0004 6.75 13.1254 6.64375 13.1254 6.60625C13.1254 6.5625 13.0129 6.35625 12.8754 6.14375L12.6254 5.75L12.2816 5.96875C12.0941 6.0875 11.9254 6.1875 11.9066 6.1875C11.8879 6.1875 11.8754 6.075 11.8754 5.9375V5.6875H11.3441H10.8129V6.29375L10.8066 6.90625L10.0754 7.35625L9.34414 7.80625L9.32539 7.33125L9.30664 6.8625L10.0254 5.90625L10.7379 4.95625L10.3316 4.65L9.91914 4.35L9.78789 4.50625C9.71289 4.59375 9.58164 4.7625 9.48789 4.88125L9.31914 5.09375L9.31289 4.35625V3.625H8.78164H8.25039V4.3875Z" fill="#EDEDED"/>
<path d="M16.5379 8.825C16.5192 8.86875 16.4942 9.1375 16.4754 9.425C16.3442 11.1812 15.5754 12.8875 14.3191 14.2062C13.8379 14.7187 13.0442 15.35 12.6129 15.5687L12.3754 15.6875V14.8125V13.9375H11.8754H11.3754V15.5V17.0625H12.9066H14.4379V16.5312V16H14.1504H13.8691L14.3879 15.5687C14.6754 15.3312 15.0442 14.975 15.2067 14.7812L15.5129 14.4312L19.3629 14.45L23.2192 14.4687L23.6879 14.6937C24.4504 15.0562 24.5817 15.2312 25.5442 17.15C26.0067 18.0812 26.5004 18.9812 26.6379 19.1562C27.2004 19.8625 28.1379 20.5125 29.1817 20.925C29.4754 21.0375 29.7879 21.1687 29.8692 21.2062C30.1254 21.3312 30.5567 21.8187 30.7379 22.1812L30.9067 22.5312L30.9254 25.1C30.9442 27.4 30.9317 27.6812 30.8442 27.775C30.7567 27.8625 30.5629 27.875 29.5379 27.875H28.3317L28.2629 27.525C28.1504 26.9687 27.7817 26.3375 27.2879 25.8437C26.5567 25.125 25.7629 24.7937 24.7504 24.8C23.7629 24.8 22.9754 25.1312 22.2442 25.8687C21.7379 26.375 21.4192 26.925 21.2879 27.5312L21.2192 27.8437H16.0004H10.7817L10.7129 27.5312C10.5817 26.925 10.2629 26.375 9.75665 25.8687C9.0254 25.1312 8.2379 24.8 7.2504 24.8C6.2379 24.7937 5.44415 25.125 4.7129 25.8437C4.21915 26.3375 3.8504 26.9687 3.7379 27.525L3.66915 27.875H2.7879C1.99415 27.875 1.8754 27.8625 1.6254 27.7312C1.46915 27.6562 1.28165 27.4937 1.2004 27.375L1.05665 27.1625L1.0754 24.8437C1.09415 22.5687 1.09415 22.525 1.2379 22.2625C1.31915 22.1125 1.48165 21.8812 1.6004 21.75C1.99415 21.3125 2.2879 21.2187 4.25665 20.8812C6.33165 20.5312 6.51915 20.4625 7.1754 19.85C7.5504 19.4937 9.7504 16.6687 9.7504 16.5437C9.7504 16.5187 9.3754 16.5 8.9254 16.5C7.5379 16.5 6.44415 16.25 5.2629 15.675C4.24415 15.1812 3.1504 14.2625 2.4754 13.3437C2.1379 12.8875 1.8754 12.4812 1.8754 12.4125C1.8754 12.3937 2.26915 12.375 2.7504 12.375H3.6254V11.875V11.375H2.0629H0.5004V12.9062V14.4375H1.0254H1.55665L1.5754 14.175L1.59415 13.9125L2.0129 14.4187C2.4504 14.9437 3.19415 15.6125 3.84415 16.0437C4.8004 16.6812 6.25665 17.2625 7.28165 17.4062C7.45665 17.4312 7.63165 17.475 7.6754 17.4937C7.73165 17.525 7.60665 17.7312 7.2629 18.1937C6.6879 18.95 6.23165 19.3875 5.85665 19.525C5.7129 19.5812 4.8379 19.75 3.90665 19.9062C2.34415 20.1625 2.18165 20.2062 1.7129 20.4312C0.8754 20.8437 0.35665 21.5 0.11915 22.425C0.00040034 22.8937 -0.00584966 23.0812 0.0129003 25.1375C0.0316503 27.2437 0.0379003 27.3562 0.16915 27.6375C0.3504 28.0312 0.76915 28.475 1.15665 28.675C1.4504 28.8312 1.53165 28.8437 2.55665 28.875L3.64415 28.9062L3.7504 29.2875C3.9004 29.85 4.14415 30.3062 4.50665 30.725C5.04415 31.3375 5.5629 31.6562 6.4004 31.8812C6.8129 31.9937 7.1379 32 11.9504 32H17.0692L17.0504 31.4812L17.0317 30.9687L13.4254 30.9375L9.8254 30.9062L10.0879 30.5562C10.3567 30.2 10.6317 29.6187 10.7504 29.1375L10.8192 28.875H16.0004H21.1817L21.2504 29.1375C21.3692 29.6187 21.6442 30.2 21.9129 30.5562L22.1754 30.9062L21.1692 30.9375L20.1567 30.9687L20.1379 31.4812L20.1192 32H26.0629H32.0004V31.4687V30.9375H29.6879C28.4192 30.9375 27.3754 30.9187 27.3754 30.9C27.3754 30.8812 27.4754 30.75 27.5942 30.6062C27.8692 30.2875 28.1129 29.7937 28.2504 29.2875L28.3567 28.9062L29.7254 28.875C31.2504 28.8375 31.3317 28.8187 31.6754 28.4C31.7817 28.275 31.8942 28.05 31.9317 27.9C31.9754 27.7312 32.0004 26.7562 32.0004 25.2312C32.0004 23.0437 31.9879 22.7875 31.8754 22.35C31.6129 21.3125 30.8317 20.4 29.9692 20.125C29.5317 19.9875 28.7192 19.5875 28.3317 19.325C27.6129 18.8375 27.3879 18.5187 26.4254 16.6062C25.6254 15.0187 25.5067 14.8187 25.1629 14.475C24.9379 14.25 24.6004 13.9937 24.3379 13.8625C23.5442 13.4437 23.4942 13.4375 19.6692 13.4375C17.7817 13.4375 16.2504 13.4187 16.2629 13.3875C17.1254 11.6875 17.4629 10.5875 17.5129 9.3125L17.5317 8.78125L17.0442 8.7625C16.6942 8.75 16.5567 8.76875 16.5379 8.825ZM7.7629 25.8812C9.73165 26.2937 10.4629 28.7687 9.0379 30.1937C8.5754 30.6562 8.0504 30.8937 7.4004 30.925C6.54415 30.9687 5.90665 30.7187 5.3504 30.125C4.5379 29.2562 4.43165 27.9687 5.09415 26.9687C5.6879 26.0812 6.70665 25.6625 7.7629 25.8812ZM25.7067 26C27.3754 26.625 27.8817 28.8125 26.6504 30.125C26.0942 30.7187 25.4567 30.9687 24.6004 30.925C23.9504 30.8937 23.4254 30.6562 22.9629 30.1937C21.5629 28.7875 22.2254 26.3875 24.1567 25.8937C24.5754 25.7875 25.2629 25.8312 25.7067 26Z" fill="#EDEDED"/>
<path d="M6.95643 26.8813C6.61893 26.9438 6.37518 27.0751 6.13143 27.3188C5.84393 27.6063 5.73143 27.8563 5.70643 28.3126C5.68143 28.6688 5.70018 28.7626 5.85643 29.0626C6.37518 30.0751 7.66268 30.2251 8.40018 29.3626C9.31268 28.3001 8.33768 26.6126 6.95643 26.8813ZM7.56893 28.0563C7.77518 28.2626 7.78768 28.3688 7.65643 28.6188C7.55643 28.8126 7.45018 28.8751 7.21268 28.8751C6.97518 28.8751 6.83143 28.7751 6.75643 28.5626C6.68143 28.3313 6.75018 28.1126 6.95018 27.9751C7.16268 27.8251 7.36268 27.8563 7.56893 28.0563Z" fill="#EDEDED"/>
<path d="M24.4185 26.9063C23.3123 27.1938 22.8685 28.5126 23.5998 29.3626C24.3373 30.2251 25.6248 30.0751 26.1435 29.0626C26.2998 28.7626 26.3185 28.6688 26.2935 28.3126C26.2623 27.8501 26.156 27.6063 25.8623 27.3063C25.481 26.9313 24.9248 26.7751 24.4185 26.9063ZM25.0498 27.9751C25.2498 28.1126 25.3185 28.3313 25.2435 28.5626C25.1685 28.7751 25.0248 28.8751 24.781 28.8751C24.5435 28.8751 24.406 28.7813 24.3123 28.5626C24.1248 28.1063 24.6435 27.6876 25.0498 27.9751Z" fill="#EDEDED"/>
<path d="M14.4625 18.125C13.3875 18.3375 12.5688 19.2313 12.4125 20.3563L12.375 20.625H12.9063H13.4375V20.45C13.4438 20.0313 13.8688 19.4563 14.3438 19.2438C14.575 19.1375 14.8438 19.125 18.3125 19.125H22.0313L22.3438 19.275C22.875 19.525 23.1563 19.9563 23.225 20.625C23.3125 21.4875 22.9938 22.1938 22.3813 22.5125L22.05 22.6875H19.4188H16.7813L17.3313 22.1375C17.6313 21.8375 17.875 21.5625 17.875 21.525C17.875 21.4938 17.7188 21.3125 17.5313 21.125L17.1875 20.7813L15.9688 22L14.75 23.2188L15.9688 24.4375L17.1875 25.6562L17.5438 25.2938L17.9063 24.9375L17.3125 24.3438L16.7188 23.75H19.2563C20.7 23.75 21.9375 23.725 22.125 23.6875C23.1563 23.4938 23.9625 22.7 24.1875 21.6813C24.2375 21.4625 24.2563 21.0688 24.2375 20.675C24.2125 20.1063 24.1813 19.9625 24.0125 19.6063C23.65 18.825 22.9563 18.2813 22.1313 18.125C21.7313 18.05 14.8438 18.05 14.4625 18.125Z" fill="#EDEDED"/>
<path d="M0.54375 30.975C0.51875 31 0.5 31.2437 0.5 31.5125V32H1.03125H1.56875L1.55 31.4875L1.53125 30.9687L1.0625 30.95C0.8 30.9437 0.56875 30.95 0.54375 30.975Z" fill="#EDEDED"/>
<path d="M2.60625 30.975C2.58125 31 2.5625 31.2437 2.5625 31.5125V32H3.09375H3.63125L3.6125 31.4875L3.59375 30.9687L3.125 30.95C2.8625 30.9437 2.63125 30.95 2.60625 30.975Z" fill="#EDEDED"/>
<path d="M18.0625 31.4688V32H18.5937H19.1312L19.1125 31.4813L19.0937 30.9688L18.5812 30.95L18.0625 30.9313V31.4688Z" fill="#EDEDED"/>
</g>
<defs>
<clipPath id="clip0_102_10518">
<rect width="32" height="32" fill="white"/>
</clipPath>
</defs>
</svg>
