<svg width="32" height="32" viewBox="0 0 32 32" fill="none" xmlns="http://www.w3.org/2000/svg">
<g clip-path="url(#clip0_102_10500)">
<path opacity="0.963" fill-rule="evenodd" clip-rule="evenodd" d="M31.9688 5.34546C31.9688 6.63715 31.9688 7.92877 31.9688 9.22046C31.8767 9.32259 31.7726 9.41634 31.6562 9.50171C31.1567 9.53296 30.6567 9.54334 30.1562 9.53296C30.1562 14.7621 30.1562 19.9913 30.1562 25.2205C30.6359 25.2101 31.1151 25.2205 31.5938 25.2517C31.7514 25.3367 31.8764 25.4513 31.9688 25.5955C31.9688 26.8663 31.9688 28.1371 31.9688 29.408C31.8707 29.5785 31.7249 29.6931 31.5312 29.7517C21.1562 29.7934 10.7812 29.7934 0.40625 29.7517C0.212654 29.6931 0.0668212 29.5785 -0.03125 29.408C-0.03125 28.1371 -0.03125 26.8663 -0.03125 25.5955C0.061087 25.4513 0.186087 25.3367 0.34375 25.2517C0.822462 25.2205 1.30163 25.2101 1.78125 25.2205C1.78125 19.9913 1.78125 14.7621 1.78125 9.53296C1.28082 9.54334 0.780819 9.53296 0.28125 9.50171C0.164896 9.41634 0.0607295 9.32259 -0.03125 9.22046C-0.03125 7.92877 -0.03125 6.63715 -0.03125 5.34546C0.0653763 5.17672 0.211209 5.06214 0.40625 5.00171C1.42687 4.97047 2.44771 4.96005 3.46875 4.97046C3.45834 4.22017 3.46876 3.47017 3.5 2.72046C3.5379 2.52997 3.63165 2.37372 3.78125 2.25171C4.93202 2.17955 6.08827 2.1483 7.25 2.15796C8.36456 2.16838 9.47919 2.17879 10.5938 2.18921C10.8125 2.24129 10.9479 2.37671 11 2.59546C11.0312 3.38686 11.0417 4.17852 11.0312 4.97046C11.8024 4.96006 12.5732 4.97047 13.3438 5.00171C13.7533 5.17233 13.8888 5.47441 13.75 5.90796C13.6771 6.06421 13.5625 6.17879 13.4062 6.25171C9.34381 6.28296 5.28131 6.2934 1.21875 6.28296C1.21875 6.94965 1.21875 7.61627 1.21875 8.28296C11.0521 8.28296 20.8854 8.28296 30.7188 8.28296C30.7188 7.61627 30.7188 6.94965 30.7188 6.28296C26.6562 6.2934 22.5937 6.28296 18.5312 6.25171C18.1807 6.04691 18.0661 5.74482 18.1875 5.34546C18.2657 5.16542 18.4011 5.05084 18.5938 5.00171C19.3643 4.97047 20.1351 4.96006 20.9062 4.97046C20.8958 4.17852 20.9062 3.38686 20.9375 2.59546C20.9896 2.37671 21.125 2.24129 21.3438 2.18921C22.4583 2.17879 23.5729 2.16838 24.6875 2.15796C25.8492 2.1483 27.0055 2.17955 28.1562 2.25171C28.3059 2.37372 28.3996 2.52997 28.4375 2.72046C28.4688 3.47017 28.4792 4.22017 28.4688 4.97046C29.4898 4.96005 30.5106 4.97047 31.5312 5.00171C31.7263 5.06214 31.8721 5.17672 31.9688 5.34546ZM4.78125 3.47046C6.42706 3.47046 8.07294 3.47046 9.71875 3.47046C9.71875 3.97046 9.71875 4.47046 9.71875 4.97046C8.07294 4.97046 6.42706 4.97046 4.78125 4.97046C4.78125 4.47046 4.78125 3.97046 4.78125 3.47046ZM22.2188 3.47046C23.8646 3.47046 25.5104 3.47046 27.1562 3.47046C27.1562 3.97046 27.1562 4.47046 27.1562 4.97046C25.5104 4.97046 23.8646 4.97046 22.2188 4.97046C22.2188 4.47046 22.2188 3.97046 22.2188 3.47046ZM3.09375 9.53296C11.6771 9.53296 20.2604 9.53296 28.8438 9.53296C28.8438 14.7621 28.8438 19.9913 28.8438 25.2205C20.2604 25.2205 11.6771 25.2205 3.09375 25.2205C3.09375 19.9913 3.09375 14.7621 3.09375 9.53296ZM15.7812 13.9705C15.8332 14.8138 15.8644 15.668 15.875 16.533C15.9241 16.7256 16.0387 16.861 16.2188 16.9392C16.928 16.9497 17.6363 16.981 18.3438 17.033C17.6166 18.2911 16.8771 19.5411 16.125 20.783C16.1042 19.9496 16.0833 19.1163 16.0625 18.283C16.0069 18.0572 15.8716 17.901 15.6562 17.8142C14.9688 17.7934 14.2812 17.7725 13.5938 17.7517C14.3481 16.5032 15.0773 15.2428 15.7812 13.9705ZM1.21875 26.533C11.0521 26.533 20.8854 26.533 30.7188 26.533C30.7188 27.1788 30.7188 27.8246 30.7188 28.4705C20.8854 28.4705 11.0521 28.4705 1.21875 28.4705C1.21875 27.8246 1.21875 27.1788 1.21875 26.533Z" fill="#EDEDED"/>
<path opacity="0.886" fill-rule="evenodd" clip-rule="evenodd" d="M15.8437 4.96875C16.4968 5.00398 16.7364 5.33731 16.5625 5.96875C16.3476 6.25506 16.0663 6.34881 15.7187 6.25C15.3681 6.04519 15.2536 5.74311 15.375 5.34375C15.4816 5.1506 15.6379 5.0256 15.8437 4.96875Z" fill="#EDEDED"/>
<path opacity="0.949" fill-rule="evenodd" clip-rule="evenodd" d="M16.4061 10.7794C16.748 10.7579 16.9876 10.9037 17.1248 11.2169C17.1561 12.6959 17.1665 14.1751 17.1561 15.6544C18.0556 15.6275 18.9514 15.6588 19.8436 15.7482C20.1299 15.963 20.2236 16.2443 20.1248 16.5919C18.7656 18.9564 17.3906 21.3105 15.9998 23.6544C15.7008 23.9942 15.357 24.0463 14.9686 23.8107C14.9086 23.722 14.8565 23.6282 14.8123 23.5294C14.7811 22.0504 14.7706 20.5712 14.7811 19.0919C13.9475 19.1024 13.1141 19.0919 12.2811 19.0607C11.8304 18.9202 11.6741 18.618 11.8123 18.1544C13.2031 15.8105 14.5781 13.4564 15.9373 11.0919C16.0729 10.9467 16.2292 10.8425 16.4061 10.7794ZM15.7811 13.9669C15.0771 15.2392 14.3479 16.4997 13.5936 17.7482C14.2811 17.769 14.9686 17.7899 15.6561 17.8107C15.8714 17.8974 16.0068 18.0537 16.0623 18.2794C16.0831 19.1127 16.104 19.9461 16.1248 20.7794C16.8769 19.5375 17.6164 18.2875 18.3436 17.0294C17.6361 16.9774 16.9278 16.9462 16.2186 16.9357C16.0385 16.8575 15.9239 16.7221 15.8748 16.5294C15.8643 15.6645 15.833 14.8103 15.7811 13.9669Z" fill="#EDEDED"/>
<path opacity="0.94" fill-rule="evenodd" clip-rule="evenodd" d="M24.406 15.468C24.84 15.3602 25.1421 15.506 25.3122 15.9055C25.3434 16.1755 25.3538 16.4463 25.3435 16.718C25.7143 16.6798 26.0685 16.7318 26.406 16.8742C26.5847 17.1043 26.6368 17.3647 26.5622 17.6555C26.5131 17.7671 26.4403 17.8608 26.3435 17.9367C26.018 18.024 25.6846 18.0553 25.3435 18.0305C25.3538 18.3021 25.3434 18.5729 25.3122 18.843C24.9963 19.4228 24.6005 19.4853 24.1247 19.0305C24.0374 18.705 24.0061 18.3717 24.031 18.0305C23.7385 18.0408 23.4469 18.0304 23.156 17.9992C22.6326 17.6535 22.591 17.2576 23.031 16.8117C23.3582 16.728 23.6916 16.6968 24.031 16.718C24.0206 16.4255 24.031 16.1339 24.0622 15.843C24.1472 15.6853 24.2618 15.5603 24.406 15.468Z" fill="#EDEDED"/>
<path opacity="0.933" fill-rule="evenodd" clip-rule="evenodd" d="M5.78115 16.7188C6.76053 16.7083 7.73972 16.7188 8.71865 16.75C9.16972 16.9358 9.30509 17.2587 9.1249 17.7188C9.02847 17.8361 8.9139 17.9299 8.78115 18C7.76034 18.0417 6.73947 18.0417 5.71865 18C5.44978 17.8791 5.32478 17.6708 5.34365 17.375C5.33065 17.0452 5.47648 16.8264 5.78115 16.7188Z" fill="#EDEDED"/>
</g>
<defs>
<clipPath id="clip0_102_10500">
<rect width="32" height="32" fill="white"/>
</clipPath>
</defs>
</svg>
