<svg width="32" height="32" viewBox="0 0 32 32" fill="none" xmlns="http://www.w3.org/2000/svg">
<path d="M22.1309 3.85C21.6934 3.96875 21.2809 4.19375 20.8871 4.5375C20.6121 4.775 20.5371 4.8125 20.2809 4.8125C20.1246 4.8125 19.9121 4.85625 19.8184 4.9C19.5559 5.0375 19.2746 5.39375 19.2246 5.64375L19.1809 5.86875L17.3246 5.8875L15.4684 5.90625L15.1184 6.06875C14.6684 6.28125 14.2809 6.66875 14.0809 7.09375L13.9309 7.43125L9.98086 7.45L6.03086 7.46875L5.64336 7.65C5.24336 7.83125 4.78086 8.25625 4.60586 8.6C4.55586 8.7 4.25586 9.5625 3.94336 10.5125C3.62461 11.4687 3.34961 12.25 3.33711 12.25C3.31836 12.25 3.19961 12.1687 3.07461 12.0687C2.74961 11.8187 2.49961 11.75 1.88711 11.75C1.16836 11.75 0.912107 11.8375 0.518357 12.2187C0.262107 12.4687 0.174607 12.6062 0.093357 12.9C-0.094143 13.55 0.137107 14.2187 0.693357 14.6187C0.830857 14.725 1.03086 14.825 1.13711 14.8437L1.33086 14.8875L1.02461 15.075C0.618357 15.325 0.330857 15.6 0.168357 15.9062C0.030857 16.1562 0.030857 16.175 0.030857 20.0312C0.030857 23.8937 0.030857 23.9062 0.168357 24.1625C0.318357 24.4375 0.724607 24.8375 0.924607 24.9C1.03711 24.9375 1.04961 25.0062 1.07461 25.7687C1.09961 26.7187 1.18086 26.95 1.63711 27.3375C2.07461 27.7125 2.36836 27.7625 3.89336 27.7375C5.36211 27.7125 5.49336 27.6812 5.93711 27.2375C6.29336 26.8812 6.37461 26.625 6.37461 25.7937V25.0625H10.1184H13.8621L13.8871 25.8937C13.9059 26.6937 13.9121 26.7312 14.1184 27.1125C14.3559 27.55 14.6746 27.8562 15.1184 28.075L15.4059 28.2188H22.9371H30.4684L30.8621 28.0062C31.2996 27.7687 31.6121 27.4312 31.8246 26.9625L31.9684 26.6562V17.0625V7.46875L31.8059 7.125C31.5996 6.6875 31.1871 6.275 30.7496 6.06875C30.4059 5.90625 30.3996 5.90625 28.5496 5.8875L26.6871 5.86875L26.6246 5.625C26.4934 5.13125 26.0746 4.8125 25.5559 4.8125C25.3434 4.8125 25.2496 4.76875 24.9871 4.5375C24.1871 3.8375 23.1246 3.58125 22.1309 3.85ZM23.5684 4.8875C23.8871 4.99375 24.2871 5.2875 24.4309 5.51875C24.5996 5.7875 24.7934 5.875 25.2496 5.875H25.6246V6.40625V6.9375H22.9371H20.2496V6.40625V5.875H20.6246C21.0746 5.875 21.2746 5.7875 21.4371 5.525C21.5934 5.28125 21.9246 5.01875 22.2371 4.90625C22.5246 4.8 23.2809 4.7875 23.5684 4.8875ZM19.2434 7.1875C19.3371 7.5 19.5934 7.80625 19.8559 7.9125C20.0184 7.98125 20.6496 8 22.9434 8C25.4684 8 25.8496 7.9875 26.0371 7.9C26.3184 7.76875 26.5434 7.49375 26.6246 7.1875L26.6934 6.9375H28.3746C29.4059 6.9375 30.1246 6.9625 30.2309 7.00625C30.4684 7.09375 30.7496 7.3625 30.8496 7.60625C30.9246 7.775 30.9371 9.34375 30.9371 17.075V26.3375L30.8059 26.6062C30.7184 26.7875 30.5871 26.9312 30.4121 27.0312L30.1434 27.1875H22.9309H15.7184L15.4684 27.0437C15.3059 26.9562 15.1684 26.8125 15.0809 26.625L14.9371 26.35V17.0562V7.76875L15.0809 7.5C15.1809 7.3125 15.3121 7.18125 15.4996 7.08125C15.7621 6.94375 15.8184 6.9375 17.4684 6.9375H19.1684L19.2434 7.1875ZM13.8746 11.2187V13.875H8.89961C4.94336 13.875 3.93086 13.8562 3.94961 13.7937C3.96836 13.7562 4.32461 12.6812 4.74961 11.4187C5.17461 10.15 5.57461 9.04375 5.64336 8.95625C5.71211 8.86875 5.85586 8.74375 5.96211 8.68125C6.14336 8.56875 6.34336 8.5625 10.0184 8.5625H13.8746V11.2187ZM2.47461 12.9562C2.61836 13.0812 2.64961 13.1687 2.67461 13.4875L2.69961 13.875H2.06211C1.44336 13.875 1.42461 13.8687 1.24336 13.6937C1.04961 13.5 1.01836 13.325 1.13711 13.1062C1.26211 12.8687 1.38711 12.8187 1.85586 12.8125C2.23711 12.8125 2.33086 12.8312 2.47461 12.9562ZM13.8621 15.7312L13.8434 16.5312L10.8746 16.5625L7.90586 16.5937L7.59336 16.7562C6.96836 17.0937 6.54961 17.6562 6.43711 18.325C6.34336 18.9062 6.53711 19.3812 6.95586 19.6125C7.13711 19.7062 7.46836 19.7187 10.5184 19.7375L13.8746 19.7562V20.5312V21.3125H10.9059C7.77461 21.3125 7.64336 21.325 7.53711 21.5937C7.45586 21.8062 7.49961 22.0875 7.63711 22.2312L7.76836 22.375H10.8246H13.8746V23.1875V24H7.64961H1.42461L1.24336 23.8187L1.06211 23.6375V20.0375V16.4437L1.20586 16.2875C1.28086 16.2 1.79336 15.8625 2.34336 15.5312L3.34336 14.9375H8.61211H13.8809L13.8621 15.7312ZM13.8746 18.1562V18.6875H10.6871H7.49961V18.5062C7.49961 18.2812 7.72461 17.95 7.99336 17.7687L8.20586 17.625H11.0371H13.8746V18.1562ZM5.31211 25.7062C5.31211 26.3187 5.30586 26.3625 5.14961 26.5062C4.99336 26.6562 4.98086 26.6562 3.71211 26.6562C2.11211 26.6562 2.16836 26.6875 2.13711 25.7187L2.11211 25.0625H3.71211H5.31211V25.7062Z" fill="#EDEDED"/>
<path d="M20.4935 9.70748C20.4373 9.75123 19.9873 10.3887 19.4935 11.1387L18.5873 12.4887L18.206 12.12C17.8873 11.8137 17.7873 11.7512 17.606 11.7512C17.4373 11.7512 17.3498 11.795 17.2248 11.945C16.9435 12.2762 16.9935 12.3825 17.731 13.1387C18.0998 13.5137 18.4685 13.8325 18.5498 13.8575C18.881 13.9387 19.006 13.8012 20.181 12.045C21.4123 10.195 21.4623 10.0825 21.156 9.78248C20.9873 9.61373 20.6623 9.57623 20.4935 9.70748Z" fill="#EDEDED"/>
<path d="M22.5809 10.825C22.3996 11.025 22.3684 11.1562 22.4496 11.375C22.5746 11.7437 22.6184 11.75 25.3684 11.75H27.8621L28.0559 11.5875C28.3059 11.3812 28.3246 11.0687 28.0934 10.8437L27.9434 10.6875H25.3246H22.7059L22.5809 10.825Z" fill="#EDEDED"/>
<path d="M22.6373 12.9125C22.556 12.9687 22.4685 13.0812 22.431 13.1625C22.3498 13.3812 22.506 13.7312 22.7185 13.8125C22.8123 13.85 23.5935 13.875 24.5373 13.875H26.1998L26.381 13.6937C26.6123 13.4562 26.6248 13.1812 26.406 12.9687L26.256 12.8125H24.5185C23.0248 12.8125 22.756 12.825 22.6373 12.9125Z" fill="#EDEDED"/>
<path d="M20.5248 15.025C20.456 15.075 19.9998 15.7188 19.506 16.4625L18.606 17.8125L18.2498 17.475C18.0498 17.2875 17.8123 17.1125 17.7123 17.0875C17.3685 17 16.9998 17.3688 17.0873 17.725C17.1185 17.8375 17.3685 18.1438 17.7748 18.5438C18.3248 19.0875 18.4498 19.1875 18.6185 19.1875C18.731 19.1875 18.8685 19.1625 18.931 19.1313C18.9873 19.1 19.5498 18.3 20.1748 17.3625C21.4123 15.5 21.4623 15.3938 21.156 15.0938C20.9873 14.9188 20.7185 14.8875 20.5248 15.025Z" fill="#EDEDED"/>
<path d="M22.5871 16.15C22.3434 16.3562 22.3434 16.7062 22.5871 16.9125L22.7559 17.0625H25.3496H27.9434L28.0934 16.9062C28.1996 16.8062 28.2496 16.6875 28.2496 16.5312C28.2496 16.375 28.1996 16.2562 28.0934 16.1562L27.9434 16H25.3496H22.7559L22.5871 16.15Z" fill="#EDEDED"/>
<path d="M22.6996 18.1875C22.5058 18.2687 22.3558 18.6312 22.4308 18.8375C22.5621 19.175 22.6308 19.1875 24.5183 19.1875H26.2558L26.4058 19.0312C26.6246 18.8187 26.6121 18.5437 26.3808 18.3062L26.1996 18.125L24.5183 18.1312C23.5996 18.1312 22.7808 18.1562 22.6996 18.1875Z" fill="#EDEDED"/>
<path d="M20.5807 20.3114C20.4994 20.3426 20.0744 20.9176 19.5557 21.6989C19.0682 22.4301 18.6494 23.0551 18.6182 23.0926C18.5807 23.1239 18.4244 23.0114 18.1994 22.7926C17.8369 22.4364 17.6432 22.3614 17.3432 22.4739C17.1869 22.5364 17.0494 22.8614 17.0932 23.0551C17.1369 23.2676 18.3619 24.4926 18.5369 24.5051C18.7494 24.5176 18.9057 24.4864 18.9932 24.4176C19.0432 24.3739 19.5869 23.5864 20.1994 22.6676C21.0744 21.3551 21.3119 20.9489 21.3119 20.7926C21.3057 20.5676 21.2244 20.4301 21.0182 20.3239C20.8619 20.2364 20.7682 20.2364 20.5807 20.3114Z" fill="#EDEDED"/>
<path d="M22.6807 21.4063C22.4994 21.5063 22.3557 21.8188 22.4182 21.9875C22.4369 22.0438 22.5119 22.1563 22.5807 22.2313L22.7057 22.375H25.3244H27.9432L28.0932 22.2188C28.3057 22.0125 28.3057 21.7 28.0869 21.4938L27.9244 21.3438L25.3869 21.3313C23.2619 21.3188 22.8182 21.3313 22.6807 21.4063Z" fill="#EDEDED"/>
<path d="M22.7622 23.5082C22.4685 23.5957 22.3372 23.9082 22.4622 24.2144C22.5997 24.5457 22.806 24.5769 24.6685 24.5519L26.2622 24.5332L26.4122 24.3582C26.606 24.1332 26.606 23.8707 26.4122 23.6457L26.2622 23.4707L24.6122 23.4582C23.6747 23.4519 22.881 23.4707 22.7622 23.5082Z" fill="#EDEDED"/>
<path d="M3.3125 16.0546C2.88125 16.1859 2.5 16.5109 2.275 16.9359C2.175 17.1234 2.15625 17.2984 2.15625 18.1234C2.15625 19.0734 2.15625 19.0984 2.3375 19.4234C2.64375 19.9671 3.1125 20.2421 3.75 20.2421C4.36875 20.2484 4.89375 19.9109 5.1625 19.3421C5.3 19.0609 5.3125 18.9484 5.3125 18.1171C5.3125 17.2671 5.3 17.1921 5.15 16.8859C5.0625 16.7046 4.8875 16.4796 4.7625 16.3734C4.375 16.0546 3.7625 15.9171 3.3125 16.0546ZM3.99375 17.1546C4.09375 17.2046 4.1875 17.2921 4.2125 17.3421C4.23125 17.3984 4.25 17.7671 4.25 18.1609C4.25 18.8421 4.24375 18.8859 4.09375 19.0296C3.86875 19.2609 3.55625 19.2421 3.35 18.9921C3.19375 18.8109 3.1875 18.7609 3.1875 18.1109C3.1875 17.4359 3.1875 17.4234 3.36875 17.2421C3.575 17.0421 3.73125 17.0171 3.99375 17.1546Z" fill="#EDEDED"/>
<path d="M3.06235 21.3562C2.69985 21.4875 2.5811 21.9062 2.8186 22.2125C2.9436 22.375 2.9561 22.375 3.72485 22.375C4.41235 22.375 4.51235 22.3625 4.62485 22.25C4.88735 21.9875 4.82485 21.5562 4.49985 21.3937C4.3436 21.3125 3.2561 21.2875 3.06235 21.3562Z" fill="#EDEDED"/>
</svg>
