<svg width="32" height="32" viewBox="0 0 32 32" fill="none" xmlns="http://www.w3.org/2000/svg">
<g clip-path="url(#clip0_102_10530)">
<path d="M13.9377 1.54452V3.10702L13.344 3.15077C7.58146 3.55702 2.47521 7.59452 0.693957 13.1508C0.443957 13.9383 0.287707 14.5945 0.143957 15.5008C-0.00604273 16.4945 -0.00604273 18.6195 0.150207 19.6258C0.793957 23.7883 3.08771 27.3633 6.60646 29.6695C8.25646 30.757 10.319 31.532 12.3752 31.8508C13.3815 32.007 15.5065 32.007 16.5002 31.857C19.7815 31.3445 22.569 29.9133 24.8127 27.5883C27.1815 25.132 28.619 21.9508 28.8502 18.657L28.894 18.0633H30.4565H32.019L31.9815 16.9883C31.8127 12.4508 30.0252 8.33827 26.844 5.15702C23.6627 1.97577 19.5502 0.188269 15.019 0.0195186L13.9377 -0.0179814V1.54452ZM16.419 1.15702C18.4065 1.40077 20.1565 1.93827 21.9627 2.85702C25.4815 4.65077 28.3315 7.78202 29.8127 11.5008C30.4377 13.0633 30.9377 15.3883 30.9377 16.7008V17.0633H27.6002H24.2565L24.219 16.7008C23.9752 14.332 23.0002 12.2633 21.369 10.632C19.7315 8.99452 17.769 8.06952 15.3002 7.77577L15.0002 7.74452V4.40077V1.06327H15.3315C15.5127 1.06327 16.0002 1.10702 16.419 1.15702ZM13.9377 5.26327V6.40702L13.419 6.58827C12.444 6.92577 10.5752 7.88827 10.1127 8.29452C10.0127 8.38202 10.0315 8.41952 10.3252 8.78202L10.6377 9.17577L11.1502 8.84452C11.7377 8.46327 12.6065 8.01952 13.3627 7.71327C13.6502 7.59452 13.9002 7.50077 13.9127 7.50077C13.9252 7.50077 13.9377 7.78202 13.9377 8.11952V8.73827L14.644 8.77577C16.1002 8.86327 17.1315 9.11952 18.2815 9.68202C20.0502 10.5445 21.4565 11.9508 22.3127 13.7133C22.8815 14.8695 23.1377 15.9008 23.2252 17.357L23.2627 18.0633H24.0315C24.7127 18.0633 24.8065 18.0758 24.8377 18.1695C24.9565 18.5508 25.1315 19.582 25.1877 20.2508C25.2252 20.682 25.2752 21.182 25.2877 21.3633L25.319 21.6883H25.8252H26.3315L26.294 20.8883C26.244 19.982 26.0752 18.832 25.894 18.1695C25.869 18.0695 25.944 18.0633 26.8752 18.0633H27.8815L27.8502 18.3258C27.8315 18.4758 27.8002 18.7883 27.7815 19.032C27.6565 20.4695 27.0315 22.4633 26.2752 23.8633C24.169 27.7383 20.444 30.2883 16.044 30.8758C15.4127 30.957 13.5565 30.957 12.8752 30.8758C10.5565 30.5883 8.33771 29.7008 6.50021 28.332C3.50021 26.0883 1.58146 22.807 1.12521 19.1258C1.04396 18.4445 1.04396 16.5883 1.12521 15.957C1.71271 11.557 4.26271 7.83202 8.13771 5.72577C9.80021 4.82577 11.669 4.30077 13.8315 4.13202C13.9315 4.12577 13.9377 4.21952 13.9377 5.26327Z" fill="#EDEDED"/>
<path d="M16 2.59531V3.13281L16.5188 3.11406L17.0313 3.09531L17.05 2.57656L17.0688 2.06406H16.5313H16V2.59531Z" fill="#EDEDED"/>
<path d="M18.0253 4.07662C17.9691 4.32662 17.9191 4.54537 17.9253 4.56412C17.9253 4.57662 18.2316 4.69537 18.6066 4.81412C19.4503 5.10162 20.0691 5.36412 20.7503 5.73287C23.7191 7.32662 26.0566 10.1016 27.1253 13.2829C27.4066 14.1329 27.3628 14.1016 28.0253 13.8891L28.3628 13.7829L28.2191 13.3141C26.8941 8.91412 23.3878 5.32037 18.9816 3.85162C18.6128 3.72662 18.2753 3.62662 18.2253 3.62662C18.1691 3.62662 18.1003 3.78912 18.0253 4.07662Z" fill="#EDEDED"/>
<path d="M26.3563 14.975C26.3313 15 26.3125 15.2437 26.3125 15.5125V16H26.8438H27.3813L27.3625 15.4812L27.3438 14.9687L26.875 14.95C26.6125 14.9437 26.3813 14.95 26.3563 14.975Z" fill="#EDEDED"/>
<path d="M28.4188 14.975C28.3938 15 28.375 15.2437 28.375 15.5125V16H28.9063H29.4438L29.425 15.4812L29.4063 14.9687L28.9375 14.95C28.675 14.9437 28.4438 14.95 28.4188 14.975Z" fill="#EDEDED"/>
<path d="M7.54997 7.89609C7.39372 8.10859 7.24997 8.31484 7.23122 8.35234C7.20622 8.39609 7.35622 8.53984 7.60622 8.70859L8.01872 8.99609L8.31872 8.59609C8.48747 8.37734 8.62497 8.17109 8.62497 8.14609C8.61872 8.10234 8.09372 7.66484 7.90622 7.55234C7.86247 7.52734 7.72497 7.65234 7.54997 7.89609Z" fill="#EDEDED"/>
<path d="M13.4375 9.35262C12.1938 9.57762 11.6438 9.74637 10.8438 10.1401C8.20627 11.4526 6.53752 13.8714 6.24377 16.8151C5.98752 19.3964 7.05002 22.0401 9.03752 23.7651C11.3375 25.7526 14.425 26.3214 17.325 25.2839C19.9125 24.3526 21.9438 21.9839 22.5438 19.1901C22.7 18.4464 22.7 16.6901 22.5438 15.9401C22.1938 14.2901 21.4375 12.8901 20.275 11.7276C19.1313 10.5839 17.7438 9.82762 16.125 9.47137C15.675 9.37137 13.8 9.29012 13.4375 9.35262ZM15.8688 10.4776C17.325 10.7776 18.4563 11.3901 19.5375 12.4651C20.3938 13.3214 20.9125 14.1401 21.2688 15.1901C21.6313 16.2651 21.75 17.3964 21.6 18.4714C21.1063 22.1026 18.0938 24.7526 14.4625 24.7526C13.0125 24.7526 11.6625 24.3526 10.4375 23.5589C9.91252 23.2151 8.78752 22.0901 8.44377 21.5651C7.23127 19.6901 6.92502 17.4401 7.59377 15.3151C8.28752 13.1276 10.0688 11.3776 12.3125 10.6589C13.3938 10.3151 14.75 10.2464 15.8688 10.4776Z" fill="#EDEDED"/>
<path d="M13.7626 11.5369C12.8376 11.9931 12.6376 13.2556 13.3688 13.9869C13.6563 14.2744 13.9001 14.3806 14.3251 14.4181C14.9501 14.4806 15.5376 14.1556 15.8313 13.5994C16.0188 13.2431 16.0188 12.5681 15.8313 12.2181C15.4313 11.4619 14.5188 11.1619 13.7626 11.5369ZM14.6813 12.4681C14.8751 12.5681 14.9376 12.6744 14.9376 12.9119C14.9376 13.1494 14.8376 13.2931 14.6251 13.3681C14.1626 13.5244 13.7626 13.0306 14.0376 12.6369C14.1251 12.5056 14.3188 12.3869 14.4563 12.3806C14.4813 12.3744 14.5876 12.4181 14.6813 12.4681Z" fill="#EDEDED"/>
<path d="M13.6816 15.0935C13.2379 15.256 12.9379 15.4435 12.6379 15.7435C11.1691 17.2123 11.9879 19.7185 14.0504 20.0748C15.1691 20.2623 16.2816 19.6748 16.7754 18.631C17.1066 17.9248 17.0754 16.981 16.7066 16.3185C16.3754 15.7373 15.8129 15.2748 15.2129 15.0935C14.8379 14.981 13.9879 14.981 13.6816 15.0935ZM14.9691 16.106C15.5566 16.306 16.0004 16.9435 16.0004 17.5873C16.0004 18.106 15.5504 18.756 15.0504 18.9685C14.1941 19.3248 13.1191 18.7748 12.9629 17.906C12.8254 17.106 13.1316 16.4873 13.8441 16.1498C14.2129 15.9748 14.5504 15.9623 14.9691 16.106Z" fill="#EDEDED"/>
<path d="M9.26943 16.1015C8.95068 16.2202 8.56943 16.5765 8.40693 16.9077C8.23818 17.2577 8.24443 17.889 8.41943 18.2202C8.71318 18.7765 9.20693 19.0765 9.82568 19.0702C10.6819 19.0702 11.3319 18.414 11.3319 17.564C11.3319 16.964 10.9819 16.4077 10.4444 16.1515C10.1444 16.0015 9.59443 15.9827 9.26943 16.1015ZM10.1819 17.2265C10.3632 17.4577 10.3507 17.7202 10.1507 17.9077C9.67568 18.3452 9.00693 17.6765 9.45068 17.2077C9.64443 17.0015 10.0132 17.0077 10.1819 17.2265Z" fill="#EDEDED"/>
<path d="M18.6876 16.0552C17.9439 16.2989 17.5126 16.9364 17.5814 17.6739C17.6189 18.0989 17.7251 18.3427 18.0126 18.6302C18.7439 19.3614 20.0064 19.1614 20.4626 18.2364C20.8376 17.4864 20.5376 16.5614 19.7876 16.1739C19.5189 16.0364 18.9376 15.9739 18.6876 16.0552ZM19.3439 17.0989C19.4939 17.1614 19.6314 17.4739 19.5876 17.6552C19.5376 17.8489 19.2814 18.0614 19.1001 18.0614C18.9189 18.0614 18.6939 17.8927 18.6251 17.7114C18.5564 17.5364 18.6439 17.2552 18.7939 17.1364C18.9064 17.0552 19.1751 17.0364 19.3439 17.0989Z" fill="#EDEDED"/>
<path d="M14.0498 20.7148C13.5811 20.8398 13.1686 21.2148 12.9998 21.6648C12.8998 21.9273 12.9123 22.5148 13.0311 22.7898C13.2686 23.3586 13.8123 23.7148 14.4373 23.7148C15.8186 23.7211 16.4998 22.1148 15.5436 21.1273C15.1686 20.7398 14.5623 20.5711 14.0498 20.7148ZM14.7748 21.8211C15.1248 22.0961 14.9061 22.6898 14.4561 22.6898C13.9998 22.6898 13.7811 22.1898 14.0936 21.8523C14.2811 21.6523 14.5436 21.6398 14.7748 21.8211Z" fill="#EDEDED"/>
<path d="M6.3125 9.84298C6.175 10.0992 6.0625 10.3305 6.0625 10.3617C6.0625 10.418 6.925 10.8492 6.95625 10.8055C7.00625 10.7492 7.4375 9.94298 7.4375 9.91798C7.4375 9.89923 7.24375 9.77423 7 9.63673L6.56875 9.38673L6.3125 9.84298Z" fill="#EDEDED"/>
<path d="M5.37556 11.9804C5.26931 12.2741 5.19431 12.5241 5.20056 12.5304C5.21306 12.5429 5.42556 12.6116 5.68181 12.6866C6.05681 12.7991 6.15056 12.8054 6.19431 12.7366C6.31306 12.5554 6.51306 11.8616 6.46306 11.8179C6.43181 11.7866 6.21931 11.6929 5.98806 11.6054L5.56931 11.4491L5.37556 11.9804Z" fill="#EDEDED"/>
<path d="M2.59414 13.9812C2.73164 16.025 3.02539 17.4312 3.62539 18.9437C3.96289 19.7812 4.56289 20.9562 4.95039 21.5437L5.26289 22L5.42539 21.8812C5.51914 21.8125 5.70039 21.6687 5.83164 21.55L6.06289 21.3437L5.78164 20.9125C5.12539 19.9062 4.42539 18.3062 4.09414 17.0437C3.86914 16.1937 3.69414 15.1 3.65039 14.2187L3.60664 13.4375H3.08164H2.55664L2.59414 13.9812Z" fill="#EDEDED"/>
<path d="M22.5378 22.7957C22.4503 23.0582 22.3816 23.277 22.3941 23.2832C22.4503 23.327 23.3253 23.6332 23.3378 23.6207C23.4066 23.5207 23.6941 22.6145 23.6628 22.5832C23.6066 22.527 22.9316 22.3145 22.8003 22.3145C22.7316 22.3145 22.6503 22.452 22.5378 22.7957Z" fill="#EDEDED"/>
<path d="M4.725 23.7325C4.56875 23.9325 4.4375 24.1138 4.4375 24.1388C4.4375 24.1888 5.3125 24.8388 5.3375 24.8075C5.4 24.7263 5.875 24.0013 5.875 23.9825C5.875 23.9575 5.0875 23.3763 5.04375 23.3763C5.025 23.3763 4.88125 23.5388 4.725 23.7325Z" fill="#EDEDED"/>
<path d="M21.7188 24.6875C21.6 24.925 21.5 25.1437 21.5 25.175C21.5 25.225 22.25 25.6875 22.3313 25.6875C22.3563 25.6875 22.4875 25.4625 22.625 25.1875L22.8813 24.6812L22.6438 24.5812C22.5125 24.5312 22.3 24.4312 22.175 24.3687L21.9375 24.25L21.7188 24.6875Z" fill="#EDEDED"/>
<path d="M6.56283 24.9562C6.44408 25.1687 6.33783 25.375 6.32533 25.4062C6.31283 25.4562 7.17533 25.9375 7.28158 25.9375C7.30033 25.9375 7.40658 25.7437 7.53158 25.5062C7.69408 25.175 7.72533 25.0625 7.66908 25.0125C7.60033 24.9562 6.83783 24.5625 6.80033 24.5625C6.78783 24.5625 6.68158 24.7375 6.56283 24.9562Z" fill="#EDEDED"/>
<path d="M8.5378 25.9508C8.4503 26.1945 8.39405 26.4195 8.41905 26.4445C8.4503 26.4633 8.6878 26.557 8.9503 26.6445L9.43155 26.8008L9.53155 26.482C9.5878 26.3008 9.65655 26.082 9.6878 25.9883C9.7378 25.8258 9.73155 25.8195 9.2628 25.6633C8.99405 25.5758 8.7628 25.5008 8.74405 25.5008C8.7253 25.5008 8.63155 25.7008 8.5378 25.9508Z" fill="#EDEDED"/>
<path d="M17.75 26.2562C15.9375 27.4437 13.45 28.2312 11.1125 28.3562L10.3125 28.3937V28.9187V29.4375L10.925 29.4062C13.6562 29.2375 15.8562 28.5937 18.025 27.3125C18.3187 27.1375 18.6375 26.9312 18.725 26.85L18.9 26.7062L18.6 26.3375C18.4312 26.1375 18.2812 25.9625 18.2562 25.9562C18.2375 25.95 18.0062 26.0875 17.75 26.2562Z" fill="#EDEDED"/>
<path d="M20.5693 26.5188C20.4193 26.7313 20.3068 26.9313 20.3193 26.9688C20.3443 27.05 20.9756 27.5625 21.0443 27.5625C21.1068 27.5563 21.6881 26.775 21.6881 26.6938C21.6881 26.6438 20.9381 26.1188 20.8693 26.125C20.8568 26.1313 20.7193 26.3063 20.5693 26.5188Z" fill="#EDEDED"/>
</g>
<defs>
<clipPath id="clip0_102_10530">
<rect width="32" height="32" fill="white"/>
</clipPath>
</defs>
</svg>
