<svg width="32" height="32" viewBox="0 0 32 32" fill="none" xmlns="http://www.w3.org/2000/svg">
<path opacity="0.945" fill-rule="evenodd" clip-rule="evenodd" d="M10.3438 1.15625C12.823 1.14583 15.3022 1.15625 17.7812 1.1875C17.8929 1.23653 17.9866 1.30945 18.0625 1.40625C18.0938 2.61441 18.1042 3.82274 18.0938 5.03125C19.0521 5.03125 20.0104 5.03125 20.9688 5.03125C20.9484 4.71258 20.9797 4.40008 21.0625 4.09375C21.1189 4.01866 21.1918 3.96658 21.2812 3.9375C22.1977 3.90626 23.1144 3.89584 24.0312 3.90625C23.8112 2.71779 24.2279 1.85321 25.2812 1.3125C25.4243 1.26112 25.5701 1.21945 25.7188 1.1875C26.4167 1.17708 27.1146 1.16667 27.8125 1.15625C28.5579 1.14705 29.2974 1.1783 30.0312 1.25C30.1063 1.30641 30.1584 1.37933 30.1875 1.46875C30.2292 5.71875 30.2292 9.96875 30.1875 14.2188C30.1584 14.3082 30.1063 14.3811 30.0312 14.4375C29.2959 14.5085 28.5563 14.5398 27.8125 14.5313C27.1354 14.5208 26.4583 14.5104 25.7812 14.5C24.4073 14.1191 23.8239 13.2128 24.0312 11.7813C23.1352 11.7917 22.2393 11.7813 21.3438 11.75C21.1667 11.6979 21.0521 11.5833 21 11.4063C20.9688 11.1571 20.9584 10.9071 20.9688 10.6563C20.0104 10.6563 19.0521 10.6563 18.0938 10.6563C18.1042 12.5106 18.0938 14.3647 18.0625 16.2188C17.6211 17.4663 16.7357 17.9872 15.4062 17.7812C15.4167 20.9063 15.4062 24.0313 15.375 27.1562C15.0768 27.8627 14.5455 28.1336 13.7812 27.9688C13.8086 28.9723 13.7774 29.9723 13.6875 30.9688C13.6116 31.0656 13.5179 31.1384 13.4062 31.1875C12.0521 31.2292 10.6979 31.2292 9.34375 31.1875C9.25431 31.1584 9.18144 31.1063 9.125 31.0312C9.03312 30.0164 9.00188 28.9956 9.03125 27.9688C8.21269 28.1525 7.66063 27.8608 7.375 27.0938C7.34375 22.2188 7.33331 17.3438 7.34375 12.4688C5.9061 12.4792 4.4686 12.4688 3.03125 12.4375C1.71028 12.0954 1.00195 11.2412 0.90625 9.875C1.04549 8.33994 1.87882 7.48581 3.40625 7.3125C4.71859 7.28125 6.03109 7.27081 7.34375 7.28125C7.33331 6.23938 7.34375 5.19771 7.375 4.15625C7.70919 2.49919 8.69875 1.49919 10.3438 1.15625ZM10.4688 2.21875C12.6562 2.21875 14.8438 2.21875 17.0312 2.21875C17.0417 6.82294 17.0312 11.4271 17 16.0313C16.8188 16.4625 16.4959 16.7021 16.0312 16.75C13.4897 16.7813 10.948 16.7917 8.40625 16.7813C8.40625 15.3438 8.40625 13.9063 8.40625 12.4688C9.36481 12.4792 10.3231 12.4688 11.2812 12.4375C12.5876 12.0996 13.2959 11.2559 13.4062 9.90625C13.2816 8.35463 12.4483 7.49006 10.9062 7.3125C10.0732 7.28125 9.23981 7.27081 8.40625 7.28125C8.39581 6.28106 8.40625 5.28103 8.4375 4.28125C8.6675 3.14503 9.34462 2.45753 10.4688 2.21875ZM25.8438 2.21875C26.9479 2.21875 28.0521 2.21875 29.1562 2.21875C29.1562 5.96875 29.1562 9.71875 29.1562 13.4688C28.0727 13.4792 26.9894 13.4688 25.9062 13.4375C25.5312 13.354 25.2708 13.1353 25.125 12.7813C25.0833 9.48956 25.0833 6.19792 25.125 2.90625C25.2773 2.57664 25.5169 2.34747 25.8438 2.21875ZM22.0312 4.96875C22.6979 4.96875 23.3646 4.96875 24.0312 4.96875C24.0312 6.88544 24.0312 8.80206 24.0312 10.7188C23.3646 10.7188 22.6979 10.7188 22.0312 10.7188C22.0312 8.80206 22.0312 6.88544 22.0312 4.96875ZM18.0938 6.09375C19.0521 6.09375 20.0104 6.09375 20.9688 6.09375C20.9688 7.26044 20.9688 8.42706 20.9688 9.59375C20.0104 9.59375 19.0521 9.59375 18.0938 9.59375C18.0938 8.42706 18.0938 7.26044 18.0938 6.09375ZM3.40625 8.34375C5.90634 8.33331 8.40631 8.34375 10.9062 8.375C11.8587 8.55631 12.3275 9.12925 12.3125 10.0938C12.1906 10.7574 11.8051 11.1845 11.1562 11.375C8.48956 11.4167 5.82292 11.4167 3.15625 11.375C2.17152 11.0353 1.80693 10.3582 2.0625 9.34375C2.34402 8.78025 2.79194 8.44694 3.40625 8.34375ZM8.40625 17.7812C10.3854 17.7812 12.3646 17.7812 14.3438 17.7812C14.3438 18.6562 14.3438 19.5312 14.3438 20.4062C12.3646 20.4062 10.3854 20.4062 8.40625 20.4062C8.40625 19.5312 8.40625 18.6562 8.40625 17.7812ZM8.40625 21.4688C10.3854 21.4688 12.3646 21.4688 14.3438 21.4688C14.3646 23.2817 14.3438 25.0942 14.2812 26.9062C12.3672 26.9787 10.4506 26.9891 8.53125 26.9375C8.5 26.9062 8.46875 26.875 8.4375 26.8438C8.40625 25.0522 8.39581 23.2606 8.40625 21.4688ZM10.0938 27.9688C10.9688 27.9688 11.8438 27.9688 12.7188 27.9688C12.7188 28.6979 12.7188 29.4271 12.7188 30.1562C11.8438 30.1562 10.9688 30.1562 10.0938 30.1562C10.0938 29.4271 10.0938 28.6979 10.0938 27.9688Z" fill="#EDEDED"/>
<path opacity="0.9" fill-rule="evenodd" clip-rule="evenodd" d="M11.4688 3.96875C11.8229 3.96875 12.1771 3.96875 12.5312 3.96875C12.5312 4.42708 12.5312 4.88542 12.5312 5.34375C12.1771 5.34375 11.8229 5.34375 11.4688 5.34375C11.4688 4.88542 11.4688 4.42708 11.4688 3.96875Z" fill="#EDEDED"/>
<path opacity="0.9" fill-rule="evenodd" clip-rule="evenodd" d="M14.3438 3.96875C14.6979 3.96875 15.0521 3.96875 15.4062 3.96875C15.4062 4.42708 15.4062 4.88542 15.4062 5.34375C15.0521 5.34375 14.6979 5.34375 14.3438 5.34375C14.3438 4.88542 14.3438 4.42708 14.3438 3.96875Z" fill="#EDEDED"/>
</svg>
