<svg width="32" height="32" viewBox="0 0 32 32" fill="none" xmlns="http://www.w3.org/2000/svg">
<g clip-path="url(#clip0_102_10617)">
<path opacity="0.961" fill-rule="evenodd" clip-rule="evenodd" d="M31.9688 14.2172C31.9688 14.3839 31.9688 14.5505 31.9688 14.7172C31.9178 14.82 31.8344 14.8928 31.7188 14.936C31.1562 14.9776 30.5938 14.9776 30.0312 14.936C29.5208 14.7589 29.1771 14.4151 29 13.9047C28.9792 12.2589 28.9583 10.613 28.9375 8.9672C28.8209 8.53926 28.5605 8.4247 28.1562 8.62345C28.0802 8.72645 28.0281 8.84101 28 8.9672C27.9984 10.6794 27.9567 12.3878 27.875 14.0922C27.3223 15.0013 26.5619 15.22 25.5938 14.7485C25.2968 14.5351 25.0988 14.2538 25 13.9047C24.9984 12.1925 24.9567 10.4841 24.875 8.7797C24.7913 8.61758 24.6559 8.52383 24.4688 8.49845C23.8232 8.4672 23.1774 8.45683 22.5312 8.4672C22.541 8.72233 22.5098 8.97233 22.4375 9.2172C22.4062 9.33176 22.3333 9.4047 22.2188 9.43595C21.3023 9.4672 20.3856 9.47764 19.4688 9.4672C19.4909 9.68351 19.4076 9.83976 19.2188 9.93595C18.759 9.94651 18.3007 9.97776 17.8438 10.0297C16.7376 11.3876 15.3418 11.7938 13.6562 11.2485C12.2437 10.616 11.5145 9.52226 11.4688 7.9672C11.5691 6.12768 12.5066 4.97143 14.2812 4.49845C15.7538 4.27738 16.9413 4.74612 17.8438 5.9047C18.3007 5.95666 18.759 5.98791 19.2188 5.99845C19.4076 6.09463 19.4909 6.25089 19.4688 6.4672C20.3856 6.45676 21.3023 6.4672 22.2188 6.49845C22.3333 6.5297 22.4062 6.60264 22.4375 6.7172C22.5098 6.96208 22.541 7.21208 22.5312 7.4672C23.3232 7.45676 24.1149 7.4672 24.9062 7.49845C25.4167 7.67551 25.7604 8.01926 25.9375 8.5297C25.9583 10.1755 25.9792 11.8214 26 13.4672C26.1166 13.8951 26.377 14.0097 26.7812 13.811C26.8573 13.708 26.9094 13.5934 26.9375 13.4672C26.9391 11.755 26.9808 10.0466 27.0625 8.3422C27.6239 7.43095 28.3843 7.2122 29.3438 7.68595C29.7696 8.00639 29.9884 8.43345 30 8.9672C30.0208 10.5297 30.0417 12.0922 30.0625 13.6547C30.1462 13.8168 30.2816 13.9106 30.4688 13.936C30.8854 13.9568 31.3021 13.9776 31.7188 13.9985C31.8344 14.0416 31.9178 14.1145 31.9688 14.2172ZM14.9688 5.4672C15.4663 5.50457 15.9246 5.66082 16.3438 5.93595C15.7188 5.95678 15.0938 5.97762 14.4688 5.99845C13.2851 6.39564 12.7955 7.21858 13 8.4672C13.1979 9.24845 13.6875 9.73801 14.4688 9.93595C15.0938 9.95676 15.7188 9.97764 16.3438 9.99845C14.9831 10.7337 13.8268 10.4941 12.875 9.2797C12.1591 7.71939 12.5444 6.52145 14.0312 5.68595C14.3466 5.58753 14.6591 5.51462 14.9688 5.4672ZM14.9062 6.9672C16.0938 6.9672 17.2812 6.9672 18.4688 6.9672C18.4688 7.63389 18.4688 8.30051 18.4688 8.9672C17.3019 8.97764 16.1352 8.9672 14.9688 8.93595C14.2286 8.82051 13.9265 8.39345 14.0625 7.6547C14.226 7.2717 14.5073 7.04258 14.9062 6.9672ZM19.5312 7.4672C20.1771 7.4672 20.8229 7.4672 21.4688 7.4672C21.4688 7.80051 21.4688 8.13389 21.4688 8.4672C20.8229 8.4672 20.1771 8.4672 19.5312 8.4672C19.5312 8.13389 19.5312 7.80051 19.5312 7.4672Z" fill="#EDEDED"/>
<path opacity="0.931" fill-rule="evenodd" clip-rule="evenodd" d="M8.4062 6.40625C8.73714 6.42 8.93508 6.58669 8.99995 6.90625C9.03108 7.09263 9.04151 7.28013 9.0312 7.46875C9.33508 7.49006 9.5017 7.65675 9.5312 7.96875C9.5017 8.28075 9.33508 8.44744 9.0312 8.46875C9.05851 8.77575 9.00645 9.06738 8.87495 9.34375C8.54495 9.54213 8.25326 9.5005 7.99995 9.21875C7.96876 8.96962 7.95833 8.71962 7.9687 8.46875C7.52508 8.40887 7.36883 8.15887 7.49995 7.71875C7.59908 7.55412 7.74495 7.44994 7.93745 7.40625C7.95826 7.17706 7.97914 6.94794 7.99995 6.71875C8.09764 6.56106 8.23308 6.45688 8.4062 6.40625Z" fill="#EDEDED"/>
<path opacity="0.883" fill-rule="evenodd" clip-rule="evenodd" d="M6.21892 9.97024C6.96761 9.91987 7.17598 10.222 6.84392 10.8765C6.2134 11.0998 5.93215 10.8811 6.00017 10.2202C6.06466 10.1248 6.13758 10.0415 6.21892 9.97024Z" fill="#EDEDED"/>
<path opacity="0.883" fill-rule="evenodd" clip-rule="evenodd" d="M9.21891 10.9702C9.9676 10.9199 10.176 11.222 9.84391 11.8765C9.21341 12.0998 8.93216 11.8811 9.00016 11.2202C9.06466 11.1248 9.1376 11.0415 9.21891 10.9702Z" fill="#EDEDED"/>
<path opacity="0.955" fill-rule="evenodd" clip-rule="evenodd" d="M31.9688 21.7194C31.9688 22.7194 31.9688 23.7194 31.9688 24.7194C31.9178 24.8221 31.8344 24.895 31.7188 24.9381C30.7389 24.9486 29.7598 24.9798 28.7812 25.0319C27.9503 26.8539 26.5336 27.656 24.5312 27.4381C23.1464 27.1471 22.188 26.345 21.6562 25.0319C17.8646 24.9486 14.0729 24.9486 10.2812 25.0319C9.44806 26.8549 8.03137 27.657 6.03125 27.4381C4.64635 27.1471 3.68801 26.345 3.15625 25.0319C2.79716 24.9949 2.44299 24.9429 2.09375 24.8756C1.37228 24.3301 0.663944 23.7781 -0.03125 23.2194C-0.03125 21.0527 -0.03125 18.8861 -0.03125 16.7194C0.0197772 16.6166 0.103111 16.5437 0.21875 16.5006C1.07292 16.4798 1.92708 16.4589 2.78125 16.4381C6.18353 13.9571 9.996 12.8112 14.2188 13.0006C17.5905 13.4474 20.5697 14.7599 23.1562 16.9381C24.9886 17.1339 26.8219 17.3214 28.6562 17.5006C30.1667 17.8444 31.0938 18.7714 31.4375 20.2819C31.4782 20.6773 31.5094 21.0731 31.5312 21.4694C31.7282 21.4738 31.8741 21.5572 31.9688 21.7194ZM12.7812 13.9694C15.2762 14.0475 17.6095 14.7037 19.7812 15.9381C20.3229 16.2714 20.8646 16.6048 21.4062 16.9381C18.448 16.9694 15.4897 16.9798 12.5312 16.9694C12.5312 15.9902 12.5312 15.0111 12.5312 14.0319C12.6312 14.0486 12.7145 14.0277 12.7812 13.9694ZM11.1562 14.0944C11.2604 14.0944 11.3646 14.0944 11.4688 14.0944C11.4792 14.9488 11.4688 15.8029 11.4375 16.6569C10.2517 16.0796 9.05387 15.5276 7.84375 15.0006C8.92619 14.5896 10.0303 14.2875 11.1562 14.0944ZM6.46875 15.5319C8.20963 16.3502 9.95963 17.1522 11.7188 17.9381C15.4688 17.9589 19.2188 17.9798 22.9688 18.0006C24.8029 18.1799 26.6363 18.3674 28.4688 18.5631C29.8786 19.0065 30.5453 19.9752 30.4688 21.4694C30.0171 21.5164 29.8609 21.7664 30 22.2194C30.0312 22.3339 30.1042 22.4069 30.2188 22.4381C30.4679 22.4693 30.7179 22.4797 30.9688 22.4694C30.9688 22.9694 30.9688 23.4694 30.9688 23.9694C30.3021 23.9694 29.6354 23.9694 28.9688 23.9694C28.9776 21.8514 27.9567 20.5286 25.9062 20.0006C23.7481 19.7855 22.3002 20.6917 21.5625 22.7194C21.4829 23.1321 21.4516 23.5487 21.4688 23.9694C17.8021 23.9694 14.1354 23.9694 10.4688 23.9694C10.4776 21.8514 9.45675 20.5286 7.40625 20.0006C5.33899 19.7785 3.91191 20.6222 3.125 22.5319C2.99158 23.0015 2.93949 23.4807 2.96875 23.9694C2.86255 23.9794 2.75838 23.969 2.65625 23.9381C2.12343 23.5199 1.58176 23.1136 1.03125 22.7194C0.968762 20.9699 0.947931 19.2199 0.96875 17.4694C1.71904 17.4798 2.46904 17.4694 3.21875 17.4381C4.25668 16.7214 5.34001 16.086 6.46875 15.5319ZM6.15625 21.0319C7.8015 20.89 8.87437 21.5983 9.375 23.1569C9.54712 24.8034 8.84925 25.8763 7.28125 26.3756C5.63475 26.5477 4.56184 25.8499 4.0625 24.2819C3.89785 22.63 4.59576 21.5467 6.15625 21.0319ZM24.6562 21.0319C26.3015 20.89 27.3744 21.5983 27.875 23.1569C28.0471 24.8034 27.3492 25.8763 25.7812 26.3756C24.1348 26.5477 23.0618 25.8499 22.5625 24.2819C22.3979 22.63 23.0957 21.5467 24.6562 21.0319ZM6.46875 23.0319C7.14487 22.9892 7.44694 23.3017 7.375 23.9694C7.185 24.3508 6.88287 24.4862 6.46875 24.3756C6.08734 24.1856 5.95192 23.8835 6.0625 23.4694C6.16838 23.2907 6.30381 23.1449 6.46875 23.0319ZM24.9688 23.0319C25.6449 22.9892 25.9469 23.3017 25.875 23.9694C25.685 24.3508 25.3829 24.4862 24.9688 24.3756C24.5873 24.1856 24.4519 23.8835 24.5625 23.4694C24.6684 23.2907 24.8038 23.1449 24.9688 23.0319Z" fill="#EDEDED"/>
<path opacity="0.927" fill-rule="evenodd" clip-rule="evenodd" d="M6.2188 21.9707C7.83205 21.8652 8.57162 22.6152 8.43755 24.2207C8.04199 25.2364 7.30243 25.6427 6.2188 25.4394C5.20305 25.0439 4.7968 24.3043 5.00005 23.2207C5.20952 22.6051 5.61577 22.1884 6.2188 21.9707ZM6.4688 23.0332C6.30387 23.1463 6.16844 23.2921 6.06255 23.4707C5.95197 23.8848 6.08739 24.1869 6.4688 24.3769C6.88293 24.4875 7.18505 24.3521 7.37505 23.9707C7.44699 23.303 7.14493 22.9905 6.4688 23.0332Z" fill="#EDEDED"/>
<path opacity="0.926" fill-rule="evenodd" clip-rule="evenodd" d="M24.7188 21.9707C26.332 21.8652 27.0716 22.6152 26.9375 24.2207C26.5419 25.2364 25.8024 25.6427 24.7188 25.4394C23.9127 25.1511 23.4752 24.5781 23.4062 23.7207C23.4824 22.8579 23.9199 22.2746 24.7188 21.9707ZM24.9688 23.0332C24.8038 23.1463 24.6684 23.2921 24.5625 23.4707C24.4519 23.8848 24.5873 24.1869 24.9688 24.3769C25.3829 24.4875 25.685 24.3521 25.875 23.9707C25.9469 23.303 25.6449 22.9905 24.9688 23.0332Z" fill="#EDEDED"/>
</g>
<defs>
<clipPath id="clip0_102_10617">
<rect width="32" height="32" fill="white"/>
</clipPath>
</defs>
</svg>
