<svg width="32" height="32" viewBox="0 0 32 32" fill="none" xmlns="http://www.w3.org/2000/svg">
<g clip-path="url(#clip0_102_10591)">
<path opacity="0.936" fill-rule="evenodd" clip-rule="evenodd" d="M15.7183 -0.03125C15.885 -0.03125 16.0516 -0.03125 16.2183 -0.03125C18.7471 1.09735 21.2887 2.21193 23.8433 3.3125C24.0566 3.40341 24.2545 3.51799 24.4371 3.65625C24.5406 6.75525 24.5614 9.85938 24.4996 12.9688C24.3196 14.5684 23.6217 15.8914 22.4058 16.9375C20.4475 18.3542 18.4891 19.7708 16.5308 21.1875C16.1558 21.3958 15.7808 21.3958 15.4058 21.1875C13.4475 19.7708 11.4891 18.3542 9.53082 16.9375C8.31494 15.8914 7.61707 14.5684 7.43707 12.9688C7.37519 9.85938 7.396 6.75525 7.49957 3.65625C7.64025 3.53892 7.7965 3.44517 7.96832 3.375C10.5646 2.2536 13.1479 1.11818 15.7183 -0.03125ZM15.8433 1.15625C15.995 1.15769 16.1408 1.18894 16.2808 1.25C18.6324 2.28733 20.9866 3.31858 23.3433 4.34375C23.4163 7.17688 23.4266 10.0102 23.3746 12.8438C23.2198 14.143 22.6469 15.2159 21.6558 16.0625C19.76 17.4271 17.8641 18.7917 15.9683 20.1562C14.0725 18.7917 12.1766 17.4271 10.2808 16.0625C9.28975 15.2159 8.71682 14.143 8.56207 12.8438C8.53082 10.0105 8.52038 7.17719 8.53082 4.34375C10.9879 3.31675 13.4254 2.25425 15.8433 1.15625ZM15.8433 3.46875C17.6687 4.17814 19.4708 4.94898 21.2496 5.78125C21.2913 8.07294 21.2913 10.3646 21.2496 12.6562C21.1636 13.3804 20.8407 13.9741 20.2808 14.4375C18.8346 15.4566 17.3971 16.4879 15.9683 17.5312C14.5395 16.4879 13.102 15.4566 11.6558 14.4375C11.0959 13.9741 10.773 13.3804 10.6871 12.6562C10.6454 10.3646 10.6454 8.07294 10.6871 5.78125C12.4142 5.0164 14.1329 4.24557 15.8433 3.46875Z" fill="#EDEDED"/>
<path opacity="0.937" fill-rule="evenodd" clip-rule="evenodd" d="M15.7192 2.28116C15.8871 2.2709 16.0538 2.28132 16.2192 2.31241C18.1775 3.16658 20.1359 4.02074 22.0942 4.87491C22.2116 4.97134 22.3053 5.08592 22.3755 5.21866C22.4171 7.76035 22.4171 10.302 22.3755 12.8437C22.246 13.8423 21.7981 14.6653 21.0317 15.3124C19.5317 16.3957 18.0317 17.4791 16.5317 18.5624C16.1567 18.8541 15.7817 18.8541 15.4067 18.5624C13.9067 17.4791 12.4067 16.3957 10.9067 15.3124C10.1403 14.6653 9.69245 13.8423 9.56296 12.8437C9.50121 10.2551 9.52202 7.67172 9.62546 5.09366C9.81802 4.91909 10.0368 4.78368 10.2817 4.68741C12.1135 3.9142 13.926 3.11212 15.7192 2.28116ZM15.8442 3.46866C14.1338 4.24548 12.4151 5.01631 10.688 5.78116C10.6463 8.07285 10.6463 10.3645 10.688 12.6562C10.7739 13.3803 11.0968 13.974 11.6567 14.4374C13.1029 15.4565 14.5404 16.4878 15.9692 17.5312C17.398 16.4878 18.8355 15.4565 20.2817 14.4374C20.8416 13.974 21.1645 13.3803 21.2505 12.6562C21.2921 10.3645 21.2921 8.07285 21.2505 5.78116C19.4717 4.94889 17.6696 4.17805 15.8442 3.46866Z" fill="#EDEDED"/>
<path opacity="0.92" fill-rule="evenodd" clip-rule="evenodd" d="M18.9686 6.34236C19.5722 6.28973 19.8118 6.56055 19.6874 7.15486C18.2419 9.36892 16.7731 11.5669 15.2811 13.7486C15.0311 13.8736 14.7811 13.8736 14.5311 13.7486C13.7916 13.1757 13.052 12.6028 12.3124 12.0299C12.0996 11.3675 12.3391 11.0863 13.0311 11.1861C13.5985 11.6208 14.1714 12.0479 14.7499 12.4674C16.0571 10.5406 17.3487 8.60311 18.6249 6.65486C18.733 6.53598 18.8476 6.4318 18.9686 6.34236Z" fill="#1E2020"/>
<path opacity="0.939" fill-rule="evenodd" clip-rule="evenodd" d="M13.6562 31.9705C11.4479 31.9705 9.23956 31.9705 7.03125 31.9705C6.71644 31.8115 6.49769 31.5615 6.375 31.2205C6.33331 29.5955 6.33331 27.9705 6.375 26.3455C6.41494 26.1823 6.48787 26.0364 6.59375 25.908C5.30117 24.605 4.01992 23.2925 2.75 21.9705C2.46824 21.5322 2.21824 21.0738 2 20.5955C1.31542 19.0918 0.638344 17.5918 -0.03125 16.0955C-0.03125 15.8038 -0.03125 15.5122 -0.03125 15.2205C0.559987 13.9714 1.47666 13.6484 2.71875 14.2518C2.89825 14.4103 3.0545 14.5874 3.1875 14.783C3.58807 15.7298 4.00473 16.6673 4.4375 17.5955C5.41515 17.0704 6.36306 17.1226 7.28125 17.7518C8.42881 18.7638 9.72044 19.5554 11.1562 20.1268C12.3054 20.9759 13.0034 22.1113 13.25 23.533C13.3298 24.1972 13.361 24.8638 13.3438 25.533C13.8905 25.5904 14.2342 25.8821 14.375 26.408C14.4167 27.9913 14.4167 29.5747 14.375 31.158C14.2739 31.5606 14.0344 31.8314 13.6562 31.9705ZM1.53125 15.033C1.80518 15.0235 2.02393 15.1277 2.1875 15.3455C2.61634 16.3196 3.03301 17.2988 3.4375 18.283C3.68208 18.7934 3.97375 19.2726 4.3125 19.7205C5.32292 20.7309 6.33331 21.7413 7.34375 22.7518C7.97919 22.8663 8.23956 22.6059 8.125 21.9705C7.1685 20.9514 6.18932 19.9514 5.1875 18.9705C5.12675 18.8577 5.05383 18.7535 4.96875 18.658C5.38714 18.3143 5.84547 18.2622 6.34375 18.5018C6.95094 19.0049 7.57594 19.484 8.21875 19.9393C9.09569 20.3985 9.97069 20.8569 10.8438 21.3143C11.6385 22.0923 12.0864 23.0403 12.1875 24.158C12.2188 24.6159 12.2291 25.0742 12.2188 25.533C10.7602 25.5434 9.30194 25.533 7.84375 25.5018C6.35044 24.0502 4.90253 22.5606 3.5 21.033C2.70833 19.3247 1.91667 17.6163 1.125 15.908C1.01064 15.4913 1.14606 15.1996 1.53125 15.033ZM7.46875 26.658C9.40625 26.658 11.3438 26.658 13.2812 26.658C13.2812 28.0538 13.2812 29.4497 13.2812 30.8455C11.3438 30.8455 9.40625 30.8455 7.46875 30.8455C7.46875 29.4497 7.46875 28.0538 7.46875 26.658Z" fill="#EDEDED"/>
<path opacity="0.939" fill-rule="evenodd" clip-rule="evenodd" d="M31.9688 15.1571C31.9688 15.4696 31.9688 15.7821 31.9688 16.0946C31.3079 17.544 30.6516 19.0023 30 20.4696C29.761 20.9896 29.4901 21.4896 29.1875 21.9697C27.9176 23.2917 26.6363 24.6042 25.3438 25.9072C25.4496 26.0355 25.5226 26.1814 25.5625 26.3447C25.6042 27.9697 25.6042 29.5947 25.5625 31.2197C25.4415 31.5592 25.2228 31.8092 24.9063 31.9697C22.698 31.9697 20.4896 31.9697 18.2813 31.9697C17.9031 31.8306 17.6636 31.5598 17.5625 31.1572C17.5208 29.5738 17.5208 27.9905 17.5625 26.4072C17.7075 25.8764 18.0513 25.5848 18.5938 25.5322C18.3896 23.5505 18.973 21.8526 20.3438 20.4384C20.4896 20.3342 20.6355 20.2301 20.7813 20.1259C22.2489 19.5491 23.5614 18.7366 24.7188 17.6884C25.6282 17.111 26.5553 17.0797 27.5 17.5946C27.9328 16.6664 28.3495 15.7289 28.75 14.7821C29.4542 13.8485 30.3188 13.6713 31.3438 14.2509C31.6186 14.5139 31.827 14.816 31.9688 15.1571ZM30.1563 15.0321C30.7191 15.064 30.9379 15.3556 30.8125 15.9071C30.1875 17.2821 29.5625 18.6571 28.9375 20.0321C28.7141 20.5417 28.4433 21.0209 28.125 21.4696C26.7813 22.8134 25.4375 24.1572 24.0938 25.5009C22.6356 25.5322 21.1773 25.5426 19.7188 25.5322C19.5613 24.0985 19.905 22.8068 20.75 21.6571C20.9293 21.4569 21.1272 21.2798 21.3438 21.1259C22.9247 20.5005 24.3414 19.6255 25.5938 18.5009C26.091 18.264 26.5494 18.3161 26.9688 18.6571C26.8837 18.7526 26.8108 18.8568 26.75 18.9696C25.7482 19.9506 24.769 20.9506 23.8125 21.9697C23.7329 22.6403 24.0141 22.8799 24.6563 22.6884C25.731 21.6345 26.7831 20.5616 27.8125 19.4696C28.0575 19.084 28.2866 18.6882 28.5 18.2821C28.9045 17.2979 29.3211 16.3187 29.75 15.3446C29.8628 15.1993 29.9983 15.0951 30.1563 15.0321ZM18.6563 26.6572C20.5938 26.6572 22.5313 26.6572 24.4688 26.6572C24.4688 28.053 24.4688 29.4488 24.4688 30.8447C22.5313 30.8447 20.5938 30.8447 18.6563 30.8447C18.6563 29.4488 18.6563 28.053 18.6563 26.6572Z" fill="#EDEDED"/>
<path opacity="0.897" fill-rule="evenodd" clip-rule="evenodd" d="M10.9059 28.2187C11.2607 28.2083 11.6148 28.2188 11.9684 28.25C12.2792 28.4704 12.352 28.7517 12.1872 29.0937C12.1047 29.2179 11.9902 29.2908 11.8434 29.3125C11.5046 29.3649 11.1713 29.3441 10.8434 29.25C10.4974 28.8857 10.5182 28.5419 10.9059 28.2187Z" fill="#EDEDED"/>
<path opacity="0.896" fill-rule="evenodd" clip-rule="evenodd" d="M19.9684 28.2187C20.3232 28.2083 20.6773 28.2188 21.0309 28.25C21.3417 28.4704 21.4145 28.7517 21.2497 29.0937C21.1672 29.2179 21.0527 29.2908 20.9059 29.3125C20.5671 29.3649 20.2338 29.3441 19.9059 29.25C19.5599 28.8857 19.5807 28.5419 19.9684 28.2187Z" fill="#EDEDED"/>
</g>
<defs>
<clipPath id="clip0_102_10591">
<rect width="32" height="32" fill="white"/>
</clipPath>
</defs>
</svg>
