<svg width="55" height="55" viewBox="0 0 55 55" fill="none" xmlns="http://www.w3.org/2000/svg">
<g filter="url(#filter0_d_102_10471)">
<path d="M44.1627 20.6361C45.0832 20.6361 45.8293 19.8825 45.8293 18.9528C45.8293 18.0232 45.0832 17.2695 44.1627 17.2695C43.2423 17.2695 42.4961 18.0232 42.4961 18.9528C42.4961 19.8825 43.2423 20.6361 44.1627 20.6361Z" stroke="#0C0C0C" stroke-linecap="round" stroke-linejoin="round" shape-rendering="crispEdges"/>
</g>
<g filter="url(#filter1_d_102_10471)">
<path d="M48.0932 20.5609C48.0226 20.7224 48.0016 20.9016 48.0327 21.0753C48.0639 21.2491 48.1459 21.4094 48.2682 21.5356L48.3 21.5678C48.3986 21.6673 48.4768 21.7854 48.5302 21.9154C48.5836 22.0455 48.6111 22.1849 48.6111 22.3256C48.6111 22.4664 48.5836 22.6058 48.5302 22.7358C48.4768 22.8659 48.3986 22.984 48.3 23.0835C48.2015 23.1831 48.0845 23.2621 47.9558 23.316C47.827 23.3699 47.689 23.3977 47.5497 23.3977C47.4103 23.3977 47.2723 23.3699 47.1435 23.316C47.0148 23.2621 46.8978 23.1831 46.7993 23.0835L46.7675 23.0514C46.6425 22.9279 46.4838 22.8451 46.3118 22.8136C46.1397 22.7821 45.9623 22.8033 45.8024 22.8746C45.6455 22.9425 45.5118 23.0553 45.4175 23.1989C45.3233 23.3426 45.2728 23.511 45.2721 23.6834V23.7744C45.2721 24.0585 45.1603 24.331 44.9614 24.5319C44.7625 24.7328 44.4928 24.8456 44.2115 24.8456C43.9302 24.8456 43.6605 24.7328 43.4616 24.5319C43.2627 24.331 43.1509 24.0585 43.1509 23.7744V23.7262C43.1468 23.5489 43.09 23.377 42.9879 23.2328C42.8857 23.0885 42.743 22.9787 42.5782 22.9175C42.4183 22.8462 42.2409 22.8249 42.0688 22.8564C41.8968 22.8879 41.7381 22.9707 41.6131 23.0942L41.5813 23.1264C41.4828 23.226 41.3658 23.305 41.2371 23.3589C41.1083 23.4128 40.9703 23.4405 40.8309 23.4405C40.6916 23.4405 40.5535 23.4128 40.4248 23.3589C40.296 23.305 40.1791 23.226 40.0806 23.1264C39.982 23.0269 39.9037 22.9087 39.8504 22.7787C39.797 22.6487 39.7695 22.5093 39.7695 22.3685C39.7695 22.2277 39.797 22.0883 39.8504 21.9583C39.9037 21.8282 39.982 21.7101 40.0806 21.6106L40.1124 21.5785C40.2346 21.4523 40.3167 21.2919 40.3478 21.1182C40.379 20.9444 40.358 20.7652 40.2874 20.6037C40.2202 20.4453 40.1086 20.3102 39.9663 20.215C39.824 20.1199 39.6573 20.0688 39.4867 20.0681H39.3965C39.1152 20.0681 38.8455 19.9552 38.6466 19.7544C38.4477 19.5535 38.3359 19.281 38.3359 18.9969C38.3359 18.7128 38.4477 18.4403 38.6466 18.2395C38.8455 18.0386 39.1152 17.9257 39.3965 17.9257H39.4442C39.6198 17.9216 39.79 17.8642 39.9328 17.761C40.0756 17.6579 40.1844 17.5137 40.245 17.3473C40.3156 17.1857 40.3366 17.0065 40.3054 16.8328C40.2742 16.659 40.1922 16.4987 40.07 16.3725L40.0382 16.3404C39.9395 16.2409 39.8613 16.1227 39.8079 15.9927C39.7546 15.8626 39.7271 15.7233 39.7271 15.5825C39.7271 15.4417 39.7546 15.3023 39.8079 15.1723C39.8613 15.0422 39.9395 14.9241 40.0382 14.8246C40.1367 14.725 40.2536 14.646 40.3824 14.5921C40.5111 14.5382 40.6491 14.5104 40.7885 14.5104C40.9279 14.5104 41.0659 14.5382 41.1946 14.5921C41.3234 14.646 41.4404 14.725 41.5389 14.8246L41.5707 14.8567C41.6957 14.9802 41.8544 15.0631 42.0264 15.0946C42.1984 15.1261 42.3759 15.1048 42.5358 15.0335H42.5782C42.7351 14.9656 42.8688 14.8529 42.963 14.7092C43.0573 14.5655 43.1078 14.3971 43.1085 14.2247V14.1337C43.1085 13.8496 43.2202 13.5771 43.4191 13.3762C43.618 13.1754 43.8878 13.0625 44.1691 13.0625C44.4504 13.0625 44.7201 13.1754 44.919 13.3762C45.1179 13.5771 45.2297 13.8496 45.2297 14.1337V14.1819C45.2303 14.3542 45.2809 14.5226 45.3751 14.6663C45.4693 14.81 45.6031 14.9228 45.7599 14.9906C45.9199 15.0619 46.0973 15.0832 46.2693 15.0517C46.4413 15.0202 46.6001 14.9374 46.7251 14.8139L46.7569 14.7818C46.8554 14.6822 46.9723 14.6032 47.1011 14.5493C47.2298 14.4953 47.3679 14.4676 47.5072 14.4676C47.6466 14.4676 47.7846 14.4953 47.9134 14.5493C48.0421 14.6032 48.1591 14.6822 48.2576 14.7818C48.3562 14.8812 48.4344 14.9994 48.4878 15.1294C48.5412 15.2595 48.5686 15.3989 48.5686 15.5396C48.5686 15.6804 48.5412 15.8198 48.4878 15.9498C48.4344 16.0799 48.3562 16.198 48.2576 16.2975L48.2258 16.3296C48.1035 16.4559 48.0215 16.6162 47.9903 16.7899C47.9591 16.9637 47.9802 17.1429 48.0508 17.3044V17.3473C48.118 17.5057 48.2296 17.6408 48.3719 17.7359C48.5142 17.8311 48.6809 17.8822 48.8515 17.8829H48.9417C49.2229 17.8829 49.4927 17.9957 49.6916 18.1966C49.8905 18.3975 50.0022 18.67 50.0022 18.9541C50.0022 19.2382 49.8905 19.5106 49.6916 19.7115C49.4927 19.9124 49.2229 20.0253 48.9417 20.0253H48.8939C48.7233 20.0259 48.5566 20.077 48.4143 20.1722C48.272 20.2673 48.1604 20.4024 48.0932 20.5609Z" stroke="#0C0C0C" stroke-linecap="round" stroke-linejoin="round" shape-rendering="crispEdges"/>
</g>
<g filter="url(#filter2_d_102_10471)">
<path d="M32.3447 4.21484H8.41809C6.53033 4.21484 5 5.78715 5 7.72669V32.3096C5 34.2492 6.53033 35.8215 8.41809 35.8215H32.3447C34.2325 35.8215 35.7628 34.2492 35.7628 32.3096V7.72669C35.7628 5.78715 34.2325 4.21484 32.3447 4.21484Z" stroke="#0C0C0C" stroke-width="2" stroke-linecap="round" stroke-linejoin="round" shape-rendering="crispEdges"/>
</g>
<g filter="url(#filter3_d_102_10471)">
<path d="M27.2734 1V7.96417" stroke="#0C0C0C" stroke-width="2" stroke-linecap="round" stroke-linejoin="round"/>
</g>
<g filter="url(#filter4_d_102_10471)">
<path d="M13.4883 1V7.96417" stroke="#0C0C0C" stroke-width="2" stroke-linecap="round" stroke-linejoin="round"/>
</g>
<g filter="url(#filter5_d_102_10471)">
<path d="M5 14.9258H35.7628" stroke="#0C0C0C" stroke-width="2" stroke-linecap="round" stroke-linejoin="round"/>
</g>
<g filter="url(#filter6_d_102_10471)">
<rect x="24.0977" y="17.6055" width="3.71276" height="3.21423" fill="#0C0C0C"/>
</g>
<g filter="url(#filter7_d_102_10471)">
<rect x="29.9258" y="17.6055" width="3.71276" height="3.21423" fill="#0C0C0C"/>
</g>
<g filter="url(#filter8_d_102_10471)">
<rect x="24.0977" y="22.9648" width="3.71276" height="3.21423" fill="#0C0C0C"/>
</g>
<g filter="url(#filter9_d_102_10471)">
<rect x="29.9258" y="22.9648" width="3.71276" height="3.21423" fill="#0C0C0C"/>
</g>
<g filter="url(#filter10_d_102_10471)">
<rect x="7.125" y="22.9648" width="3.18236" height="3.21423" fill="#0C0C0C"/>
</g>
<g filter="url(#filter11_d_102_10471)">
<rect x="24.0977" y="27.7852" width="3.71276" height="3.21423" fill="#0C0C0C"/>
</g>
<g filter="url(#filter12_d_102_10471)">
<rect x="29.9258" y="27.7852" width="3.71276" height="3.21423" fill="#EDEDED"/>
</g>
<g filter="url(#filter13_d_102_10471)">
<rect x="12.9609" y="22.9648" width="3.18236" height="3.21423" fill="#0C0C0C"/>
</g>
<g filter="url(#filter14_d_102_10471)">
<rect x="18.7891" y="22.9648" width="3.18236" height="3.21423" fill="#0C0C0C"/>
</g>
<g filter="url(#filter15_d_102_10471)">
<rect x="7.125" y="27.7852" width="3.18236" height="3.21423" fill="#0C0C0C"/>
</g>
<g filter="url(#filter16_d_102_10471)">
<rect x="12.9609" y="27.7852" width="3.18236" height="3.21423" fill="#0C0C0C"/>
</g>
<g filter="url(#filter17_d_102_10471)">
<rect x="18.7891" y="27.7852" width="3.18236" height="3.21423" fill="#0C0C0C"/>
</g>
<g filter="url(#filter18_d_102_10471)">
<path d="M35.5328 46.001C41.6843 46.001 46.6711 41.0575 46.6711 34.9595C46.6711 28.8614 41.6843 23.918 35.5328 23.918C29.3813 23.918 24.3945 28.8614 24.3945 34.9595C24.3945 41.0575 29.3813 46.001 35.5328 46.001Z" fill="#0C0C0C"/>
<path d="M35.5328 46.001C41.6843 46.001 46.6711 41.0575 46.6711 34.9595C46.6711 28.8614 41.6843 23.918 35.5328 23.918C29.3813 23.918 24.3945 28.8614 24.3945 34.9595C24.3945 41.0575 29.3813 46.001 35.5328 46.001Z" stroke="#0C0C0C" stroke-width="2" stroke-linecap="round" stroke-linejoin="round"/>
</g>
<g filter="url(#filter19_d_102_10471)">
<path d="M36.3633 28.918V35.4804L40.076 37.6678" stroke="#A0A0A0" stroke-width="2" stroke-linecap="round" stroke-linejoin="round" shape-rendering="crispEdges"/>
</g>
<defs>
<filter id="filter0_d_102_10471" x="37.9961" y="16.7695" width="12.333" height="12.3672" filterUnits="userSpaceOnUse" color-interpolation-filters="sRGB">
<feFlood flood-opacity="0" result="BackgroundImageFix"/>
<feColorMatrix in="SourceAlpha" type="matrix" values="0 0 0 0 0 0 0 0 0 0 0 0 0 0 0 0 0 0 127 0" result="hardAlpha"/>
<feOffset dy="4"/>
<feGaussianBlur stdDeviation="2"/>
<feComposite in2="hardAlpha" operator="out"/>
<feColorMatrix type="matrix" values="0 0 0 0 0 0 0 0 0 0 0 0 0 0 0 0 0 0 0.25 0"/>
<feBlend mode="normal" in2="BackgroundImageFix" result="effect1_dropShadow_102_10471"/>
<feBlend mode="normal" in="SourceGraphic" in2="effect1_dropShadow_102_10471" result="shape"/>
</filter>
<filter id="filter1_d_102_10471" x="33.8359" y="12.5625" width="20.666" height="20.7812" filterUnits="userSpaceOnUse" color-interpolation-filters="sRGB">
<feFlood flood-opacity="0" result="BackgroundImageFix"/>
<feColorMatrix in="SourceAlpha" type="matrix" values="0 0 0 0 0 0 0 0 0 0 0 0 0 0 0 0 0 0 127 0" result="hardAlpha"/>
<feOffset dy="4"/>
<feGaussianBlur stdDeviation="2"/>
<feComposite in2="hardAlpha" operator="out"/>
<feColorMatrix type="matrix" values="0 0 0 0 0 0 0 0 0 0 0 0 0 0 0 0 0 0 0.25 0"/>
<feBlend mode="normal" in2="BackgroundImageFix" result="effect1_dropShadow_102_10471"/>
<feBlend mode="normal" in="SourceGraphic" in2="effect1_dropShadow_102_10471" result="shape"/>
</filter>
<filter id="filter2_d_102_10471" x="0" y="3.21484" width="40.7627" height="41.6055" filterUnits="userSpaceOnUse" color-interpolation-filters="sRGB">
<feFlood flood-opacity="0" result="BackgroundImageFix"/>
<feColorMatrix in="SourceAlpha" type="matrix" values="0 0 0 0 0 0 0 0 0 0 0 0 0 0 0 0 0 0 127 0" result="hardAlpha"/>
<feOffset dy="4"/>
<feGaussianBlur stdDeviation="2"/>
<feComposite in2="hardAlpha" operator="out"/>
<feColorMatrix type="matrix" values="0 0 0 0 0 0 0 0 0 0 0 0 0 0 0 0 0 0 0.25 0"/>
<feBlend mode="normal" in2="BackgroundImageFix" result="effect1_dropShadow_102_10471"/>
<feBlend mode="normal" in="SourceGraphic" in2="effect1_dropShadow_102_10471" result="shape"/>
</filter>
<filter id="filter3_d_102_10471" x="22.2734" y="0" width="10" height="16.9648" filterUnits="userSpaceOnUse" color-interpolation-filters="sRGB">
<feFlood flood-opacity="0" result="BackgroundImageFix"/>
<feColorMatrix in="SourceAlpha" type="matrix" values="0 0 0 0 0 0 0 0 0 0 0 0 0 0 0 0 0 0 127 0" result="hardAlpha"/>
<feOffset dy="4"/>
<feGaussianBlur stdDeviation="2"/>
<feComposite in2="hardAlpha" operator="out"/>
<feColorMatrix type="matrix" values="0 0 0 0 0 0 0 0 0 0 0 0 0 0 0 0 0 0 0.25 0"/>
<feBlend mode="normal" in2="BackgroundImageFix" result="effect1_dropShadow_102_10471"/>
<feBlend mode="normal" in="SourceGraphic" in2="effect1_dropShadow_102_10471" result="shape"/>
</filter>
<filter id="filter4_d_102_10471" x="8.48828" y="0" width="10" height="16.9648" filterUnits="userSpaceOnUse" color-interpolation-filters="sRGB">
<feFlood flood-opacity="0" result="BackgroundImageFix"/>
<feColorMatrix in="SourceAlpha" type="matrix" values="0 0 0 0 0 0 0 0 0 0 0 0 0 0 0 0 0 0 127 0" result="hardAlpha"/>
<feOffset dy="4"/>
<feGaussianBlur stdDeviation="2"/>
<feComposite in2="hardAlpha" operator="out"/>
<feColorMatrix type="matrix" values="0 0 0 0 0 0 0 0 0 0 0 0 0 0 0 0 0 0 0.25 0"/>
<feBlend mode="normal" in2="BackgroundImageFix" result="effect1_dropShadow_102_10471"/>
<feBlend mode="normal" in="SourceGraphic" in2="effect1_dropShadow_102_10471" result="shape"/>
</filter>
<filter id="filter5_d_102_10471" x="0" y="13.9258" width="40.7627" height="10" filterUnits="userSpaceOnUse" color-interpolation-filters="sRGB">
<feFlood flood-opacity="0" result="BackgroundImageFix"/>
<feColorMatrix in="SourceAlpha" type="matrix" values="0 0 0 0 0 0 0 0 0 0 0 0 0 0 0 0 0 0 127 0" result="hardAlpha"/>
<feOffset dy="4"/>
<feGaussianBlur stdDeviation="2"/>
<feComposite in2="hardAlpha" operator="out"/>
<feColorMatrix type="matrix" values="0 0 0 0 0 0 0 0 0 0 0 0 0 0 0 0 0 0 0.25 0"/>
<feBlend mode="normal" in2="BackgroundImageFix" result="effect1_dropShadow_102_10471"/>
<feBlend mode="normal" in="SourceGraphic" in2="effect1_dropShadow_102_10471" result="shape"/>
</filter>
<filter id="filter6_d_102_10471" x="20.0977" y="17.6055" width="11.7129" height="11.2148" filterUnits="userSpaceOnUse" color-interpolation-filters="sRGB">
<feFlood flood-opacity="0" result="BackgroundImageFix"/>
<feColorMatrix in="SourceAlpha" type="matrix" values="0 0 0 0 0 0 0 0 0 0 0 0 0 0 0 0 0 0 127 0" result="hardAlpha"/>
<feOffset dy="4"/>
<feGaussianBlur stdDeviation="2"/>
<feComposite in2="hardAlpha" operator="out"/>
<feColorMatrix type="matrix" values="0 0 0 0 0 0 0 0 0 0 0 0 0 0 0 0 0 0 0.25 0"/>
<feBlend mode="normal" in2="BackgroundImageFix" result="effect1_dropShadow_102_10471"/>
<feBlend mode="normal" in="SourceGraphic" in2="effect1_dropShadow_102_10471" result="shape"/>
</filter>
<filter id="filter7_d_102_10471" x="25.9258" y="17.6055" width="11.7129" height="11.2148" filterUnits="userSpaceOnUse" color-interpolation-filters="sRGB">
<feFlood flood-opacity="0" result="BackgroundImageFix"/>
<feColorMatrix in="SourceAlpha" type="matrix" values="0 0 0 0 0 0 0 0 0 0 0 0 0 0 0 0 0 0 127 0" result="hardAlpha"/>
<feOffset dy="4"/>
<feGaussianBlur stdDeviation="2"/>
<feComposite in2="hardAlpha" operator="out"/>
<feColorMatrix type="matrix" values="0 0 0 0 0 0 0 0 0 0 0 0 0 0 0 0 0 0 0.25 0"/>
<feBlend mode="normal" in2="BackgroundImageFix" result="effect1_dropShadow_102_10471"/>
<feBlend mode="normal" in="SourceGraphic" in2="effect1_dropShadow_102_10471" result="shape"/>
</filter>
<filter id="filter8_d_102_10471" x="20.0977" y="22.9648" width="11.7129" height="11.2148" filterUnits="userSpaceOnUse" color-interpolation-filters="sRGB">
<feFlood flood-opacity="0" result="BackgroundImageFix"/>
<feColorMatrix in="SourceAlpha" type="matrix" values="0 0 0 0 0 0 0 0 0 0 0 0 0 0 0 0 0 0 127 0" result="hardAlpha"/>
<feOffset dy="4"/>
<feGaussianBlur stdDeviation="2"/>
<feComposite in2="hardAlpha" operator="out"/>
<feColorMatrix type="matrix" values="0 0 0 0 0 0 0 0 0 0 0 0 0 0 0 0 0 0 0.25 0"/>
<feBlend mode="normal" in2="BackgroundImageFix" result="effect1_dropShadow_102_10471"/>
<feBlend mode="normal" in="SourceGraphic" in2="effect1_dropShadow_102_10471" result="shape"/>
</filter>
<filter id="filter9_d_102_10471" x="25.9258" y="22.9648" width="11.7129" height="11.2148" filterUnits="userSpaceOnUse" color-interpolation-filters="sRGB">
<feFlood flood-opacity="0" result="BackgroundImageFix"/>
<feColorMatrix in="SourceAlpha" type="matrix" values="0 0 0 0 0 0 0 0 0 0 0 0 0 0 0 0 0 0 127 0" result="hardAlpha"/>
<feOffset dy="4"/>
<feGaussianBlur stdDeviation="2"/>
<feComposite in2="hardAlpha" operator="out"/>
<feColorMatrix type="matrix" values="0 0 0 0 0 0 0 0 0 0 0 0 0 0 0 0 0 0 0.25 0"/>
<feBlend mode="normal" in2="BackgroundImageFix" result="effect1_dropShadow_102_10471"/>
<feBlend mode="normal" in="SourceGraphic" in2="effect1_dropShadow_102_10471" result="shape"/>
</filter>
<filter id="filter10_d_102_10471" x="3.125" y="22.9648" width="11.1826" height="11.2148" filterUnits="userSpaceOnUse" color-interpolation-filters="sRGB">
<feFlood flood-opacity="0" result="BackgroundImageFix"/>
<feColorMatrix in="SourceAlpha" type="matrix" values="0 0 0 0 0 0 0 0 0 0 0 0 0 0 0 0 0 0 127 0" result="hardAlpha"/>
<feOffset dy="4"/>
<feGaussianBlur stdDeviation="2"/>
<feComposite in2="hardAlpha" operator="out"/>
<feColorMatrix type="matrix" values="0 0 0 0 0 0 0 0 0 0 0 0 0 0 0 0 0 0 0.25 0"/>
<feBlend mode="normal" in2="BackgroundImageFix" result="effect1_dropShadow_102_10471"/>
<feBlend mode="normal" in="SourceGraphic" in2="effect1_dropShadow_102_10471" result="shape"/>
</filter>
<filter id="filter11_d_102_10471" x="20.0977" y="27.7852" width="11.7129" height="11.2148" filterUnits="userSpaceOnUse" color-interpolation-filters="sRGB">
<feFlood flood-opacity="0" result="BackgroundImageFix"/>
<feColorMatrix in="SourceAlpha" type="matrix" values="0 0 0 0 0 0 0 0 0 0 0 0 0 0 0 0 0 0 127 0" result="hardAlpha"/>
<feOffset dy="4"/>
<feGaussianBlur stdDeviation="2"/>
<feComposite in2="hardAlpha" operator="out"/>
<feColorMatrix type="matrix" values="0 0 0 0 0 0 0 0 0 0 0 0 0 0 0 0 0 0 0.25 0"/>
<feBlend mode="normal" in2="BackgroundImageFix" result="effect1_dropShadow_102_10471"/>
<feBlend mode="normal" in="SourceGraphic" in2="effect1_dropShadow_102_10471" result="shape"/>
</filter>
<filter id="filter12_d_102_10471" x="25.9258" y="27.7852" width="11.7129" height="11.2148" filterUnits="userSpaceOnUse" color-interpolation-filters="sRGB">
<feFlood flood-opacity="0" result="BackgroundImageFix"/>
<feColorMatrix in="SourceAlpha" type="matrix" values="0 0 0 0 0 0 0 0 0 0 0 0 0 0 0 0 0 0 127 0" result="hardAlpha"/>
<feOffset dy="4"/>
<feGaussianBlur stdDeviation="2"/>
<feComposite in2="hardAlpha" operator="out"/>
<feColorMatrix type="matrix" values="0 0 0 0 0 0 0 0 0 0 0 0 0 0 0 0 0 0 0.25 0"/>
<feBlend mode="normal" in2="BackgroundImageFix" result="effect1_dropShadow_102_10471"/>
<feBlend mode="normal" in="SourceGraphic" in2="effect1_dropShadow_102_10471" result="shape"/>
</filter>
<filter id="filter13_d_102_10471" x="8.96094" y="22.9648" width="11.1826" height="11.2148" filterUnits="userSpaceOnUse" color-interpolation-filters="sRGB">
<feFlood flood-opacity="0" result="BackgroundImageFix"/>
<feColorMatrix in="SourceAlpha" type="matrix" values="0 0 0 0 0 0 0 0 0 0 0 0 0 0 0 0 0 0 127 0" result="hardAlpha"/>
<feOffset dy="4"/>
<feGaussianBlur stdDeviation="2"/>
<feComposite in2="hardAlpha" operator="out"/>
<feColorMatrix type="matrix" values="0 0 0 0 0 0 0 0 0 0 0 0 0 0 0 0 0 0 0.25 0"/>
<feBlend mode="normal" in2="BackgroundImageFix" result="effect1_dropShadow_102_10471"/>
<feBlend mode="normal" in="SourceGraphic" in2="effect1_dropShadow_102_10471" result="shape"/>
</filter>
<filter id="filter14_d_102_10471" x="14.7891" y="22.9648" width="11.1826" height="11.2148" filterUnits="userSpaceOnUse" color-interpolation-filters="sRGB">
<feFlood flood-opacity="0" result="BackgroundImageFix"/>
<feColorMatrix in="SourceAlpha" type="matrix" values="0 0 0 0 0 0 0 0 0 0 0 0 0 0 0 0 0 0 127 0" result="hardAlpha"/>
<feOffset dy="4"/>
<feGaussianBlur stdDeviation="2"/>
<feComposite in2="hardAlpha" operator="out"/>
<feColorMatrix type="matrix" values="0 0 0 0 0 0 0 0 0 0 0 0 0 0 0 0 0 0 0.25 0"/>
<feBlend mode="normal" in2="BackgroundImageFix" result="effect1_dropShadow_102_10471"/>
<feBlend mode="normal" in="SourceGraphic" in2="effect1_dropShadow_102_10471" result="shape"/>
</filter>
<filter id="filter15_d_102_10471" x="3.125" y="27.7852" width="11.1826" height="11.2148" filterUnits="userSpaceOnUse" color-interpolation-filters="sRGB">
<feFlood flood-opacity="0" result="BackgroundImageFix"/>
<feColorMatrix in="SourceAlpha" type="matrix" values="0 0 0 0 0 0 0 0 0 0 0 0 0 0 0 0 0 0 127 0" result="hardAlpha"/>
<feOffset dy="4"/>
<feGaussianBlur stdDeviation="2"/>
<feComposite in2="hardAlpha" operator="out"/>
<feColorMatrix type="matrix" values="0 0 0 0 0 0 0 0 0 0 0 0 0 0 0 0 0 0 0.25 0"/>
<feBlend mode="normal" in2="BackgroundImageFix" result="effect1_dropShadow_102_10471"/>
<feBlend mode="normal" in="SourceGraphic" in2="effect1_dropShadow_102_10471" result="shape"/>
</filter>
<filter id="filter16_d_102_10471" x="8.96094" y="27.7852" width="11.1826" height="11.2148" filterUnits="userSpaceOnUse" color-interpolation-filters="sRGB">
<feFlood flood-opacity="0" result="BackgroundImageFix"/>
<feColorMatrix in="SourceAlpha" type="matrix" values="0 0 0 0 0 0 0 0 0 0 0 0 0 0 0 0 0 0 127 0" result="hardAlpha"/>
<feOffset dy="4"/>
<feGaussianBlur stdDeviation="2"/>
<feComposite in2="hardAlpha" operator="out"/>
<feColorMatrix type="matrix" values="0 0 0 0 0 0 0 0 0 0 0 0 0 0 0 0 0 0 0.25 0"/>
<feBlend mode="normal" in2="BackgroundImageFix" result="effect1_dropShadow_102_10471"/>
<feBlend mode="normal" in="SourceGraphic" in2="effect1_dropShadow_102_10471" result="shape"/>
</filter>
<filter id="filter17_d_102_10471" x="14.7891" y="27.7852" width="11.1826" height="11.2148" filterUnits="userSpaceOnUse" color-interpolation-filters="sRGB">
<feFlood flood-opacity="0" result="BackgroundImageFix"/>
<feColorMatrix in="SourceAlpha" type="matrix" values="0 0 0 0 0 0 0 0 0 0 0 0 0 0 0 0 0 0 127 0" result="hardAlpha"/>
<feOffset dy="4"/>
<feGaussianBlur stdDeviation="2"/>
<feComposite in2="hardAlpha" operator="out"/>
<feColorMatrix type="matrix" values="0 0 0 0 0 0 0 0 0 0 0 0 0 0 0 0 0 0 0.25 0"/>
<feBlend mode="normal" in2="BackgroundImageFix" result="effect1_dropShadow_102_10471"/>
<feBlend mode="normal" in="SourceGraphic" in2="effect1_dropShadow_102_10471" result="shape"/>
</filter>
<filter id="filter18_d_102_10471" x="19.3945" y="22.918" width="32.2764" height="32.082" filterUnits="userSpaceOnUse" color-interpolation-filters="sRGB">
<feFlood flood-opacity="0" result="BackgroundImageFix"/>
<feColorMatrix in="SourceAlpha" type="matrix" values="0 0 0 0 0 0 0 0 0 0 0 0 0 0 0 0 0 0 127 0" result="hardAlpha"/>
<feOffset dy="4"/>
<feGaussianBlur stdDeviation="2"/>
<feComposite in2="hardAlpha" operator="out"/>
<feColorMatrix type="matrix" values="0 0 0 0 0 0 0 0 0 0 0 0 0 0 0 0 0 0 0.25 0"/>
<feBlend mode="normal" in2="BackgroundImageFix" result="effect1_dropShadow_102_10471"/>
<feBlend mode="normal" in="SourceGraphic" in2="effect1_dropShadow_102_10471" result="shape"/>
</filter>
<filter id="filter19_d_102_10471" x="31.3633" y="27.918" width="13.7129" height="18.75" filterUnits="userSpaceOnUse" color-interpolation-filters="sRGB">
<feFlood flood-opacity="0" result="BackgroundImageFix"/>
<feColorMatrix in="SourceAlpha" type="matrix" values="0 0 0 0 0 0 0 0 0 0 0 0 0 0 0 0 0 0 127 0" result="hardAlpha"/>
<feOffset dy="4"/>
<feGaussianBlur stdDeviation="2"/>
<feComposite in2="hardAlpha" operator="out"/>
<feColorMatrix type="matrix" values="0 0 0 0 0 0 0 0 0 0 0 0 0 0 0 0 0 0 0.25 0"/>
<feBlend mode="normal" in2="BackgroundImageFix" result="effect1_dropShadow_102_10471"/>
<feBlend mode="normal" in="SourceGraphic" in2="effect1_dropShadow_102_10471" result="shape"/>
</filter>
</defs>
</svg>
