<svg width="32" height="32" viewBox="0 0 32 32" fill="none" xmlns="http://www.w3.org/2000/svg">
<g clip-path="url(#clip0_102_10582)">
<path opacity="0.928" fill-rule="evenodd" clip-rule="evenodd" d="M14.5933 0.469768C20.2044 0.154131 24.7773 2.15413 28.3121 6.46977C29.8395 8.49802 30.8291 10.7689 31.2808 13.2823C31.2609 13.354 31.2193 13.4061 31.1558 13.4385C30.8425 13.4908 30.53 13.5428 30.2183 13.5948C29.2969 8.68495 26.6094 5.11201 22.1558 2.87602C17.6941 0.919993 13.2982 1.06582 8.96831 3.31352C4.18668 6.15529 1.70751 10.374 1.53081 15.9698C1.70692 21.5013 4.14442 25.6991 8.84331 28.5635C10.1615 29.2981 11.5573 29.8293 13.0308 30.1573C13.0516 30.199 13.0725 30.2406 13.0933 30.2823C13.0306 30.5748 12.9681 30.8665 12.9058 31.1573C8.00137 30.0959 4.3868 27.3459 2.06206 22.9073C0.346168 19.3316 -0.00799858 15.6233 0.999557 11.7823C2.71831 6.31352 6.31206 2.71977 11.7808 1.00102C12.7145 0.755318 13.652 0.578233 14.5933 0.469768Z" fill="#EDEDED"/>
<path opacity="0.931" fill-rule="evenodd" clip-rule="evenodd" d="M14.6562 2.46875C15.0938 2.46875 15.5312 2.46875 15.9688 2.46875C15.9879 2.81834 15.9671 3.16209 15.9062 3.5C11.2214 3.69028 7.64844 5.76319 5.1875 9.71875C4.06913 11.6505 3.51704 13.7338 3.53125 15.9688C3.17708 15.9688 2.82292 15.9688 2.46875 15.9688C2.57114 11.2738 4.50864 7.55506 8.28125 4.8125C10.2206 3.51684 12.3456 2.73559 14.6562 2.46875Z" fill="#EDEDED"/>
<path opacity="0.945" fill-rule="evenodd" clip-rule="evenodd" d="M14.9687 7.4696C19.0642 7.2401 22.0121 8.94842 23.8125 12.5946C24.1996 13.5804 24.4391 14.6012 24.5312 15.6571C25.5142 15.3739 26.4101 14.926 27.2187 14.3134C28.7451 13.6091 30.0264 13.9112 31.0625 15.2196C31.5786 16.2089 31.5994 17.2089 31.125 18.2196C29.2821 20.6873 29.0321 23.3123 30.375 26.0946C30.625 26.4696 30.875 26.8446 31.125 27.2196C31.8292 28.746 31.5272 30.0272 30.2187 31.0634C29.3321 31.53 28.4154 31.5925 27.4687 31.2509C27.2969 31.1807 27.1407 31.0869 27 30.9696C26.9689 31.135 26.9585 31.3017 26.9687 31.4696C26.6354 31.4696 26.3021 31.4696 25.9687 31.4696C25.9583 30.5527 25.9687 29.636 26 28.7196C26.2896 28.3674 26.6021 28.0341 26.9375 27.7196C26.9792 25.9696 26.9792 24.2196 26.9375 22.4696C26.8209 22.0417 26.5605 21.9271 26.1562 22.1259C26.1171 22.1727 26.0859 22.2249 26.0625 22.2821C25.9741 22.8395 25.9429 23.402 25.9687 23.9696C25.6354 23.9696 25.3021 23.9696 24.9687 23.9696C24.9792 22.8027 24.9687 21.6361 24.9375 20.4696C24.8209 20.0417 24.5605 19.9271 24.1562 20.1259C24.0802 20.2289 24.0281 20.3434 24 20.4696C23.9687 21.6361 23.9583 22.8027 23.9687 23.9696C23.6354 23.9696 23.3021 23.9696 22.9687 23.9696C22.9792 22.4695 22.9687 20.9695 22.9375 19.4696C22.8209 19.0417 22.5605 18.9271 22.1562 19.1259C22.0802 19.2289 22.0281 19.3434 22 19.4696C21.9687 20.9695 21.9583 22.4695 21.9687 23.9696C21.6354 23.9696 21.3021 23.9696 20.9687 23.9696C20.9792 22.8027 20.9687 21.6361 20.9375 20.4696C20.864 20.1045 20.6452 19.9692 20.2812 20.0634C20.1667 20.0946 20.0937 20.1675 20.0625 20.2821C19.97 22.5074 19.9387 24.7366 19.9687 26.9696C19.6354 26.9696 19.3021 26.9696 18.9687 26.9696C18.9946 26.402 18.9634 25.8395 18.875 25.2821C18.6708 25.005 18.4208 24.9634 18.125 25.1571C18.0711 25.2563 18.0294 25.3605 18 25.4696C17.9583 26.0321 17.9583 26.5946 18 27.1571C18.9476 27.8184 19.9059 28.4642 20.875 29.0946C20.9663 29.88 20.9976 30.6717 20.9687 31.4696C20.6146 31.4696 20.2604 31.4696 19.9062 31.4696C19.9269 30.9679 19.9061 30.4679 19.8437 29.9696C19.0062 30.3154 18.2146 30.7425 17.4687 31.2509C16.1518 31.7522 15.0164 31.4919 14.0625 30.4696C13.5118 29.7459 13.3243 28.9334 13.5 28.0321C13.5796 27.7515 13.6838 27.4807 13.8125 27.2196C14.4534 26.4066 14.9222 25.5004 15.2187 24.5009C11.8523 24.0536 9.46687 22.2932 8.0625 19.2196C6.79319 15.6 7.49106 12.423 10.1562 9.68835C11.5431 8.47404 13.1473 7.73442 14.9687 7.4696ZM15.9062 8.4696C16.1521 8.52335 16.4021 8.54417 16.6562 8.5321C17.2558 10.1483 17.8912 11.7525 18.5625 13.3446C20.1605 14.0344 21.7751 14.6802 23.4062 15.2821C23.4062 15.4904 23.4062 15.6988 23.4062 15.9071C21.3082 16.1065 19.4124 15.5752 17.7187 14.3134C16.1924 13.6091 14.9111 13.9112 13.875 15.2196C13.3589 16.2089 13.3381 17.2089 13.8125 18.2196C15.0237 19.7391 15.5342 21.4683 15.3437 23.4071C14.6855 21.7885 14.0188 20.174 13.3437 18.5634C11.7516 17.8921 10.1474 17.2567 8.53125 16.6571C8.53125 16.1988 8.53125 15.7404 8.53125 15.2821C10.1474 14.6825 11.7516 14.0471 13.3437 13.3759C14.0335 11.7779 14.6793 10.1632 15.2812 8.5321C15.5026 8.55167 15.7109 8.53079 15.9062 8.4696ZM13.9062 8.7821C14.0141 8.80354 14.0453 8.86604 14 8.9696C13.5208 10.1571 13.0417 11.3446 12.5625 12.5321C11.3707 13.0336 10.1727 13.5232 8.96875 14.0009C8.89781 14.0477 8.83531 14.0373 8.78125 13.9696C9.6135 11.3665 11.3218 9.63742 13.9062 8.7821ZM17.9062 8.7821C20.5657 9.58742 22.3157 11.3166 23.1562 13.9696C23.1022 14.0373 23.0397 14.0477 22.9687 14.0009C21.7812 13.5217 20.5937 13.0425 19.4062 12.5634C18.8753 11.3142 18.3753 10.0537 17.9062 8.7821ZM15.8437 15.0321C16.2039 15.0102 16.558 15.0414 16.9062 15.1259C17.9618 15.8515 19.1077 16.3932 20.3437 16.7509C22.2441 17.1614 24.0982 17.0155 25.9062 16.3134C26.6941 15.9197 27.4649 15.503 28.2187 15.0634C29.7708 14.9488 30.4896 15.6675 30.375 17.2196C30.168 17.7171 29.8972 18.1755 29.5625 18.5946C28.3426 20.814 28.1343 23.1265 28.9375 25.5321C29.2374 26.299 29.6332 27.0074 30.125 27.6571C30.5559 28.4681 30.4831 29.2285 29.9062 29.9384C29.4189 30.3645 28.8564 30.5104 28.2187 30.3759C27.8003 30.1968 27.4045 29.978 27.0312 29.7196C26.9592 29.5567 26.9489 29.39 27 29.2196C27.3354 28.9051 27.6479 28.5718 27.9375 28.2196C27.9792 26.1571 27.9792 24.0946 27.9375 22.0321C27.5837 21.1365 26.9379 20.8031 26 21.0321C26.1634 20.056 25.7988 19.379 24.9062 19.0009C24.5904 18.952 24.2779 18.9625 23.9687 19.0321C23.4588 17.9766 22.6672 17.6954 21.5937 18.1884C21.3006 18.4084 21.0922 18.6896 20.9687 19.0321C20.017 18.7944 19.3607 19.1277 19 20.0321C18.9792 21.3654 18.9583 22.6988 18.9375 24.0321C17.9996 23.8031 17.3537 24.1365 17 25.0321C16.9583 25.9279 16.9583 26.8238 17 27.7196C17.0234 27.7769 17.0546 27.829 17.0937 27.8759C17.7187 28.2925 18.3437 28.7092 18.9687 29.1259C18.2167 29.5434 17.4667 29.9601 16.7187 30.3759C15.1667 30.4904 14.4479 29.7717 14.5625 28.2196C14.7695 27.7221 15.0403 27.2637 15.375 26.8446C16.5166 24.8325 16.7874 22.7075 16.1875 20.4696C15.9854 19.8155 15.7146 19.1905 15.375 18.5946C15.1003 18.2155 14.8503 17.8196 14.625 17.4071C14.3571 16.255 14.7634 15.4634 15.8437 15.0321ZM8.78125 17.9071C10.0529 18.3762 11.3133 18.8762 12.5625 19.4071C13.0417 20.5946 13.5208 21.7821 14 22.9696C14.0468 23.0405 14.0364 23.103 13.9687 23.1571C11.3157 22.3166 9.58656 20.5666 8.78125 17.9071Z" fill="#EDEDED"/>
<path fill-rule="evenodd" clip-rule="evenodd" d="M2.46875 16.9688C2.80208 16.9688 3.13542 16.9688 3.46875 16.9688C3.46875 17.3021 3.46875 17.6354 3.46875 17.9688C3.13542 17.9688 2.80208 17.9688 2.46875 17.9688C2.46875 17.6354 2.46875 17.3021 2.46875 16.9688Z" fill="#EDEDED"/>
</g>
<defs>
<clipPath id="clip0_102_10582">
<rect width="32" height="32" fill="white"/>
</clipPath>
</defs>
</svg>
