<svg width="32" height="32" viewBox="0 0 32 32" fill="none" xmlns="http://www.w3.org/2000/svg">
<path opacity="0.944" fill-rule="evenodd" clip-rule="evenodd" d="M15.0313 3.03116C19.0252 2.93619 22.8377 3.71744 26.4688 5.37491C26.7037 5.60887 26.7767 5.89012 26.6875 6.21866C26.5047 6.50209 26.2443 6.61666 25.9063 6.56241C19.0048 3.51396 12.1507 3.61813 5.34378 6.87491C4.24975 7.36947 3.20808 7.94241 2.21878 8.59366C4.17185 11.8124 6.1406 15.0208 8.12503 18.2187C10.7781 16.7422 13.6218 16.0859 16.6563 16.2499C17.0244 16.4862 17.1182 16.8091 16.9375 17.2187C16.8411 17.336 16.7265 17.4298 16.5938 17.4999C13.5673 17.4596 10.7548 18.2096 8.15628 19.7499C8.0489 19.7715 7.94471 19.8028 7.84378 19.8437C7.47853 19.7392 7.21815 19.51 7.06253 19.1562C4.9167 15.6353 2.77086 12.1145 0.625027 8.59366C0.539966 8.17009 0.696214 7.86803 1.09378 7.68741C4.7026 5.40786 8.61928 3.9287 12.8438 3.24991C13.5817 3.16778 14.3108 3.09487 15.0313 3.03116Z" fill="#EDEDED"/>
<path opacity="0.941" fill-rule="evenodd" clip-rule="evenodd" d="M15.7812 5.46875C17.5111 5.48186 19.2194 5.67977 20.9062 6.0625C21.3276 6.18595 21.5047 6.46719 21.4375 6.90625C21.3375 7.2065 21.1291 7.37313 20.8125 7.40625C18.7254 6.90594 16.6108 6.72881 14.4688 6.875C13.8664 6.96338 13.2623 7.00506 12.6562 7C12.1562 6.60419 12.1562 6.20833 12.6562 5.8125C13.699 5.62413 14.7406 5.50954 15.7812 5.46875Z" fill="#EDEDED"/>
<path opacity="0.949" fill-rule="evenodd" clip-rule="evenodd" d="M28.0941 6.28115C28.262 6.2709 28.4287 6.28134 28.5941 6.3124C29.4172 6.81772 30.2505 7.30734 31.0941 7.78115C31.33 8.05022 31.4029 8.36272 31.3129 8.71865C28.6722 13.0207 26.0472 17.3332 23.4378 21.6562C23.2185 21.9898 22.9165 22.1044 22.5316 21.9999C21.6149 21.4791 20.6983 20.9582 19.7816 20.4374C19.572 20.1004 19.5825 19.7567 19.8128 19.4062C21.0029 17.4738 22.2009 15.5467 23.4066 13.6249C23.084 13.3906 22.7506 13.1718 22.4066 12.9687C20.4247 16.1927 18.4664 19.4322 16.5316 22.6874C16.8129 22.8853 17.0524 23.1249 17.2504 23.4062C17.4787 23.8004 17.6558 24.2171 17.7816 24.6562C18.6234 24.9457 19.1129 25.529 19.2503 26.4062C19.292 27.0937 19.292 27.7812 19.2503 28.4687C19.2188 28.6887 19.1043 28.8449 18.9066 28.9374C16.0889 28.9992 13.2764 28.9784 10.4691 28.8749C10.3555 28.7624 10.2826 28.627 10.2504 28.4687C10.1957 27.6743 10.2166 26.8827 10.3129 26.0937C10.5476 25.3485 11.0372 24.8693 11.7816 24.6562C12.1125 23.096 13.0709 22.2418 14.6566 22.0937C14.8268 22.0968 14.9935 22.1177 15.1566 22.1562C17.3727 18.678 19.5289 15.1572 21.6253 11.5937C21.8747 11.3575 22.156 11.3054 22.4691 11.4374C23.0263 11.7525 23.5784 12.0753 24.1253 12.4062C25.3519 10.4218 26.5707 8.43222 27.7816 6.4374C27.895 6.39009 27.9992 6.33803 28.0941 6.28115ZM28.4691 7.84365C28.9052 8.06172 29.3219 8.31172 29.7191 8.59365C27.3337 12.4895 24.9483 16.3853 22.5628 20.2812C22.4973 20.3447 22.4244 20.3552 22.3441 20.3124C21.9899 20.0937 21.6358 19.8749 21.2816 19.6562C23.7056 15.733 26.1015 11.7955 28.4691 7.84365ZM14.5941 23.3437C15.3916 23.3709 15.9541 23.7459 16.2816 24.4687C15.2608 24.552 14.2399 24.552 13.2191 24.4687C13.5114 23.8841 13.9698 23.5091 14.5941 23.3437ZM12.1566 25.8437C13.8859 25.8332 15.615 25.8437 17.3441 25.8749C17.58 25.965 17.7571 26.1213 17.8754 26.3437C17.9066 26.7598 17.917 27.1765 17.9066 27.5937C15.8024 27.5937 13.6983 27.5937 11.5941 27.5937C11.5697 27.1298 11.6009 26.6715 11.6879 26.2187C11.82 26.0548 11.9762 25.9298 12.1566 25.8437Z" fill="#EDEDED"/>
<path opacity="0.925" fill-rule="evenodd" clip-rule="evenodd" d="M9.71875 6.3425C10.4265 6.26912 10.7494 6.58162 10.6875 7.28C10.6384 7.39162 10.5656 7.48537 10.4688 7.56125C9.87313 7.71118 9.28981 7.89868 8.71875 8.12375C8.1855 8.23518 7.873 8.02687 7.78125 7.49875C7.7965 7.28081 7.87981 7.09331 8.03125 6.93625C8.58875 6.70537 9.15125 6.50743 9.71875 6.3425Z" fill="#EDEDED"/>
<path opacity="0.942" fill-rule="evenodd" clip-rule="evenodd" d="M14.9067 11.8437C15.3447 11.8334 15.7822 11.8437 16.2192 11.875C16.6685 12.1412 16.7622 12.5058 16.5004 12.9687C16.444 13.0438 16.3711 13.0959 16.2817 13.125C13.9881 13.1687 11.7485 13.5333 9.56293 14.2187C8.94593 14.143 8.73755 13.8097 8.93793 13.2187C9.12574 12.9945 9.3653 12.8591 9.65668 12.8125C11.3819 12.3064 13.1319 11.9834 14.9067 11.8437Z" fill="#EDEDED"/>
</svg>
