<svg width="199" height="168" viewBox="0 0 199 168" fill="none" xmlns="http://www.w3.org/2000/svg">
<g clip-path="url(#clip0_325_13356)">
<path d="M70.7164 69.8789C70.7164 69.8789 76.1818 70.2416 77.7847 71.162C79.3876 72.0824 79.4932 77.6281 79.4932 77.6281C79.4932 77.6281 75.8215 80.8096 74.6094 80.5469C73.3973 80.2842 73.6582 78.9779 73.6582 78.9779L71.8086 76.2712L67.8385 74.1061L70.7164 69.8789Z" fill="#EB8D6F"/>
<path d="M53.8813 39.8463L54.4021 57.7635L70.7192 69.8783C70.7192 69.8783 71.0238 71.1917 69.7467 73.1184C68.4697 75.0451 67.0282 75.3563 67.0282 75.3563L46.1298 61.3602L42.7474 40.3636C42.7474 40.3636 42.5687 34.8594 47.8646 34.8594C53.1606 34.8594 53.8813 39.8463 53.8813 39.8463Z" fill="#0667F9"/>
<path d="M68.7935 69.8789C68.7935 69.8789 74.259 70.2416 75.8619 71.162C77.4647 72.0824 77.5703 77.6281 77.5703 77.6281C77.5703 77.6281 73.8986 80.8096 72.6865 80.5469C71.4745 80.2842 71.7354 78.9779 71.7354 78.9779L69.8858 76.2712L65.9156 74.1061L68.7935 69.8789Z" fill="#FCC29B"/>
<path d="M62.8646 149.903H77.0053L79.3939 145.785C81.1196 146.564 83.0331 147.395 84.0209 147.962C87.0297 149.692 84.4919 151.668 84.4919 151.668H62.8646V149.903Z" fill="#1A1A5E"/>
<path d="M72.178 142.629C72.178 142.629 75.864 144.196 79.3936 145.788L77.005 149.906H62.8642V142.84L72.178 142.629Z" fill="#EB8D6F"/>
<path d="M59.8766 80.9258L74.1777 109.56L73.9838 142.093C73.9838 142.093 72.3069 143.436 68.8189 143.644C66.721 143.771 64.6156 143.6 62.5657 143.139L61.5759 114.784L42.187 95.7816L52.0185 82.3362L59.8766 80.9258Z" fill="#1A1A5E"/>
<path d="M5.87917 131.902L9.63514 145.845L15.329 145.946C15.329 145.946 18.8352 147.595 19.5793 150.358C20.3234 153.121 18.1307 153.919 18.1307 153.919L8.49515 149.474L4.10473 132.882L5.87917 131.902Z" fill="#212178"/>
<path d="M12.0372 128.504L15.6602 136.167L15.3312 145.955L9.6374 145.849L5.88244 131.906L12.0372 128.504Z" fill="#FCC29B"/>
<path d="M55.499 82.3349L45.6107 117.972L19.4102 138.86C19.4102 138.86 16.9912 139.025 14.3427 135.511C11.6943 131.997 12.0374 128.5 12.0374 128.5L30.7614 111.526L33.7347 81.6641L55.499 82.3349Z" fill="#212178"/>
<path d="M44.2604 25.9535L45.2349 22.6992L54.3975 27.0305L53.629 31.8902L44.2604 25.9535Z" fill="#EB8D6F"/>
<path d="M33.7344 51.649V81.6628C33.7344 81.6628 37.868 83.9865 46.8589 83.9865C55.8499 83.9865 59.877 80.9222 59.877 80.9222C59.877 80.9222 59.4607 65.7249 58.603 51.3702C57.7452 37.0155 53.7882 30.7929 53.7882 30.7929L43.2309 27.0547C43.2309 27.0547 37.5908 29.4795 35.7261 36.181C33.8613 42.8824 33.7344 51.649 33.7344 51.649Z" fill="#FCEE21"/>
<path d="M43.2115 26.9554L51.6533 34.4732L52.6806 32.7809L53.7881 30.7966L44.2601 25.9531L43.2115 26.9554Z" fill="#0381E1"/>
<path d="M63.502 7.79153L62.4219 21.4845C62.4219 21.4845 59.681 27.41 56.1118 28.3628C52.5426 29.3155 48.1817 26.9928 45.2195 23.9052C42.2574 20.8177 40.6514 11.4631 40.6514 11.4631C40.6514 11.4631 41.025 2.46307 50.3012 0.834428C59.5775 -0.794217 63.502 7.79153 63.502 7.79153Z" fill="#FCC29B"/>
<path d="M65.7184 1.20519C65.7184 1.20519 67.776 9.5818 61.8142 11.464C55.8523 13.3463 47.9516 10.4183 47.9516 10.4183C47.9516 10.4183 47.975 12.244 47.8064 14.4597C47.17 13.3917 46.1893 12.8522 45.3965 13.1341C44.9214 13.3028 44.5682 13.7484 44.4149 14.3748C44.2616 15.0012 44.3195 15.7539 44.5773 16.4702C45.0849 17.8968 46.2492 18.8142 47.2248 18.5656C47.0096 19.5194 46.7446 20.4074 46.3842 21.0672C44.7032 24.1456 44.0495 23.4344 44.0495 23.4344C44.0495 23.4344 40.863 18.2706 40.2468 12.7401C39.6306 7.20955 42.6943 2.97124 46.974 1.12133C51.2538 -0.728576 54.217 -0.0264002 58.5719 1.383C62.9268 2.79241 65.7184 1.20519 65.7184 1.20519Z" fill="#0C0C0C"/>
<path d="M60.2475 14.9319C60.5735 15.0183 60.8556 15.2221 61.0393 15.5037C61.1598 15.6889 61.2401 15.8971 61.2748 16.115C61.2784 16.1455 61.2758 16.1765 61.2673 16.2061C61.2588 16.2357 61.2445 16.2634 61.2253 16.2875C61.2061 16.3116 61.1823 16.3317 61.1552 16.3466C61.1282 16.3616 61.0985 16.3711 61.0677 16.3746C61.037 16.3781 61.0059 16.3756 60.9761 16.3671C60.9464 16.3587 60.9186 16.3445 60.8944 16.3253C60.8702 16.3062 60.85 16.2825 60.835 16.2556C60.8199 16.2287 60.8104 16.1991 60.8069 16.1685C60.7809 16.0201 60.725 15.8785 60.6424 15.7523C60.5064 15.5431 60.2952 15.3481 59.8171 15.3481C59.339 15.3481 59.1004 15.5502 58.9492 15.7634C58.859 15.8887 58.7964 16.0316 58.7654 16.1827C58.7603 16.2142 58.7487 16.2443 58.7312 16.2711C58.7137 16.2979 58.6908 16.3208 58.6639 16.3382C58.626 16.3649 58.5809 16.3797 58.5345 16.3807C58.488 16.3817 58.4424 16.3687 58.4034 16.3436C58.3644 16.3185 58.3338 16.2823 58.3157 16.2398C58.2975 16.1972 58.2926 16.1502 58.3015 16.1049C58.3508 15.8871 58.4425 15.6812 58.5715 15.4987C58.7123 15.3026 58.8993 15.1439 59.1162 15.0366C59.333 14.9293 59.573 14.8767 59.8151 14.8834C59.9607 14.881 60.1061 14.8972 60.2475 14.9319ZM53.5568 15.2188C53.883 15.3042 54.1662 15.5059 54.3527 15.7856C54.4738 15.9732 54.5534 16.1843 54.5862 16.4049C54.5933 16.4656 54.5759 16.5266 54.5378 16.5746C54.4998 16.6225 54.4441 16.6534 54.3831 16.6605C54.3222 16.6676 54.2608 16.6503 54.2127 16.6124C54.1645 16.5745 54.1334 16.5192 54.1263 16.4585C54.101 16.3107 54.0453 16.1697 53.9629 16.0442C53.8258 15.8351 53.6086 15.628 53.1305 15.628C52.6523 15.628 52.4199 15.8301 52.2717 16.0453C52.1806 16.1737 52.1164 16.319 52.0829 16.4726C52.0713 16.5329 52.0361 16.5861 51.9851 16.6206C51.9341 16.6551 51.8714 16.668 51.8108 16.6565C51.7502 16.645 51.6967 16.61 51.6621 16.5592C51.6274 16.5084 51.6145 16.446 51.626 16.3857C51.6694 16.1675 51.7586 15.9609 51.8879 15.7795C52.0282 15.5833 52.2148 15.4244 52.4313 15.3169C52.6478 15.2094 52.8876 15.1567 53.1294 15.1632C53.2737 15.1635 53.4173 15.1822 53.5568 15.2188ZM57.1433 17.9871C57.1568 17.989 57.1701 17.9924 57.1829 17.9972C57.2122 18.0119 57.238 18.0327 57.2587 18.0581C57.2794 18.0835 57.2943 18.1131 57.3026 18.1447L57.9422 20.3351C57.9547 20.3828 57.9516 20.4332 57.9333 20.479C57.9151 20.5247 57.8826 20.5635 57.8407 20.5897L57.0052 21.112C56.9535 21.1415 56.8923 21.1499 56.8344 21.1354C56.7766 21.1209 56.7267 21.0847 56.6952 21.0343C56.6637 20.984 56.6529 20.9234 56.6653 20.8654C56.6777 20.8073 56.7122 20.7563 56.7616 20.7231L57.4468 20.2947L56.86 18.274C56.843 18.2154 56.8498 18.1523 56.8791 18.0986C56.9083 18.0449 56.9576 18.0049 57.0164 17.9871C57.0581 17.9773 57.1015 17.9773 57.1433 17.9871Z" fill="#212178"/>
<path d="M58.9111 23.2314C58.9111 23.2314 58.0757 22.8697 56.5093 22.9283C54.943 22.9869 53.4731 23.6658 53.4731 23.6658C53.4731 23.6658 54.0487 25.5087 56.0363 25.6491C58.0239 25.7895 58.9111 23.2314 58.9111 23.2314Z" fill="#FF5555"/>
<path d="M51.9587 39.8463L52.4734 57.7635L68.7905 69.8783C68.7905 69.8783 69.095 71.1917 67.818 73.1184C66.541 75.0451 65.0995 75.3563 65.0995 75.3563L44.2011 61.3602L40.8187 40.3636C40.8187 40.3636 40.64 34.8594 45.9359 34.8594C51.2319 34.8594 51.9587 39.8463 51.9587 39.8463Z" fill="#0381E1"/>
<path d="M179.287 82.2461C179.424 82.2463 179.558 82.2774 179.68 82.3372C179.803 82.397 179.91 82.4839 179.993 82.5911C180.076 82.6984 180.134 82.8232 180.161 82.956C180.189 83.0888 180.185 83.2262 180.151 83.3575L163.293 145.972C163.242 146.161 163.129 146.328 162.973 146.446C162.817 146.565 162.626 146.629 162.429 146.628H98.459C98.2626 146.629 98.0715 146.565 97.9154 146.446C97.7592 146.327 97.6466 146.161 97.5951 145.972L80.7369 83.3575C80.7028 83.2262 80.6994 83.0888 80.7268 82.956C80.7543 82.8232 80.8119 82.6984 80.8953 82.5911C80.9786 82.4839 81.0855 82.397 81.2078 82.3372C81.3301 82.2774 81.4645 82.2463 81.6007 82.2461H179.287ZM178.121 84.0172H82.7702L99.1472 144.855H161.744L178.121 84.0172Z" fill="#999999"/>
<path d="M165.822 130.812V132.5H138.836H95.1166V130.812H138.836H165.822Z" fill="#999999"/>
<path d="M74.2347 75.8711C74.3131 75.8724 74.3909 75.8839 74.4662 75.9054L78.5785 76.9996C79.2971 77.1742 79.9537 77.5418 80.4767 78.0625C81.4107 78.992 81.6756 80.2205 81.6756 80.2205L82.4603 82.8878C82.4932 82.9998 82.5035 83.1171 82.4908 83.2331C82.4781 83.3491 82.4426 83.4614 82.3863 83.5637C82.33 83.666 82.254 83.7563 82.1626 83.8293C82.0712 83.9024 81.9663 83.9569 81.8538 83.9896C81.7413 84.0223 81.6234 84.0326 81.5069 84.02C81.3903 84.0073 81.2774 83.972 81.1746 83.9159C81.0718 83.8599 80.9812 83.7842 80.9077 83.6932C80.8343 83.6023 80.7796 83.4979 80.7468 83.3859L79.956 80.6903C79.953 80.679 79.9507 80.6676 79.9489 80.656C79.9489 80.656 79.6687 79.775 79.2109 79.3183C78.6952 78.8051 78.281 78.7475 78.281 78.7475C78.2526 78.7495 78.2241 78.7495 78.1958 78.7475L74.0043 77.626C73.8908 77.596 73.7844 77.544 73.6912 77.473C73.5979 77.4019 73.5197 77.3133 73.4609 77.2121C73.4022 77.1109 73.3641 76.9992 73.3488 76.8833C73.3335 76.7675 73.3413 76.6497 73.3719 76.5369C73.4235 76.3477 73.5356 76.1803 73.6913 76.0602C73.847 75.9401 74.0377 75.8737 74.2347 75.8711Z" fill="#999999"/>
<path d="M96.4225 149.5C94.9335 148.018 94.9335 145.615 96.4225 144.133C97.9115 142.651 100.326 142.651 101.815 144.133C103.304 145.615 103.304 148.018 101.815 149.5C100.326 150.982 97.9115 150.982 96.4225 149.5Z" fill="#2DA2FC"/>
<path d="M99.1209 141.957C100.086 141.955 101.031 142.239 101.834 142.772C102.638 143.304 103.265 144.062 103.636 144.949C104.006 145.837 104.104 146.814 103.917 147.756C103.73 148.699 103.266 149.565 102.584 150.246C101.902 150.926 101.033 151.39 100.086 151.578C99.1393 151.766 98.1576 151.671 97.2652 151.304C96.3729 150.937 95.6099 150.315 95.0729 149.516C94.5359 148.718 94.2489 147.779 94.2483 146.818C94.252 145.532 94.7662 144.299 95.6789 143.389C96.5916 142.478 97.8287 141.964 99.1209 141.957ZM99.1209 144.079C98.5794 144.08 98.0505 144.241 97.6009 144.541C97.1512 144.842 96.801 145.268 96.5945 145.766C96.3879 146.264 96.3342 146.812 96.4402 147.341C96.5462 147.869 96.8071 148.354 97.19 148.735C97.5728 149.117 98.0606 149.376 98.5916 149.482C99.1226 149.587 99.6731 149.534 100.174 149.328C100.674 149.123 101.102 148.774 101.404 148.327C101.706 147.879 101.867 147.353 101.869 146.814C101.87 146.454 101.8 146.098 101.663 145.766C101.525 145.434 101.323 145.132 101.067 144.878C100.812 144.624 100.508 144.423 100.174 144.286C99.8399 144.15 99.482 144.081 99.1209 144.083V144.079Z" fill="#1A1A5E"/>
<path d="M158.065 147.674C157.579 145.635 158.847 143.59 160.896 143.107C162.945 142.624 165 143.885 165.485 145.925C165.971 147.964 164.703 150.009 162.654 150.492C160.605 150.975 158.55 149.714 158.065 147.674Z" fill="#2DA2FC"/>
<path d="M161.776 141.957C162.742 141.955 163.686 142.239 164.49 142.772C165.293 143.304 165.92 144.062 166.291 144.949C166.662 145.837 166.76 146.814 166.572 147.756C166.385 148.699 165.921 149.565 165.239 150.246C164.557 150.926 163.688 151.39 162.741 151.578C161.795 151.766 160.813 151.671 159.921 151.304C159.028 150.937 158.265 150.315 157.728 149.516C157.191 148.718 156.904 147.779 156.904 146.818C156.908 145.532 157.422 144.299 158.334 143.389C159.247 142.479 160.484 141.964 161.776 141.957ZM161.776 144.079C161.235 144.08 160.706 144.241 160.256 144.542C159.807 144.842 159.457 145.268 159.25 145.767C159.044 146.265 158.991 146.813 159.097 147.341C159.203 147.87 159.464 148.355 159.847 148.736C160.23 149.117 160.717 149.376 161.248 149.482C161.779 149.587 162.33 149.534 162.83 149.328C163.331 149.122 163.759 148.774 164.06 148.326C164.362 147.879 164.524 147.353 164.525 146.814C164.527 146.454 164.457 146.098 164.319 145.766C164.181 145.433 163.979 145.131 163.723 144.878C163.467 144.624 163.164 144.423 162.83 144.286C162.495 144.15 162.137 144.081 161.776 144.083V144.079Z" fill="#1A1A5E"/>
<path d="M141.799 83.2656L142.642 83.3525L142.371 85.9521H160.585L161.046 83.5273L161.879 83.6839L161.448 85.9541H178.045V87.219H161.203L159.21 97.6931H175.077V98.5377H159.05L155.863 115.294H170.838V116.138H155.703L153.435 128.059H167.082V129.325H153.195L152.797 131.416L151.963 131.259L152.332 129.325H137.856L137.611 131.675L136.768 131.589L137.003 129.325H123.048L123.285 131.589L122.441 131.675L122.197 129.325H108.062L108.431 131.259L107.597 131.416L107.199 129.325H93.7122V128.059H106.959L104.691 116.138H90.1156V115.294H104.53L101.344 98.5377H85.8714V97.6931H101.183L99.1908 87.219H82.7458V85.9541H98.9503L98.5188 83.6839L99.3512 83.5273L99.8131 85.9521H117.679L117.408 83.3525L118.252 83.2656L118.531 85.9521H141.52L141.799 83.2656ZM160.339 87.217H142.239L141.149 97.6911H158.351L160.339 87.217ZM141.388 87.217H118.66L119.755 97.6911H140.297L141.388 87.217ZM117.813 87.217H100.054L102.045 97.6911H118.904L117.813 87.217ZM158.187 98.5327H141.062L139.317 115.289H155.002L158.187 98.5327ZM140.209 98.5327H119.844L121.588 115.289H138.465L140.209 98.5327ZM118.993 98.5327H102.209L105.395 115.289H120.736L118.993 98.5327ZM154.842 116.133H139.229L137.988 128.054H152.572L154.842 116.133ZM138.379 116.133H121.676L122.917 128.054H137.135L138.379 116.133ZM120.825 116.133H105.554L107.821 128.054H122.065L120.825 116.133Z" fill="#999999"/>
<path d="M71.7311 79.2282C69.9662 79.2282 68.5355 77.8042 68.5355 76.0477C68.5355 74.2912 69.9662 72.8672 71.7311 72.8672C73.496 72.8672 74.9268 74.2912 74.9268 76.0477C74.9268 77.8042 73.496 79.2282 71.7311 79.2282Z" fill="#212178"/>
</g>
<g filter="url(#filter0_f_325_13356)">
<ellipse cx="99.3423" cy="160.57" rx="96.3423" ry="4.42953" fill="#D9D9D9" fill-opacity="0.1"/>
</g>
<defs>
<filter id="filter0_f_325_13356" x="0" y="153.141" width="198.685" height="14.8594" filterUnits="userSpaceOnUse" color-interpolation-filters="sRGB">
<feFlood flood-opacity="0" result="BackgroundImageFix"/>
<feBlend mode="normal" in="SourceGraphic" in2="BackgroundImageFix" result="shape"/>
<feGaussianBlur stdDeviation="1.5" result="effect1_foregroundBlur_325_13356"/>
</filter>
<clipPath id="clip0_325_13356">
<rect width="176.074" height="153.926" fill="white" transform="matrix(-1 0 0 1 180.181 0)"/>
</clipPath>
</defs>
</svg>
