<svg width="32" height="32" viewBox="0 0 32 32" fill="none" xmlns="http://www.w3.org/2000/svg">
<g clip-path="url(#clip0_844_86834)">
<path opacity="0.961" fill-rule="evenodd" clip-rule="evenodd" d="M31.9688 14.2187C31.9688 14.3854 31.9688 14.552 31.9688 14.7187C31.9177 14.8214 31.8344 14.8943 31.7188 14.9374C31.1562 14.9791 30.5938 14.9791 30.0312 14.9374C29.5208 14.7604 29.1771 14.4166 29 13.9062C28.9792 12.2604 28.9583 10.6145 28.9375 8.96867C28.8209 8.54073 28.5605 8.42617 28.1562 8.62492C28.0802 8.72792 28.0281 8.84248 28 8.96867C27.9984 10.6809 27.9568 12.3892 27.875 14.0937C27.3223 15.0027 26.5619 15.2215 25.5938 14.7499C25.2968 14.5365 25.0988 14.2553 25 13.9062C24.9984 12.194 24.9567 10.4856 24.875 8.78117C24.7913 8.61904 24.6559 8.52529 24.4688 8.49992C23.8232 8.46867 23.1774 8.45829 22.5312 8.46867C22.541 8.72379 22.5098 8.97379 22.4375 9.21867C22.4062 9.33323 22.3333 9.40617 22.2188 9.43742C21.3023 9.46867 20.3856 9.4791 19.4688 9.46867C19.4909 9.68498 19.4076 9.84123 19.2188 9.93742C18.759 9.94798 18.3007 9.97923 17.8438 10.0312C16.7376 11.389 15.3418 11.7953 13.6562 11.2499C12.2437 10.6175 11.5145 9.52373 11.4688 7.96866C11.5691 6.12915 12.5066 4.9729 14.2812 4.49991C15.7538 4.27884 16.9413 4.74759 17.8438 5.90616C18.3007 5.95812 18.759 5.98937 19.2188 5.99991C19.4076 6.09609 19.4909 6.25235 19.4688 6.46866C20.3856 6.45823 21.3023 6.46866 22.2188 6.49991C22.3333 6.53116 22.4062 6.6041 22.4375 6.71866C22.5098 6.96354 22.541 7.21354 22.5312 7.46866C23.3232 7.45823 24.1149 7.46866 24.9062 7.49991C25.4167 7.67698 25.7604 8.02073 25.9375 8.53117C25.9583 10.177 25.9792 11.8229 26 13.4687C26.1166 13.8966 26.377 14.0112 26.7812 13.8124C26.8573 13.7094 26.9094 13.5949 26.9375 13.4687C26.9391 11.7565 26.9808 10.0481 27.0625 8.34366C27.6239 7.43242 28.3843 7.21367 29.3438 7.68741C29.7696 8.00785 29.9884 8.43492 30 8.96867C30.0208 10.5312 30.0417 12.0937 30.0625 13.6562C30.1462 13.8183 30.2816 13.912 30.4688 13.9374C30.8854 13.9582 31.3021 13.9791 31.7188 13.9999C31.8344 14.043 31.9177 14.1159 31.9688 14.2187ZM14.9688 5.46866C15.4662 5.50603 15.9246 5.66228 16.3438 5.93741C15.7188 5.95825 15.0938 5.97908 14.4688 5.99991C13.2851 6.3971 12.7955 7.22004 13 8.46867C13.1979 9.24992 13.6875 9.73948 14.4688 9.93742C15.0938 9.95823 15.7188 9.9791 16.3438 9.99992C14.9831 10.7352 13.8268 10.4956 12.875 9.28117C12.1591 7.72085 12.5444 6.52291 14.0312 5.68741C14.3466 5.589 14.6591 5.51608 14.9688 5.46866ZM14.9062 6.96866C16.0938 6.96866 17.2812 6.96866 18.4688 6.96866C18.4688 7.63535 18.4688 8.30198 18.4688 8.96867C17.3019 8.9791 16.1353 8.96867 14.9688 8.93742C14.2286 8.82198 13.9265 8.39491 14.0625 7.65616C14.226 7.27316 14.5073 7.04404 14.9062 6.96866ZM19.5312 7.46866C20.1771 7.46866 20.8229 7.46866 21.4688 7.46866C21.4688 7.80198 21.4688 8.13535 21.4688 8.46867C20.8229 8.46867 20.1771 8.46867 19.5312 8.46867C19.5312 8.13535 19.5312 7.80198 19.5312 7.46866Z" fill="#EDEDED"/>
<path opacity="0.931" fill-rule="evenodd" clip-rule="evenodd" d="M8.4062 6.40625C8.73714 6.42 8.93508 6.58669 8.99995 6.90625C9.03108 7.09263 9.04151 7.28013 9.0312 7.46875C9.33508 7.49006 9.5017 7.65675 9.5312 7.96875C9.5017 8.28075 9.33508 8.44744 9.0312 8.46875C9.05851 8.77575 9.00645 9.06737 8.87495 9.34375C8.54495 9.54212 8.25326 9.5005 7.99995 9.21875C7.96876 8.96962 7.95833 8.71962 7.9687 8.46875C7.52508 8.40887 7.36883 8.15887 7.49995 7.71875C7.59908 7.55412 7.74495 7.44994 7.93745 7.40625C7.95826 7.17706 7.97914 6.94794 7.99995 6.71875C8.09764 6.56106 8.23308 6.45688 8.4062 6.40625Z" fill="#EDEDED"/>
<path opacity="0.883" fill-rule="evenodd" clip-rule="evenodd" d="M6.21868 9.96878C6.96736 9.9184 7.17574 10.2205 6.84368 10.875C6.21315 11.0983 5.9319 10.8796 5.99993 10.2188C6.06442 10.1233 6.13734 10.04 6.21868 9.96878Z" fill="#EDEDED"/>
<path opacity="0.883" fill-rule="evenodd" clip-rule="evenodd" d="M9.21867 10.9688C9.96736 10.9184 10.1757 11.2205 9.84367 11.875C9.21317 12.0983 8.93192 11.8796 8.99992 11.2188C9.06442 11.1233 9.13736 11.04 9.21867 10.9688Z" fill="#EDEDED"/>
<path opacity="0.955" fill-rule="evenodd" clip-rule="evenodd" d="M31.9688 21.7189C31.9688 22.7189 31.9688 23.7189 31.9688 24.7189C31.9177 24.8216 31.8344 24.8945 31.7188 24.9376C30.7389 24.9481 29.7598 24.9793 28.7812 25.0314C27.9503 26.8534 26.5336 27.6555 24.5312 27.4376C23.1464 27.1466 22.188 26.3445 21.6562 25.0314C17.8646 24.9481 14.0729 24.9481 10.2812 25.0314C9.44806 26.8544 8.03137 27.6565 6.03125 27.4376C4.64635 27.1466 3.68801 26.3445 3.15625 25.0314C2.79716 24.9944 2.44299 24.9424 2.09375 24.8751C1.37228 24.3296 0.663944 23.7776 -0.03125 23.2189C-0.03125 21.0522 -0.03125 18.8856 -0.03125 16.7189C0.0197772 16.6161 0.103111 16.5433 0.21875 16.5001C1.07292 16.4793 1.92708 16.4584 2.78125 16.4376C6.18353 13.9566 9.996 12.8108 14.2188 13.0001C17.5905 13.4469 20.5697 14.7594 23.1562 16.9376C24.9886 17.1334 26.8219 17.3209 28.6562 17.5001C30.1667 17.8439 31.0938 18.7709 31.4375 20.2814C31.4782 20.6768 31.5094 21.0726 31.5312 21.4689C31.7283 21.4733 31.8741 21.5567 31.9688 21.7189ZM12.7812 13.9689C15.2762 14.047 17.6095 14.7033 19.7812 15.9376C20.3229 16.2709 20.8646 16.6043 21.4062 16.9376C18.448 16.9689 15.4897 16.9793 12.5312 16.9689C12.5312 15.9897 12.5312 15.0106 12.5312 14.0314C12.6312 14.0481 12.7145 14.0273 12.7812 13.9689ZM11.1562 14.0939C11.2604 14.0939 11.3646 14.0939 11.4688 14.0939C11.4792 14.9483 11.4688 15.8024 11.4375 16.6564C10.2517 16.0791 9.05387 15.5271 7.84375 15.0001C8.92619 14.5891 10.0303 14.287 11.1562 14.0939ZM6.46875 15.5314C8.20963 16.3497 9.95963 17.1518 11.7188 17.9376C15.4688 17.9584 19.2188 17.9793 22.9688 18.0001C24.8029 18.1794 26.6363 18.3669 28.4688 18.5626C29.8786 19.006 30.5453 19.9748 30.4688 21.4689C30.0171 21.5159 29.8609 21.7659 30 22.2189C30.0312 22.3334 30.1042 22.4064 30.2188 22.4376C30.4679 22.4688 30.7179 22.4792 30.9688 22.4689C30.9688 22.9689 30.9688 23.4689 30.9688 23.9689C30.3021 23.9689 29.6354 23.9689 28.9688 23.9689C28.9776 21.8509 27.9567 20.5281 25.9062 20.0001C23.7481 19.785 22.3002 20.6912 21.5625 22.7189C21.4829 23.1316 21.4516 23.5483 21.4688 23.9689C17.8021 23.9689 14.1354 23.9689 10.4688 23.9689C10.4776 21.8509 9.45675 20.5281 7.40625 20.0001C5.33899 19.778 3.91191 20.6217 3.125 22.5314C2.99158 23.001 2.93949 23.4802 2.96875 23.9689C2.86255 23.9789 2.75838 23.9685 2.65625 23.9376C2.12343 23.5194 1.58176 23.1131 1.03125 22.7189C0.968763 20.9694 0.947931 19.2194 0.96875 17.4689C1.71904 17.4793 2.46904 17.4689 3.21875 17.4376C4.25668 16.7209 5.34001 16.0855 6.46875 15.5314ZM6.15625 21.0314C7.8015 20.8895 8.87438 21.5978 9.375 23.1564C9.54712 24.8029 8.84925 25.8758 7.28125 26.3751C5.63475 26.5472 4.56184 25.8494 4.0625 24.2814C3.89785 22.6295 4.59576 21.5462 6.15625 21.0314ZM24.6562 21.0314C26.3015 20.8895 27.3744 21.5978 27.875 23.1564C28.0471 24.8029 27.3493 25.8758 25.7812 26.3751C24.1348 26.5472 23.0618 25.8494 22.5625 24.2814C22.3979 22.6295 23.0958 21.5462 24.6562 21.0314ZM6.46875 23.0314C7.14488 22.9887 7.44694 23.3012 7.375 23.9689C7.185 24.3503 6.88287 24.4857 6.46875 24.3751C6.08734 24.1851 5.95192 23.883 6.0625 23.4689C6.16838 23.2902 6.30381 23.1444 6.46875 23.0314ZM24.9688 23.0314C25.6449 22.9887 25.9469 23.3012 25.875 23.9689C25.685 24.3503 25.3829 24.4857 24.9688 24.3751C24.5873 24.1851 24.4519 23.883 24.5625 23.4689C24.6684 23.2902 24.8038 23.1444 24.9688 23.0314Z" fill="#EDEDED"/>
<path opacity="0.927" fill-rule="evenodd" clip-rule="evenodd" d="M6.2188 21.9687C7.83205 21.8632 8.57162 22.6132 8.43755 24.2187C8.04199 25.2345 7.30243 25.6407 6.2188 25.4375C5.20305 25.0419 4.7968 24.3024 5.00005 23.2187C5.20952 22.6031 5.61577 22.1864 6.2188 21.9687ZM6.4688 23.0312C6.30387 23.1443 6.16844 23.2901 6.06255 23.4687C5.95197 23.8829 6.08739 24.185 6.4688 24.375C6.88293 24.4856 7.18505 24.3502 7.37505 23.9687C7.44699 23.3011 7.14493 22.9886 6.4688 23.0312Z" fill="#EDEDED"/>
<path opacity="0.926" fill-rule="evenodd" clip-rule="evenodd" d="M24.7188 21.9687C26.332 21.8632 27.0716 22.6132 26.9375 24.2187C26.5419 25.2345 25.8024 25.6407 24.7188 25.4375C23.9127 25.1491 23.4752 24.5762 23.4062 23.7187C23.4824 22.8559 23.9199 22.2726 24.7188 21.9687ZM24.9688 23.0312C24.8038 23.1443 24.6684 23.2901 24.5625 23.4687C24.4519 23.8829 24.5873 24.185 24.9688 24.375C25.3829 24.4856 25.685 24.3502 25.875 23.9687C25.9469 23.3011 25.6449 22.9886 24.9688 23.0312Z" fill="#EDEDED"/>
</g>
<defs>
<clipPath id="clip0_844_86834">
<rect width="32" height="32" fill="white"/>
</clipPath>
</defs>
</svg>
