<svg width="134" height="44" viewBox="0 0 134 44" fill="none" xmlns="http://www.w3.org/2000/svg">
<rect width="134" height="44" fill="url(#paint0_linear_325_13348)"/>
<path d="M81.02 13.648L75.632 31H72.716L68.924 19.144C68.82 18.856 68.724 18.504 68.636 18.088C68.588 18.288 68.54 18.476 68.492 18.652C68.444 18.828 68.392 18.992 68.336 19.144L64.508 31H61.58L56.204 13.648H58.904C59.184 13.648 59.416 13.716 59.6 13.852C59.792 13.98 59.92 14.156 59.984 14.38L62.936 24.76C63 25.016 63.06 25.296 63.116 25.6C63.18 25.896 63.244 26.208 63.308 26.536C63.372 26.2 63.44 25.884 63.512 25.588C63.592 25.292 63.676 25.016 63.764 24.76L67.172 14.38C67.236 14.196 67.36 14.028 67.544 13.876C67.736 13.724 67.968 13.648 68.24 13.648H69.188C69.468 13.648 69.696 13.716 69.872 13.852C70.048 13.988 70.18 14.164 70.268 14.38L73.664 24.76C73.832 25.256 73.984 25.828 74.12 26.476C74.224 25.844 74.34 25.272 74.468 24.76L77.42 14.38C77.468 14.18 77.588 14.008 77.78 13.864C77.98 13.72 78.216 13.648 78.488 13.648H81.02ZM87.7102 25.744C86.8542 25.784 86.1342 25.86 85.5502 25.972C84.9662 26.076 84.4982 26.212 84.1462 26.38C83.7942 26.548 83.5422 26.744 83.3902 26.968C83.2382 27.192 83.1622 27.436 83.1622 27.7C83.1622 28.22 83.3142 28.592 83.6182 28.816C83.9302 29.04 84.3342 29.152 84.8302 29.152C85.4382 29.152 85.9622 29.044 86.4022 28.828C86.8502 28.604 87.2862 28.268 87.7102 27.82V25.744ZM80.9182 20.404C82.3342 19.108 84.0382 18.46 86.0302 18.46C86.7502 18.46 87.3942 18.58 87.9622 18.82C88.5302 19.052 89.0102 19.38 89.4022 19.804C89.7942 20.22 90.0902 20.72 90.2902 21.304C90.4982 21.888 90.6022 22.528 90.6022 23.224V31H89.2582C88.9782 31 88.7622 30.96 88.6102 30.88C88.4582 30.792 88.3382 30.62 88.2502 30.364L87.9862 29.476C87.6742 29.756 87.3702 30.004 87.0742 30.22C86.7782 30.428 86.4702 30.604 86.1502 30.748C85.8302 30.892 85.4862 31 85.1182 31.072C84.7582 31.152 84.3582 31.192 83.9182 31.192C83.3982 31.192 82.9182 31.124 82.4782 30.988C82.0382 30.844 81.6582 30.632 81.3382 30.352C81.0182 30.072 80.7702 29.724 80.5942 29.308C80.4182 28.892 80.3302 28.408 80.3302 27.856C80.3302 27.544 80.3822 27.236 80.4862 26.932C80.5902 26.62 80.7582 26.324 80.9902 26.044C81.2302 25.764 81.5382 25.5 81.9142 25.252C82.2902 25.004 82.7502 24.788 83.2942 24.604C83.8462 24.42 84.4862 24.272 85.2142 24.16C85.9422 24.04 86.7742 23.968 87.7102 23.944V23.224C87.7102 22.4 87.5342 21.792 87.1822 21.4C86.8302 21 86.3222 20.8 85.6582 20.8C85.1782 20.8 84.7782 20.856 84.4582 20.968C84.1462 21.08 83.8702 21.208 83.6302 21.352C83.3902 21.488 83.1702 21.612 82.9702 21.724C82.7782 21.836 82.5622 21.892 82.3222 21.892C82.1142 21.892 81.9382 21.84 81.7942 21.736C81.6502 21.624 81.5342 21.496 81.4462 21.352L80.9182 20.404ZM96.3937 13.168V31H93.4297V13.168H96.3937ZM102.347 13.168V31H99.3828V13.168H102.347ZM113.232 23.428C113.232 23.044 113.176 22.684 113.064 22.348C112.96 22.004 112.8 21.704 112.584 21.448C112.368 21.192 112.092 20.992 111.756 20.848C111.428 20.696 111.044 20.62 110.604 20.62C109.748 20.62 109.072 20.864 108.576 21.352C108.088 21.84 107.776 22.532 107.64 23.428H113.232ZM107.58 25.216C107.628 25.848 107.74 26.396 107.916 26.86C108.092 27.316 108.324 27.696 108.612 28C108.9 28.296 109.24 28.52 109.632 28.672C110.032 28.816 110.472 28.888 110.952 28.888C111.432 28.888 111.844 28.832 112.188 28.72C112.54 28.608 112.844 28.484 113.1 28.348C113.364 28.212 113.592 28.088 113.784 27.976C113.984 27.864 114.176 27.808 114.36 27.808C114.608 27.808 114.792 27.9 114.912 28.084L115.764 29.164C115.436 29.548 115.068 29.872 114.66 30.136C114.252 30.392 113.824 30.6 113.376 30.76C112.936 30.912 112.484 31.02 112.02 31.084C111.564 31.148 111.12 31.18 110.688 31.18C109.832 31.18 109.036 31.04 108.3 30.76C107.564 30.472 106.924 30.052 106.38 29.5C105.836 28.94 105.408 28.252 105.096 27.436C104.784 26.612 104.628 25.66 104.628 24.58C104.628 23.74 104.764 22.952 105.036 22.216C105.308 21.472 105.696 20.828 106.2 20.284C106.712 19.732 107.332 19.296 108.06 18.976C108.796 18.656 109.624 18.496 110.544 18.496C111.32 18.496 112.036 18.62 112.692 18.868C113.348 19.116 113.912 19.48 114.384 19.96C114.856 20.432 115.224 21.016 115.488 21.712C115.76 22.4 115.896 23.188 115.896 24.076C115.896 24.524 115.848 24.828 115.752 24.988C115.656 25.14 115.472 25.216 115.2 25.216H107.58ZM122.107 31.192C121.035 31.192 120.211 30.892 119.635 30.292C119.067 29.684 118.783 28.848 118.783 27.784V20.908H117.523C117.363 20.908 117.227 20.856 117.115 20.752C117.003 20.648 116.947 20.492 116.947 20.284V19.108L118.927 18.784L119.551 15.424C119.591 15.264 119.667 15.14 119.779 15.052C119.891 14.964 120.035 14.92 120.211 14.92H121.747V18.796H125.035V20.908H121.747V27.58C121.747 27.964 121.839 28.264 122.023 28.48C122.215 28.696 122.475 28.804 122.803 28.804C122.987 28.804 123.139 28.784 123.259 28.744C123.387 28.696 123.495 28.648 123.583 28.6C123.679 28.552 123.763 28.508 123.835 28.468C123.907 28.42 123.979 28.396 124.051 28.396C124.139 28.396 124.211 28.42 124.267 28.468C124.323 28.508 124.383 28.572 124.447 28.66L125.335 30.1C124.903 30.46 124.407 30.732 123.847 30.916C123.287 31.1 122.707 31.192 122.107 31.192Z" fill="white"/>
<path d="M33.3337 21.9974C33.3337 22.351 33.1932 22.6902 32.9431 22.9402C32.6931 23.1903 32.3539 23.3307 32.0003 23.3307C31.6467 23.3307 31.3076 23.1903 31.0575 22.9402C30.8075 22.6902 30.667 22.351 30.667 21.9974C30.667 21.6438 30.8075 21.3046 31.0575 21.0546C31.3076 20.8045 31.6467 20.6641 32.0003 20.6641C32.3539 20.6641 32.6931 20.8045 32.9431 21.0546C33.1932 21.3046 33.3337 21.6438 33.3337 21.9974Z" fill="#EDEDED"/>
<path fill-rule="evenodd" clip-rule="evenodd" d="M21.259 10.332H25.4083C27.859 10.332 29.8003 10.332 31.319 10.536C32.8817 10.7467 34.147 11.1894 35.1457 12.1867C36.3777 13.42 36.771 15.0707 36.9137 17.2134C37.683 17.5507 38.2643 18.2667 38.327 19.1734C38.3337 19.2547 38.3337 19.3414 38.3337 19.4214V24.576C38.3337 24.656 38.3337 24.7427 38.3283 24.8227C38.2643 25.7294 37.683 26.4467 36.9137 26.7854C36.771 28.9267 36.3777 30.5774 35.1457 31.8107C34.147 32.808 32.8817 33.2507 31.319 33.4614C29.799 33.6654 27.859 33.6654 25.4083 33.6654H21.259C18.8083 33.6654 16.867 33.6654 15.3483 33.4614C13.7857 33.2507 12.5203 32.808 11.5217 31.8107C10.5243 30.812 10.0817 29.5467 9.87099 27.984C9.66699 26.464 9.66699 24.524 9.66699 22.0734V21.924C9.66699 19.4734 9.66699 17.532 9.87099 16.0134C10.0817 14.4507 10.5243 13.1854 11.5217 12.1867C12.5203 11.1894 13.7857 10.7467 15.3483 10.536C16.8683 10.332 18.8083 10.332 21.259 10.332ZM34.891 26.9987H32.307C29.447 26.9987 26.999 24.828 26.999 21.9987C26.999 19.1694 29.447 16.9987 32.3057 16.9987H34.8897C34.7377 15.2107 34.395 14.2654 33.7297 13.6014C33.1657 13.0374 32.3923 12.6987 31.051 12.5187C29.6817 12.3347 27.875 12.332 25.3323 12.332H21.3323C18.7897 12.332 16.9843 12.3347 15.6123 12.5187C14.2723 12.6987 13.499 13.0374 12.935 13.6014C12.371 14.1654 12.0323 14.9387 11.8523 16.28C11.6683 17.6507 11.6657 19.456 11.6657 21.9987C11.6657 24.5414 11.6683 26.3467 11.8523 27.7187C12.0323 29.0587 12.371 29.832 12.935 30.396C13.499 30.96 14.2723 31.2987 15.6137 31.4787C16.9843 31.6627 18.7897 31.6654 21.3323 31.6654H25.3323C27.875 31.6654 29.6817 31.6627 31.0523 31.4787C32.3923 31.2987 33.1657 30.96 33.7297 30.396C34.395 29.732 34.739 28.788 34.891 26.9987ZM15.0003 16.6654C15.0003 16.4001 15.1057 16.1458 15.2932 15.9583C15.4808 15.7707 15.7351 15.6654 16.0003 15.6654H21.3337C21.5989 15.6654 21.8532 15.7707 22.0408 15.9583C22.2283 16.1458 22.3337 16.4001 22.3337 16.6654C22.3337 16.9306 22.2283 17.1849 22.0408 17.3725C21.8532 17.56 21.5989 17.6654 21.3337 17.6654H16.0003C15.7351 17.6654 15.4808 17.56 15.2932 17.3725C15.1057 17.1849 15.0003 16.9306 15.0003 16.6654ZM35.899 18.9987H32.307C30.4083 18.9987 28.999 20.4107 28.999 21.9987C28.999 23.5867 30.4083 24.9987 32.3057 24.9987H35.9297C36.2043 24.9814 36.323 24.796 36.3323 24.684V19.3134C36.323 19.2014 36.2043 19.016 35.9297 19H35.8977L35.899 18.9987Z" fill="#EDEDED"/>
<defs>
<linearGradient id="paint0_linear_325_13348" x1="0" y1="0" x2="46.2511" y2="89.3979" gradientUnits="userSpaceOnUse">
<stop stop-color="#B36AFC"/>
<stop offset="1" stop-color="#510D95"/>
</linearGradient>
</defs>
</svg>
